<svg width="123" height="75" viewBox="0 0 123 75" fill="none" xmlns="http://www.w3.org/2000/svg">
<rect width="123" height="75" fill="#E5E5E5"/>
<g clip-path="url(#clip0)">
<rect width="1440" height="5327" transform="translate(-269 -3867)" fill="white"/>
<path fill-rule="evenodd" clip-rule="evenodd" d="M111.451 40.6407C111.169 38.2436 98.0643 43.1227 96.2475 43.6611C95.114 43.9968 87.2327 49.2964 86.4435 49.9134C80.1902 54.8034 63.965 63.7818 56.4295 64.5503C48.2056 65.3888 47.8937 64.8739 39.7039 64.45C33.4864 64.1281 34.7574 66.5692 28.2225 62.8522C25.5346 61.3234 5.77071 68.1408 5.47107 66.5137C8.07677 65.3275 19.0075 60.4375 20.5238 58.7805C22.6614 56.4452 29.7076 53.8133 32.2457 52.2227C35.5037 50.1808 34.4205 52.4796 35.9781 49.026C37.0136 46.7298 37.93 48.1818 39.5211 45.3665C40.4598 43.7051 54.8995 40.1158 57.8567 39.0348C61.1645 37.8254 66.2765 38.5088 71.1155 36.1099C73.981 34.6893 75.9038 36.5891 78.9252 36.9484C82.3393 37.3542 83.0643 38.373 87.7257 38.4138C93.0721 38.4607 94.1578 38.4619 99.1168 38.052C100.991 37.897 115.462 37.9649 115.574 38.6865C115.137 38.8922 116.263 39.1047 113.961 39.5598C113.599 39.6308 111.417 40.3571 111.45 40.6404L111.451 40.6407Z" fill="#48CAE4"/>
<path fill-rule="evenodd" clip-rule="evenodd" d="M107.582 36.1688C107.092 36.7288 107.121 36.3399 105.942 35.6119C100.853 32.4701 102.882 32.819 96.4709 30.9543C94.2508 30.3083 94.5498 29.7534 91.9103 29.8231C88.4607 29.9139 88.9912 29.4661 85.6038 30.7403C80.8814 32.5167 76.4225 34.8011 72.4349 37.8632C71.065 38.9151 73.1215 37.4916 73.3722 37.4303C75.9407 36.8024 78.2565 36.9074 80.6926 38.0188C81.2177 38.2581 84.4356 39.5835 84.8234 39.6252C87.3853 39.8994 88.2593 40.2054 90.7593 39.8654C93.1547 39.5398 95.6928 39.9635 98.4529 39.7622C99.6275 39.6767 105.008 39.2631 105.845 38.1088C106.344 37.4208 106.769 37.5206 107.13 36.5939C107.167 36.4967 107.526 36.2332 107.582 36.1691V36.1688Z" fill="#FEDDD8"/>
<path fill-rule="evenodd" clip-rule="evenodd" d="M91.3254 35.0379C90.9931 34.989 89.647 35.499 89.6367 35.9816C89.6318 36.1985 89.5559 36.1784 89.5914 36.6084C89.6266 37.0306 89.8352 38.0831 90.2405 38.2367C90.3809 38.2899 90.8215 38.7771 91.1506 38.9008C91.5649 39.057 91.5981 39.3929 92.2329 39.4413C93.5352 39.5414 94.7552 39.7988 95.7923 38.7487C95.9856 38.5522 96.4952 36.9288 96.0254 36.6443C95.5872 36.3792 95.2692 36.1605 94.8501 35.8741C94.5954 35.6995 93.0542 35.4326 92.5721 35.2798C92.3773 35.2183 91.405 35.0494 91.3254 35.0379Z" fill="white"/>
<path fill-rule="evenodd" clip-rule="evenodd" d="M83.0361 0.236084C81.996 1.83244 76.5379 3.15784 76.4336 3.90684C75.9879 7.10587 75.4886 4.08143 73.5916 7.01268C71.8281 9.73741 69.1382 11.7574 66.4076 13.3909C66.0412 13.6104 65.9065 14.3493 64.396 15.2608C61.9281 16.7504 66.1105 17.8098 62.0017 20.3473C59.2995 22.0164 61.2179 20.4862 58.9517 22.644C58.9385 22.6567 56.7342 25.2356 58.3501 25.3101C60.4806 25.4084 55.0323 29.1028 54.4797 29.7566C53.9259 30.4118 54.6152 29.219 55.5677 30.9379C58.4782 31.2082 56.2744 30.4267 57.9711 31.9057C58.6652 32.5103 58.6913 31.3417 59.5235 33.7592C60.4691 36.5073 62.4337 35.8886 57.2552 35.4082C46.623 34.4228 53.9603 33.9957 48.7469 32.456C46.0206 31.6512 47.3108 29.33 43.3249 29.71C35.5969 30.4469 38.7976 26.9789 34.5178 26.3001C32.4538 25.9731 27.6065 24.9025 29.1795 26.798C31.0094 29.003 27.7466 29.0352 26.9769 31.5767C26.3231 33.7356 23.6089 36.7316 21.6042 34.7127C21.0842 34.189 17.8913 39.257 20.6087 40.1188C22.7205 40.7884 19.4178 44.2635 19.8398 46.0454C18.0571 46.4714 23.0431 45.7561 23.182 45.7655C23.1763 45.9459 24.0222 47.1988 25.2721 46.8292C30.1899 45.3744 24.9512 47.6116 30.8762 49.671C34.9601 51.0902 32.7695 50.0547 33.5579 51.6516C34.1675 51.5058 33.8936 50.6326 35.3531 50.126C38.96 48.8743 37.9233 45.5671 48.5616 43.4461C52.6655 42.6278 56.2641 42.8142 61.0504 41.7916C62.7362 41.4315 67.0619 42.5547 67.5342 41.4399C68.19 39.8924 69.7183 39.6335 71.0005 38.3487C70.7438 38.0786 74.4109 35.2273 75.814 34.9736C75.8478 34.9673 77.3638 33.8542 79.2006 33.3321C80.1451 33.064 82.6975 31.9687 80.6361 31.1823C79.3298 30.6839 82.1246 28.7602 82.1827 27.979C82.4414 24.5024 90.6802 25.0316 88.772 23.0553C85.7169 19.8911 88.2312 19.5658 88.1049 15.2387C87.9103 8.57308 90.6954 11.6706 88.6133 2.88718C88.1662 1.00061 87.4675 4.9052 84.5595 0.969832C84.2195 0.509621 82.7187 0.725633 83.0375 0.236659L83.0361 0.236084Z" fill="#48CAE4"/>
<path fill-rule="evenodd" clip-rule="evenodd" d="M32.9843 58.8297C32.4672 60.0153 29.9311 60.0677 28.1456 61.5852C27.746 61.9252 22.7351 63.2129 25.9309 62.6126C26.3709 62.5301 29.2866 63.3585 31.2254 63.1542C32.1653 63.055 39.1668 66.638 42.5474 65.7193C42.5595 65.7277 45.8447 66.4151 46.1944 66.0976C46.6998 65.6397 51.9066 65.7003 54.5596 64.5547C57.4079 63.3245 60.5877 64.1796 64.4796 61.9085C67.1781 60.3346 82.2096 56.3828 82.2612 53.9549C85.6742 51.439 87.2913 48.2089 91.3508 45.8014C93.809 44.344 94.5675 43.15 97.7115 43.3661C98.2575 43.4032 100.099 42.8282 102.357 42.9973C102.719 43.0246 112.327 41.7035 107.43 40.4687L107.086 40.3819C104.903 40.2429 101 39.3608 99.3446 39.9717C97.6422 40.5999 84.5254 39.8587 83.4772 39.3527C80.2674 37.8044 77.0243 34.0295 73.3091 38.2042C72.3065 39.3309 71.197 39.0337 69.7612 40.9804C68.2942 42.9703 68.5389 40.5053 72.4437 42.4077C76.1047 44.1907 74.7807 42.0467 79.4163 43.314C79.1682 45.6553 80.7541 44.4907 81.0285 46.1072C81.0354 46.1483 82.2626 47.262 80.5719 48.7439C76.9601 51.909 73.9488 50.7944 72.493 51.6113C67.9447 54.1614 63.6741 55.8478 58.4128 55.5191C55.6605 55.3471 50.751 58.0669 46.552 58.3747C42.7551 58.6528 37.1203 59.3135 33.3415 59.3106C33.0863 59.3103 33.143 59.2217 32.984 58.8303L32.9843 58.8297Z" fill="#FEDDD8"/>
<path fill-rule="evenodd" clip-rule="evenodd" d="M93.3071 34.9679C92.865 34.4899 90.9901 34.6136 89.6904 32.9462C89.5512 32.7675 89.681 32.8702 89.5225 33.0644C88.5317 32.7926 87.5757 32.6229 86.9541 31.8382C86.9263 31.8034 86.8117 32.1785 86.4605 31.951C85.2828 31.1882 85.7266 33.3503 83.9089 31.1036C83.7035 30.8493 82.5058 32.0557 81.3748 32.0188C80.5974 31.9938 76.0377 35.1727 75.7761 35.2351C74.1894 35.6142 72.2449 35.6024 76.0947 35.7595C77.5608 35.8196 79.52 36.0629 81.1021 36.8154C81.1752 37.8362 87.2013 38.813 88.4288 39.31C89.8626 39.8907 88.3391 37.9087 89.255 36.8269C90.0244 35.9185 89.0301 34.852 92.4746 34.8388C92.739 34.8379 93.0954 34.7246 93.3159 34.8454L93.3071 34.9673V34.9679Z" fill="#CFE3E2"/>
<path fill-rule="evenodd" clip-rule="evenodd" d="M68.9027 42.9624C67.7416 41.9899 66.7728 42.6972 65.366 41.0306C63.8809 39.2715 62.9301 40.9259 59.9199 39.3759C59.3931 39.1046 54.6372 38.7281 54.1823 38.9188C54.8632 38.9815 49.2241 39.0753 48.5495 39.3129C47.448 39.7009 42.5217 41.1471 41.8788 41.2397C39.6739 41.5576 42.1836 41.4028 40.0987 41.8849C35.1314 43.0337 38.7529 42.4437 35.7129 43.5247C32.5652 44.6438 33.6077 44.2297 31.3142 45.8344C29.3677 47.196 29.8498 47.2343 27.65 48.0534C25.7141 48.7745 30.9891 47.2265 29.9463 48.5985C28.6919 50.2495 29.2909 49.6101 30.5359 49.9009C31.0352 50.0174 30.5416 50.2291 30.8 50.9263C31.0627 51.6353 33.4639 49.7323 33.3567 51.2973C33.302 52.099 33.8824 51.6137 34.4416 52.2914C34.759 52.6754 36.5328 52.0242 36.7625 51.9238C39.8572 50.5748 38.8383 50.3113 42.7694 49.1223C46.1715 48.0928 48.6245 47.3798 51.8668 45.9373C55.4256 44.3539 60.9547 43.8408 64.8652 43.7562C66.0586 43.7306 67.931 43.5859 69.119 43.2054C69.1155 43.1999 68.6131 42.7207 68.9021 42.9626L68.9027 42.9624Z" fill="#0077B6"/>
<path fill-rule="evenodd" clip-rule="evenodd" d="M60.3765 38.4442C59.8709 37.3783 58.4191 37.8074 57.0249 37.3803C55.885 37.0314 57.4826 37.7545 56.3445 37.1786C53.7715 35.8771 52.7493 37.7939 50.4178 37.0702C49.1227 36.6681 44.7271 37.6895 43.3303 37.8457C41.2368 38.0798 40.1081 38.009 37.5153 39.1745C34.7486 40.4185 28.1441 42.9307 25.7619 44.064C24.6292 44.6027 20.4926 41.2164 19.8907 42.012C20.1067 41.8771 21.3801 42.2067 21.6362 42.077C20.7424 43.1295 17.2807 43.1303 21.2901 43.7335C21.1337 44.4462 19.0402 45.597 19.8165 46.1622C19.8254 46.3596 18.8864 47.3919 21.3698 46.3949C22.4916 45.9445 22.4572 46.277 23.6741 45.4964C24.7068 44.8337 25.0385 44.947 25.6705 44.6154C25.4611 47.001 22.7073 46.6731 27.8439 45.9149C30.4247 45.5343 31.6462 44.5777 29.9142 46.5014C29.5985 46.852 30.2972 46.9866 31.0343 46.3049C32.4408 45.0039 32.8345 45.1282 34.9085 44.5923C37.3051 43.9731 36.7908 44.3343 38.5827 43.3803C40.4379 42.392 44.9122 41.3853 46.9524 40.9063C48.8617 40.4585 47.6494 40.5517 49.7495 40.4401C52.0148 40.3196 52.6723 40.0926 54.9835 40.1415C55.0099 40.1421 61.7226 40.3705 61.4597 39.927C60.9368 39.0434 60.8455 40.0302 60.7019 38.712C60.7017 38.7088 60.174 38.0171 60.3765 38.4439V38.4442Z" fill="#ADE8F4"/>
<path fill-rule="evenodd" clip-rule="evenodd" d="M92.9646 34.7945C92.2132 34.808 90.8656 34.2989 90.234 33.9877C90.1566 33.9494 89.3654 33.6738 89.4791 33.8341C90.0091 34.5822 89.0849 34.0748 88.6189 34.279C88.6552 34.4933 88.7833 34.4438 88.2121 34.4499C86.8665 34.4648 85.6178 33.6526 86.4497 34.4493C86.9883 34.9653 86.7694 34.4798 87.1504 35.1963C87.21 35.3085 87.5466 35.6079 87.5317 35.6965C87.3352 35.752 88.1407 36.497 88.3149 36.9241C88.516 37.4168 89.4376 37.9788 89.7974 38.0024C89.883 36.4112 88.8967 35.2081 91.4583 35.2193C91.8261 35.2207 92.7274 35.1028 93.0522 34.9575L92.9651 34.7942L92.9646 34.7945Z" fill="#BDE6E4"/>
<path fill-rule="evenodd" clip-rule="evenodd" d="M88.3261 4.03255C89.9266 4.38519 89.5315 10.0685 88.7002 11.928C88.3725 12.6603 88.889 13.8842 88.0686 16.1384C86.3546 20.8463 86.4145 17.7287 88.7655 22.8822C89.3084 24.0715 87.8795 24.2631 86.1667 24.9517C84.6705 25.5531 82.942 27.2249 82.5635 28.7093C82.3444 29.5699 80.1223 31.2169 79.5542 30.8594C78.1121 29.9525 70.8625 30.2384 69.2632 31.0348C62.9881 34.1596 63.9847 32.5808 69.4614 30.5105C70.7662 30.0172 76.2266 26.0893 76.9365 26.3988C77.3344 26.1215 81.5343 23.1951 80.3291 22.8658C80.7195 22.854 82.5326 22.6673 81.6202 21.9339C79.8372 20.5012 81.7657 19.7637 82.4034 18.2165C83.1789 16.3348 85.1454 17.0666 81.8551 16.3596C80.3087 16.0274 80.9682 15.6695 81.4495 15.774C81.0799 15.0181 80.7502 9.78202 79.953 7.38288C81.8213 9.81021 83.0136 10.2589 83.6292 12.8579C84.4694 13.0478 84.6418 10.7243 85.2357 9.3963C85.3666 9.10407 82.3659 -1.95651 83.8884 0.304564C85.1959 2.24579 88.8211 3.61031 88.5679 4.77838L88.3261 4.03284V4.03255Z" fill="#CAF0F8"/>
<path fill-rule="evenodd" clip-rule="evenodd" d="M79.8145 30.4481C79.7063 30.3379 79.0445 30.4139 80.8882 31.2871C81.8479 31.7416 78.8718 32.7186 77.9952 33.6146C76.5038 35.1388 73.0009 36.5922 71.9261 38.211C71.5354 38.7992 71.0931 38.93 70.7227 39.2554C70.9094 39.2522 69.6464 41.6203 69.3591 41.2265C68.7139 40.3409 67.0364 40.338 66.1684 40.6587C65.431 40.9314 66.1827 40.6944 65.0515 39.744C63.6635 38.5783 63.6693 37.6233 62.3916 37.0722C61.3134 36.6071 60.7791 35.125 59.9495 35.0413C59.9123 34.8834 60.8562 33.9371 61.758 33.8726C63.1952 33.7702 64.7174 32.3047 66.3162 31.9512C69.0228 31.3533 68.7483 30.4 72.1387 30.1924C74.0666 30.0747 76.5053 27.9296 79.3568 27.7328C80.6616 27.6428 79.4123 30.4366 79.7226 30.5516L79.8142 30.4478L79.8145 30.4481Z" fill="#0077B6"/>
<path fill-rule="evenodd" clip-rule="evenodd" d="M111.451 40.6408C111.308 40.5919 111.581 40.5309 111.305 40.6178C111.166 40.6618 111.248 40.6399 111.186 40.7041L111.451 40.6408ZM108.349 40.8361C108.429 40.7305 108.467 40.824 108.321 40.7187H108.111L107.917 40.7835C107.995 40.8277 107.87 40.8649 108.151 40.7975L108.349 40.8361H108.349ZM93.0891 35.9705C92.9788 35.9049 93.2063 35.8586 92.9161 35.9397L93.0178 36.064C93.3573 36.435 93.7643 36.8714 94.3278 36.8685C94.231 36.4606 94.1451 36.2239 93.9273 36.047C93.6773 35.8442 93.5231 35.867 93.0891 35.9705ZM90.8793 35.3052C90.5052 35.3944 90.1895 35.4729 89.9815 35.6581C89.5928 36.0042 89.9002 36.6988 90.0976 37.0451C90.5275 37.8004 89.8148 37.1164 90.965 38.206C91.4523 38.6676 91.9808 38.9981 92.6763 39.1008C93.9451 39.2881 95.3623 38.7841 95.7527 37.4653C95.81 37.2718 95.8326 37.098 95.8787 36.9191L95.1672 36.5124C95.2906 37.0949 95.3668 37.3969 95.1193 37.7544C94.7352 38.3092 92.163 39.6341 91.0515 36.6804C90.9466 36.4022 90.9065 36.2984 90.8894 35.9932C90.8713 35.672 90.9094 35.5905 90.8793 35.3049V35.3052ZM59.1004 38.7568L59.2477 38.8022L59.1004 38.7568ZM94.9813 30.1819L95.1282 30.2277L94.9813 30.1819ZM94.8329 30.1471L94.9813 30.1819L94.8329 30.1471ZM78.642 33.5515L78.5988 33.6053L78.4538 33.643L78.3736 33.7293C78.2573 33.8101 78.2344 33.7581 78.3564 33.8222L78.461 33.7083L78.6048 33.6896L78.7243 33.5754C79.0425 33.4992 78.8406 33.5533 78.9007 33.4629L78.642 33.5512V33.5515ZM94.8329 30.1471L94.4063 30.0134C92.2401 29.5572 91.1715 29.6392 88.952 29.7864C86.2578 29.9656 82.8981 31.2367 80.5625 32.4479C80.256 32.6067 80.0254 32.7628 79.712 32.9432C79.5427 33.0407 79.445 33.0864 79.2791 33.1865L78.9004 33.4632C79.2072 33.3827 80.211 32.8046 80.6387 32.6084C81.2194 32.3423 81.8719 32.0363 82.4962 31.7708C83.5647 31.3172 85.4883 30.6384 86.7545 30.5136L88.8689 30.1983C90.739 30.0174 91.9966 29.9262 93.8494 30.0925C94.1284 30.1175 94.5567 30.1894 94.8329 30.1471ZM56.4778 37.1366L56.4626 37.161C56.4635 37.1596 56.4858 37.1415 56.4778 37.1366ZM56.1974 37.1331L56.3443 37.1789L56.1974 37.1331ZM50.0306 35.3159C50.1122 35.2189 50.1389 35.2963 50.0065 35.2146L49.8696 35.2276L49.6653 35.2491C49.7596 35.2949 49.6083 35.3133 49.8808 35.2724L50.0306 35.3159ZM42.8915 34.4144C42.803 34.3598 42.5538 34.6005 42.791 34.4748C42.8457 34.4455 43.0299 34.4999 42.8915 34.4144ZM49.3508 32.4493L49.3356 32.4738C49.3368 32.4723 49.3588 32.4545 49.3508 32.4493ZM49.1365 32.4303L49.1213 32.4551C49.1222 32.4534 49.1445 32.4355 49.1365 32.4303ZM48.8561 32.4272L49.003 32.4729L48.8561 32.4272ZM48.6418 32.4082C48.7309 32.4588 48.5418 32.5023 48.8561 32.4272C48.767 32.3766 48.956 32.3331 48.6418 32.4082ZM48.4934 32.3734L48.6418 32.4082L48.4934 32.3734ZM38.7744 33.572C38.9343 33.4805 38.9627 33.5196 38.7676 33.5041L38.6043 33.4434L38.4123 33.5187C38.4937 33.5651 38.3336 33.6076 38.6361 33.5357L38.7747 33.572H38.7744ZM39.4305 32.5028L39.5774 32.5486L39.4305 32.5028ZM48.4931 32.3734C47.974 32.101 45.4036 31.9681 43.7472 30.3456C43.7232 30.322 43.4799 30.0637 43.4653 30.045C43.3296 29.8699 43.2651 29.9113 43.5361 29.7721C43.5954 29.7419 43.993 29.592 44.0517 29.5727C44.3597 29.8592 45.2483 30.1425 45.7754 30.3548L47.6102 30.9565L50.8739 31.6233C51.1323 31.6652 51.2667 31.7182 51.5248 31.7596C52.2842 31.881 53.2906 32.185 54.0709 32.3987C56.3059 33.0105 60.3549 34.6399 62.0865 36.0962C62.3255 36.2973 62.878 36.7232 63.015 36.9778C63.5742 36.8311 64.3972 36.3649 65.8648 36.016C67.7314 35.5724 71.124 35.1091 72.9843 35.462C75.1082 35.865 74.4496 35.8952 75.2379 35.3409C75.6066 35.0814 75.8957 34.8721 76.2526 34.6066C77.2934 33.8305 77.3541 33.8484 78.394 33.2067C80.1285 32.1364 81.254 31.5226 83.186 30.7221C84.7996 30.0534 87.3538 29.3527 89.1516 29.1824C89.6618 29.1344 90.0523 29.1306 90.5568 29.1022C91.9198 29.0257 91.8699 28.9592 93.2513 29.1304C94.6681 29.3055 96.5989 29.7548 97.9069 30.3836C98.3598 30.601 99.5051 31.2427 99.905 31.5482C100.264 31.8229 101.924 33.2228 101.988 33.6019C102.031 33.8541 102.06 34.0816 102.129 34.3713C101.59 33.9838 102.16 33.8797 99.6658 32.9515C98.7191 32.5992 97.8431 32.2422 96.8565 32.0041C96.5966 31.9414 96.3801 31.8706 96.136 31.797C94.4756 31.2965 92.3105 31.2096 90.5551 31.2234C88.5544 31.2395 85.0291 32.0395 83.0582 32.6846C81.1048 33.3243 79.3213 34.2838 77.5752 35.2529C77.4457 35.3248 77.3842 35.359 77.2375 35.441L76.9103 35.6927C78.8128 35.2379 81.9928 36.0309 83.917 36.6131L85.3889 36.9766C86.1056 37.0834 88.5552 37.6201 89.302 37.5062C89.2152 37.174 88.8236 36.5153 89.2049 35.858C90.2096 34.1251 93.5968 34.7475 95.0635 35.6656C95.9466 36.2182 97.3546 36.9119 97.9748 37.8283C98.0805 37.9842 98.3252 38.4499 98.371 38.6392C98.5182 38.8949 98.5529 38.6699 98.5569 38.6648C98.7852 38.4119 100.167 37.4242 100.501 37.1645C100.952 36.8159 100.721 36.9534 101.294 36.9277C101.974 36.8973 102.598 36.7319 103.147 36.4172C104.729 35.5106 103.433 34.9891 105.356 35.6489L107.013 36.0801C107.203 36.1152 107.378 36.1368 107.581 36.167C110.775 36.639 114.889 36.8018 118.375 37.2689L122.751 37.872C123.049 37.9405 122.873 37.8254 123 38.0193C122.429 37.8951 122.369 38.0343 121.71 38.1864C120.646 38.4324 118.501 39.1696 117.389 39.4307C116.411 39.6608 115.314 39.9818 114.343 40.1587L111.45 40.6393L114.004 40.6209C114.541 40.5936 114.788 40.5407 115.381 40.4029C116.061 40.2444 116.185 40.1696 116.412 39.7347C116.449 39.9812 116.468 39.8648 116.363 40.0445C116.219 40.2902 115.764 40.4725 115.539 40.5562C114.13 41.0817 112.515 41.1726 111.031 41.3228L105.068 42.0177C104.098 42.1529 103.031 42.242 102.069 42.3939C101.519 42.4808 101.089 42.5964 100.536 42.6824C100.263 42.725 100.149 42.7054 99.7907 42.7926L97.3904 43.2976C93.4378 44.2416 88.8039 46.3874 85.5109 48.5501C84.0594 49.5033 82.7385 50.5221 81.3234 51.5216C80.3508 52.2085 75.7238 55.3969 74.6043 55.765C74.777 55.5228 76.5356 54.4813 77.222 53.9222C77.3801 53.7936 77.479 53.7395 77.6385 53.6124L78.8867 52.6252C79.9128 51.8921 81.2065 50.7214 82.1722 50.0038C83.8623 48.748 84.6292 48.0185 86.5852 46.8881C92.6749 43.3693 96.1432 42.2136 102.978 41.1881L107.917 40.7823C107.901 40.7765 107.871 40.7556 107.867 40.7708L107.658 40.7438C106.546 40.6825 105.112 40.7334 103.999 40.7219C103.575 40.7173 103.097 40.711 102.653 40.7058C101.705 40.6951 98.194 40.6391 97.5171 40.327C97.2094 40.1852 97.3916 40.1412 96.951 40.237C95.8785 40.4696 95.875 40.5372 94.6501 40.6721C91.4686 41.023 92.285 40.9903 89.1121 40.9503C87.4151 40.9287 85.6725 40.839 84.0193 40.5024C82.9216 40.2789 81.8064 39.6873 80.9458 38.9725C79.4287 37.713 78.9001 37.3353 76.8808 36.8481C76.5609 36.7707 75.9848 36.5449 75.698 36.557C75.2179 36.5777 73.0731 38.248 72.5583 38.6187C72.2005 38.8765 71.9232 39.1186 71.5454 39.3542C71.1753 39.5852 70.7865 39.8095 70.4445 40.0353C69.8289 40.4415 70.5061 40.3834 69.2789 40.6764C69.3651 40.5439 69.3723 40.5266 69.4144 40.3629C69.2717 40.4343 69.2743 40.4509 69.0993 40.5085C69.2794 40.0788 71.2065 38.5724 71.564 38.2313C71.9739 37.8401 72.3856 37.5157 72.852 37.1553C73.1018 36.9623 74.0812 36.3421 74.2001 36.0597L66.2704 36.8288C66.0292 36.8789 65.78 36.9542 65.5388 37.0089C65.1959 37.0862 65.1609 37.0419 64.863 37.0969C64.3453 37.1927 63.9342 37.249 63.4567 37.3629C64.6473 38.7249 64.4175 38.3035 65.3798 39.295C65.9576 39.8901 66.0418 40.1625 66.7731 40.616L67.4249 41.1197C67.0553 41.1093 66.8496 40.8582 66.4537 40.86L66.4821 41.2744C66.399 41.107 66.2959 40.9767 66.1664 40.8683C65.9931 40.7236 65.9418 40.7253 65.7138 40.6845C65.3603 40.6212 64.9965 40.5672 64.6335 40.5113C63.9434 40.4058 63.2095 40.3238 62.4724 40.2579C61.7634 40.195 61.0828 40.0411 60.3388 39.9597C59.5717 39.876 58.8856 39.8078 58.1012 39.7388C57.3415 39.672 56.5933 39.6669 55.7668 39.7678C53.3662 40.0615 52.8254 40.2545 50.4938 40.8116C50.0498 40.9175 49.5327 41.0159 49.103 41.1436C48.8154 41.229 48.8406 41.2695 48.5261 41.3541C46.4546 41.9124 45.2208 42.481 43.3665 43.4415C42.6996 43.7869 42.0966 44.1979 41.4074 44.5569C38.0182 46.3218 37.7924 46.7857 34.8831 48.6942C33.1015 49.8628 33.4863 49.4823 31.7677 50.3426L31.6732 49.9436L35.8674 47.0898C37.2003 46.226 37.3186 45.9418 39.0348 44.9627L41.4148 43.654C42.8294 42.853 43.3636 42.5196 44.9799 41.7726C46.7637 40.948 48.5607 40.4314 50.8344 39.8878C50.1887 39.6646 44.9106 40.9908 44.5708 41.1229L41.6262 42.083C40.5921 42.4166 39.7175 42.7716 38.8208 43.186C36.0943 44.4456 32.9729 46.0856 30.6116 47.9271C30.4489 48.0539 30.2598 48.2279 30.1171 48.2251C30.0343 48.2239 29.9223 48.1718 29.8421 48.1439C29.6006 48.0605 29.7201 48.1572 29.5336 47.9978C31.3189 46.4248 33.2233 45.0605 35.4586 44.0012C37.3243 43.117 38.7487 42.28 40.7459 41.5391C41.3693 41.3075 42.1198 41.0213 42.7377 40.841C43.1419 40.723 43.3307 40.6258 43.7126 40.5358C44.1678 40.4285 44.3038 40.3215 44.755 40.2157C48.4736 39.343 49.5126 38.9564 53.3782 38.6883C54.0554 38.6415 54.7135 38.5928 55.3454 38.613C56.0793 38.6366 58.5753 38.8684 59.1001 38.7554C58.8689 38.6337 58.3249 38.5497 58.0631 38.5114C53.4203 37.8355 52.4249 37.8467 47.5317 38.1792C46.2292 38.2678 45.6262 38.2954 44.3445 38.4933L39.4832 39.511C36.6265 40.1935 34.4585 40.8585 31.9153 42.039C28.8713 43.4524 26.0865 44.7148 23.0832 46.2249C22.5372 46.4995 21.355 47.0636 20.658 47.1493L20.1037 47.3101L20.0607 46.9615C20.055 46.721 20.448 46.6557 20.9367 46.4305L23.993 44.9156C25.3964 44.2497 26.7188 43.5838 28.1282 42.9326C30.2274 41.9627 34.6548 39.8714 36.9276 39.3502C37.3971 39.2429 37.5968 39.1158 38.1015 38.9978C39.1119 38.7617 41.2804 38.183 42.0376 38.1085L44.6215 37.5804C46.6887 37.1909 49.6837 37.094 51.7457 37.0189C53.1992 36.966 53.767 37.0138 55.1036 37.0713C55.4531 37.0865 55.8762 37.1806 56.1968 37.1314C55.9266 36.9899 55.5878 36.9899 55.2577 36.9119C50.8817 35.8811 45.5247 36.347 41.1604 37.1432C40.7585 37.2168 40.3088 37.3831 39.9097 37.4323C38.5135 37.6043 35.0326 38.468 33.6481 38.7985C32.7813 39.0056 32.1218 39.236 31.2126 39.4494C30.7419 39.5599 30.544 39.6841 30.0392 39.8023C28.1772 40.2372 24.299 41.2474 22.726 41.2235C22.3178 41.2175 22.0814 41.1715 21.7073 41.1338C21.0101 41.0636 20.3469 40.9316 19.7619 40.713C19.8143 40.5093 19.8585 40.3307 19.8186 40.0675L21.3962 40.1668C21.9583 40.1898 22.5392 40.1823 23.0781 40.1886C24.5849 40.2062 29.5302 39.167 30.713 38.6875L34.5685 37.6664C35.7731 37.3785 37.3602 36.9016 38.5378 36.7215C38.8601 36.6723 39.0698 36.6628 39.4829 36.5625L41.4194 36.1687C42.3143 35.9487 45.2025 35.5908 46.0662 35.5011L49.5989 35.2681C49.5387 35.2442 49.5588 35.2448 49.4542 35.2278C49.3113 35.2051 49.4018 35.2181 49.2382 35.2112C49.0755 35.2045 48.9348 35.1994 48.7971 35.1939C48.4945 35.1818 48.2651 35.172 47.9723 35.1568C44.9845 34.9989 41.7546 35.5776 38.8833 35.8819C38.2574 35.9481 37.5816 36.1091 37.0044 36.1819L34.1219 36.6444C33.3015 36.7739 32.0112 36.8904 31.2756 37.0477C30.0292 37.3143 28.726 37.4495 27.5103 37.5672C26.0562 37.7081 23.7558 37.9198 22.3401 37.522C21.9978 37.4256 21.1799 37.1199 20.9602 36.916L21.2126 36.4471C24.1265 37.029 27.123 36.6565 30.075 36.3329C30.5901 36.2766 31.0106 36.1511 31.526 36.0864L35.6078 35.5106C36.8288 35.351 38.549 35.0052 39.8581 34.8447L42.6105 34.4101C42.2224 34.5027 41.7356 34.4495 41.3346 34.4642C40.8364 34.4823 40.4775 34.5151 39.9971 34.526C39.1554 34.545 38.2662 34.5548 37.3561 34.5942C36.5016 34.631 35.5199 34.7418 34.6459 34.7751C31.4552 34.8968 26.6251 35.1907 23.7997 33.4825C23.5805 33.3502 23.0245 32.9878 22.9211 32.7956L23.3052 32.1255C23.6461 32.221 23.8043 32.3139 24.1062 32.4289C27.9122 33.8794 30.075 33.9223 34.2451 33.7701L38.4115 33.5176L36.6749 33.4008C35.0644 33.1805 35.002 33.3168 33.3264 32.7798C33.0583 32.6938 32.8219 32.6049 32.5773 32.5279C31.6993 32.2506 29.702 31.346 29.0168 30.7785C28.6052 30.4373 28.2004 30.102 27.7839 29.7485C27.5716 29.5687 26.7168 28.7999 26.6156 28.6123L26.8334 28.3497C27.3736 28.4898 29.3036 29.3889 29.7937 29.6955C30.0131 29.8327 30.2303 29.9869 30.454 30.0928C31.8892 30.7733 32.4633 31.203 34.1904 31.7397C34.7567 31.9158 35.2053 32.1085 35.8301 32.1988C36.5423 32.3018 38.8249 32.632 39.4299 32.5017L36.7451 31.6279C36.1375 31.3874 34.3116 30.421 33.755 29.8701C32.4298 28.5597 31.489 26.7421 31.0645 24.9511C31.1931 24.8464 31.2974 24.7727 31.4967 24.7074L34.9785 28.9808C35.4408 29.4562 36.4148 29.8745 36.9425 30.2009C37.9769 30.8406 40.7995 31.7236 42.0193 31.8729C43.009 31.9946 44.7874 32.055 45.9143 32.1548L48.4931 32.372V32.3734ZM78.0725 22.004L78.0574 22.0284C78.0585 22.027 78.0806 22.0092 78.0725 22.004ZM82.4042 18.4411L82.389 18.4656C82.3899 18.4641 82.4122 18.446 82.4042 18.4411ZM79.1731 22.8818C78.6323 22.8951 78.2123 22.9451 77.6368 22.9917C76.2125 23.1068 75.7553 23.2241 74.4278 23.4332C73.5719 23.5678 71.167 23.9947 70.2826 24.3384L67.8884 25.0713C66.7362 25.3566 64.5436 26.2241 63.1972 26.5405L61.5603 27.0039C61.2692 27.0729 61.0003 27.123 60.733 27.2328C60.3084 27.4069 60.3543 27.3128 59.9718 27.3833C59.2777 27.5113 59.0142 27.5593 58.3802 27.5826C57.8265 27.6033 57.43 27.5662 56.9324 27.5481C56.4732 27.5314 55.9645 27.4632 55.5138 27.4655C55.7476 26.8356 55.8164 27.0036 56.495 26.8785C58.0322 26.5955 59.1574 26.6737 60.7599 26.2814C61.0484 26.2109 61.1933 26.1833 61.4618 26.1577C61.8307 26.1223 69.0437 23.8402 69.2009 23.7836L72.1521 22.9978C73.1599 22.757 75.5731 22.2899 76.5405 22.1987C76.9585 22.1593 77.5749 22.1231 77.9399 22.0359C77.9241 22.0299 77.8955 22.0072 77.8921 22.0218L75.7874 21.7684C74.4212 21.6091 72.1106 22.0247 70.674 22.3678C69.6991 22.6008 68.9345 22.7133 67.9439 22.95C64.8277 23.695 61.332 25.0457 58.4329 24.0864C58.2571 24.0283 58.0817 23.9515 57.8975 23.9467C57.9053 23.6553 58.1794 23.3165 58.4209 23.275L61.3893 23.4117C64.2433 23.286 69.2565 21.5884 70.8524 21.4316C71.5202 21.366 72.882 20.9487 74.2685 20.8365C74.6269 20.8072 75.0775 20.8167 75.3964 20.7479C75.3809 20.7419 75.3522 20.7191 75.3488 20.7338L74.9879 20.6772C72.0702 20.4304 70.6977 20.7749 67.7978 20.8854C66.5712 20.932 65.3268 20.9334 64.1073 20.8224C63.3582 20.7542 61.3495 20.2592 60.9149 19.8554C61.1177 19.7455 61.1621 19.6201 61.2334 19.4283C61.4875 19.4838 61.8001 19.4809 62.0837 19.5157C66.7084 20.0864 67.6251 19.8959 72.2358 19.6374C72.9242 19.5985 74.3276 19.5571 75.0159 19.6181C75.3173 19.6451 75.6694 19.7116 75.92 19.7104C75.6018 19.4386 71.6199 18.2843 70.8713 18.0847L68.5335 17.567C67.3011 17.2762 66.0214 16.9794 64.9034 16.392C64.6776 16.2735 64.4396 16.1242 64.3107 15.8843C64.3846 15.7083 64.5937 15.4932 64.7458 15.3591C66.5316 16.0264 68.4513 16.3552 70.3084 16.7915L73.9918 17.7873C76.7233 18.5938 76.8846 18.6401 78.9878 20.1712L79.1173 20.2923C79.0697 19.9233 79.1391 20.2451 79.0256 20.1229C78.5515 19.3322 77.6159 17.9999 76.9132 17.4459C76.6628 17.2486 76.4692 17.1554 76.2409 16.9762C75.9873 16.7774 75.8006 16.6845 75.5694 16.5048C75.3279 16.3172 75.1755 16.1838 74.9349 15.9732C72.846 14.1476 73.7838 14.9622 72.0364 12.8677C71.0796 11.7212 70.7066 10.9946 70.3262 9.39107C70.5058 9.29385 70.8258 8.96365 70.9599 8.81839C71.1687 9.23891 71.2787 9.31628 71.519 9.65684C72.6282 11.2279 72.8514 11.4471 74.0176 12.8616C74.2325 13.1225 74.4232 13.4294 74.6344 13.6983C75.5536 14.8679 77.5881 16.0558 78.363 16.7401C78.9271 17.2374 79.8375 18.5142 80.1643 19.239L80.9822 21.591C81.1836 21.3534 81.0544 21.3864 80.9507 21.1003C80.871 20.8817 80.8467 20.699 80.7593 20.4801C80.5373 19.923 80.0784 17.7445 79.618 16.6285C79.2949 15.8447 78.8898 15.3439 78.4343 14.7804C77.968 14.2034 77.6068 13.5925 77.1705 12.9718C76.6015 12.1621 74.3499 9.28579 74.117 8.55262C73.9506 8.02913 73.909 7.6509 73.9371 7.25483C74.0122 6.20152 73.9354 5.9789 74.9257 5.48331C75.2528 6.86365 74.8383 7.16049 76.0982 8.91561C76.7287 9.79375 77.4079 10.6466 78.0425 11.5497C78.5716 12.3028 80.5247 15.0053 80.798 15.6252C80.9389 15.9453 81.0401 16.2088 81.122 16.5712C81.2243 17.0216 81.3314 17.1629 81.4239 17.5532C81.627 17.3136 81.851 16.1973 81.9224 15.8191C82.0814 14.9763 81.959 14.5828 81.5629 13.7334C81.2795 13.1265 80.9593 12.4808 80.6464 11.9107C79.6427 10.0822 79.7043 10.4708 78.7684 8.24658C78.2433 6.99941 77.5993 5.33834 77.9009 3.97525C77.9565 3.72473 78.0124 3.28753 78.1754 3.12387C78.2447 3.05426 78.9062 2.58686 78.9858 2.54717C79.1267 3.20699 78.8721 3.25215 79.225 4.7369C79.5888 6.2671 80.0701 7.55972 80.7158 8.94035C81.3136 10.2192 83.2799 13.4288 83.2768 14.6708C83.2736 15.8507 82.4366 17.8408 82.4386 18.2935C82.8119 17.8888 83.7005 15.8493 83.7812 15.4929C83.8695 15.1034 83.9119 14.7689 84.0053 14.3832C84.3035 13.1539 84.3797 13.7268 84.451 12.2196C84.5272 10.6115 84.7421 8.75483 84.1035 7.10123C83.9706 6.75723 83.8343 6.18398 83.6945 5.83278C83.2745 4.77343 82.4965 3.1906 82.3913 2.0418C82.3386 1.46653 82.3403 1.30172 82.4446 0.826841C82.544 0.373246 82.5552 0.485423 83.3046 0.110352C83.3888 0.666918 83.237 0.88408 83.6099 1.82406C83.8408 2.40738 83.9783 2.92828 84.2104 3.51706C84.4229 4.05694 84.6733 4.53096 84.869 5.02338C85.957 7.76221 85.9077 9.69251 85.6608 12.5133C85.633 12.8294 85.5691 12.975 85.4809 13.2528C85.3244 13.7441 85.2033 14.0846 85.0079 14.5492C84.732 15.2041 84.6544 16.5473 83.8208 17.8431C83.2287 18.7638 82.9519 19.0256 82.4357 20.2204C81.5359 22.3028 81.8023 21.4169 82.0942 22.1743C82.6895 23.7183 81.906 23.426 80.8498 24.4023C80.1434 25.0549 78.469 25.8073 77.5305 26.2086C76.6926 26.567 71.9811 27.8478 70.7871 28.1682C70.2629 28.3089 69.7355 28.5462 69.1654 28.6978L67.5667 29.2414C65.9753 29.8428 61.4002 31.4478 60.1626 32.3245L58.9489 33.106C59.0918 32.7214 60.3027 31.629 60.7436 31.3218C62.3942 30.1727 65.6018 29.0139 67.6165 28.3077C68.1087 28.1351 68.6979 27.9094 69.1594 27.786C70.1913 27.5113 71.2271 27.0758 72.2899 26.8273C72.554 26.7654 72.8259 26.7059 73.0883 26.64C73.4547 26.5474 73.4937 26.4721 73.8603 26.3794C74.1459 26.3075 74.4416 26.25 74.7275 26.1778L77.0914 25.4829C78.1158 25.0969 80.0537 24.3119 80.9398 23.6631L81.0561 23.5647C81.0641 23.5578 81.0813 23.5428 81.0922 23.5305C79.9288 23.5359 78.5252 24.0534 77.3082 24.1727C76.7087 24.2317 75.953 24.5127 75.3359 24.6255C71.6084 25.3054 70.0967 26.0636 66.6517 27.6542C65.566 28.1556 64.5845 28.6086 63.4991 29.1096C60.8774 30.3206 57.5887 31.3273 54.7676 30.7106C54.3663 30.6229 53.5043 30.5374 53.2536 30.3237C54.0294 30.0683 53.5112 29.8077 54.7447 29.827C55.2864 29.835 55.835 29.8537 56.3609 29.8632C60.2385 29.9354 63.0826 28.4495 66.4351 26.8399C68.1382 26.0216 71.2667 24.6839 73.0791 24.2515C73.7191 24.0991 74.3591 23.9458 74.999 23.7928C76.2033 23.5051 78.4997 23.0573 79.667 22.998C81.3632 22.9129 79.8615 22.8652 79.1731 22.8824V22.8818ZM46.3234 66.5975L46.063 69.1594C45.9347 69.4925 45.7178 69.6133 45.6923 69.838C45.9722 69.6979 46.4942 69.4356 46.613 69.1589C47.0573 68.1222 47.5309 67.3252 48.7315 66.7243C48.5564 66.5748 48.4373 66.6467 48.1554 66.6504L46.9181 66.6409C46.6649 66.6168 46.5681 66.5601 46.3234 66.5975ZM85.3794 50.1717C85.3053 50.3481 85.1792 50.4378 85.0486 50.5911C84.9251 50.7358 84.836 50.8488 84.7074 51.0044C83.5257 52.4342 80.3219 55.2179 78.9193 56.2203C78.3046 56.6601 77.6403 57.0645 76.9464 57.4971L72.7082 59.9265C71.067 60.7836 67.3575 62.4375 65.6181 63.0901C61.4517 64.652 54.0002 66.59 49.1952 66.6133C48.9377 67.308 48.2685 67.2809 47.9334 68.6696C47.6546 69.8242 47.243 69.8406 46.208 70.4966L43.5762 71.7634C43.1786 71.9613 42.6119 72.1502 42.2063 72.3349C41.7079 72.5621 41.4864 72.938 41.0014 73.0655C41.5913 72.2388 42.1198 71.8724 43.017 71.3613C43.331 71.1824 43.504 71.0086 43.8326 70.8441C43.5945 70.7618 42.8956 70.8953 42.6523 70.9255C42.208 70.981 41.746 71.1392 41.4168 71.2802C40.6674 71.6006 40.1443 71.9707 39.4728 72.3478C38.5378 72.8728 36.3993 74.6221 36.0143 74.749C36.1074 74.4979 37.2688 73.2125 37.5269 72.9608C37.7343 72.7586 37.8827 72.5981 38.0941 72.4036C38.8329 71.7234 39.9882 71.0351 40.9834 70.5585C43.7194 69.2498 44.6086 70.4788 45.0982 68.7898C45.2374 68.3086 45.4013 67.7498 45.6362 67.3071C45.7482 67.0954 45.9003 66.8164 45.9768 66.6099C45.0913 66.1177 40.678 65.9207 39.384 65.7519C38.9352 65.6673 38.553 65.5965 38.1138 65.5198C34.2752 64.847 30.8946 63.6153 27.2184 62.3719C26.9628 62.2853 26.2177 62.0443 26.0421 61.8942C26.3083 61.893 26.6265 61.9994 26.8987 62.0641C28.7596 62.5059 32.9483 63.2687 34.755 63.5334C40.5906 64.3882 42.0493 64.4115 47.9056 64.4777C53.396 64.5398 55.5677 63.7951 60.8292 62.5695C63.9007 61.8542 69.6358 59.2157 72.3352 57.8803C73.5383 57.2849 74.6716 56.726 75.8808 56.1571C78.7578 54.804 81.4543 53.172 84.0119 51.311C84.2422 51.1434 84.4905 50.9348 84.6765 50.7574C84.8867 50.5569 85.0832 50.3196 85.38 50.1709L85.3794 50.1717ZM70.8544 42.8993C70.0661 42.903 69.1276 42.7589 68.0958 42.7908C66.1077 42.8527 63.9555 43.1829 61.984 43.5438C61.4148 43.648 60.9049 43.7317 60.3778 43.8597L58.7085 44.1864C58.2671 44.292 57.8259 44.3996 57.3842 44.5025L52.21 46.0701C49.5184 47.0932 46.2888 47.9184 43.722 49.1072C42.5942 49.6296 40.4677 50.6521 39.4562 51.2365C38.7959 51.618 38.0775 51.9211 37.4169 52.3022C34.4325 54.0234 32.2708 55.182 29.2205 56.7671C28.4963 57.1436 24.8034 58.5105 23.8355 58.7719C23.6029 58.8349 23.3359 58.8723 23.109 58.9471C21.2427 59.5597 20.7359 59.4404 19.183 59.8111C19.2546 59.7108 19.2311 59.7107 19.3686 59.6423L21.5601 58.8407C23.3012 58.054 24.3769 57.4597 26.0212 56.6621C26.8153 56.2767 27.5017 55.9134 28.172 55.4949C28.8406 55.0776 29.4542 54.6887 30.1366 54.2696L34.2634 51.8276C35.9931 50.7643 38.8171 49.218 40.6502 48.343C41.3561 48.0065 42.1121 47.6078 42.8534 47.2652C49.1964 44.3337 59.0732 41.8267 65.7356 42.125C66.4649 42.1578 67.6583 42.2159 68.3521 42.3726C68.6208 42.433 68.9277 42.4842 69.2173 42.5279L70.4282 42.7647C70.6525 42.8081 70.7003 42.7661 70.855 42.8984L70.8544 42.8993ZM43.8065 51.259C43.5315 51.9145 42.184 52.9365 41.6053 53.359L40.0865 54.576C39.36 55.1049 38.6561 55.5556 37.9233 56.0757C37.5171 56.3642 37.2046 56.5416 36.7852 56.7904C33.5109 58.7319 31.0407 59.8796 27.2421 60.7641C24.2689 61.5277 5.21742 65.6587 2.25421 67.4472L0 68.8905C0.308811 68.4579 2.34273 66.7744 2.82514 66.4387C7.58049 63.1278 16.2954 61.696 22.0101 60.311C22.3951 60.1609 23.064 59.9978 23.4694 59.8511C23.7034 59.7665 24.0076 59.7151 24.2546 59.6555L26.6079 58.954C27.0413 58.8116 28.3545 58.5243 28.9589 58.3077C30.1887 57.8673 31.2438 57.6513 32.6905 57.0965C33.2058 56.8989 33.606 56.7657 34.1222 56.5629C35.3724 56.0728 36.8537 55.4035 38.0394 54.7859C38.4837 54.5547 38.8581 54.3781 39.3021 54.1477C40.1332 53.7165 40.8602 53.2094 41.6612 52.7691C42.1384 52.5067 42.4194 52.3833 42.8317 52.0744C43.001 51.947 43.1468 51.8256 43.3003 51.6832C43.4883 51.5087 43.5624 51.3812 43.8068 51.259H43.8065ZM88.0459 3.30018C88.139 3.65771 88.412 4.1231 88.5673 4.77803C88.9159 6.24956 88.9116 6.17736 88.9646 7.7973C88.9995 8.86758 89.0886 10.8816 89.0654 11.928C89.0288 13.5856 88.6449 16.7602 88.1536 18.4379C88.0247 18.8789 87.8067 19.2957 87.7729 19.7283C87.7262 20.3231 87.7325 19.8735 87.4134 20.5236C87.3183 20.7177 87.3523 20.7367 87.2008 20.9006C86.0615 20.9061 86.9513 18.9692 87.0782 18.5596C87.2627 17.9645 87.3896 17.208 87.4815 16.5902C87.5832 15.9085 87.7193 15.3183 87.7651 14.5926L87.9141 12.4656C87.9536 11.5935 87.8605 8.80516 87.8095 8.009C87.7631 7.28791 87.7239 6.47218 87.646 5.68896C87.6064 5.29376 87.6016 4.95148 87.5729 4.53441C87.5466 4.15416 87.5449 3.71466 87.4936 3.37583C87.7809 3.30737 87.8061 3.35225 88.0459 3.30105V3.30018ZM89.8684 23.9602L88.3083 24.8113C87.5984 25.1708 86.2583 25.5994 85.4064 25.7976C84.9641 25.9008 84.8249 25.9946 84.4292 26.1016C83.0496 26.4746 85.0397 27.0977 80.816 30.3352C80.2442 30.7733 79.2216 31.5597 78.5567 31.7187C78.5678 31.7064 78.5836 31.6733 78.593 31.6845L81.9659 28.2666C82.3701 27.7618 82.4343 27.4258 82.5838 26.7764C82.7394 26.1013 82.909 25.9342 83.5612 25.5652C84.2161 25.1947 86.5849 24.5412 87.4864 24.2467C88.135 24.035 88.6326 23.6961 89.1812 23.4217C89.4553 23.7355 89.6077 23.7174 89.8684 23.9596V23.9602ZM20.658 47.1507C20.572 47.2638 20.8067 47.185 20.4202 47.3052C20.3403 47.3299 20.1753 47.3567 20.0828 47.3791C20.0031 47.0435 19.9937 47.1346 20.0607 46.9632L20.1037 47.3118L20.658 47.151V47.1507ZM108.321 40.7187L108.348 40.8361L108.151 40.7975L108.111 40.7184H108.321V40.7187ZM98.5575 38.6662C98.5535 38.6714 98.5188 38.8963 98.3716 38.6406L98.5575 38.6662ZM38.7742 33.572L38.6355 33.5357L38.604 33.4434L38.7673 33.5041L38.7742 33.572ZM93.0172 36.064L92.9155 35.9397C93.2057 35.8586 92.9783 35.9049 93.0886 35.9705C92.9771 35.9976 92.9926 35.961 93.0172 36.064ZM50.0059 35.2143L50.03 35.3156L49.8802 35.2721L49.869 35.2273L50.0059 35.2143ZM78.9875 20.1703L79.0256 20.122C79.1391 20.2443 79.0697 19.9224 79.1173 20.2914L78.9878 20.1703H78.9875ZM78.7234 33.5754L78.6039 33.6896L78.5979 33.605L78.6412 33.5512L78.7231 33.5754H78.7234ZM78.3559 33.8219L78.373 33.729L78.4533 33.6427L78.4604 33.708L78.3559 33.8219ZM43.8065 51.259L43.7908 51.1925L43.8813 51.2294L43.8065 51.259ZM26.0418 61.8942L25.9757 61.91L26.0126 61.8194L26.0418 61.8942ZM41.0014 73.0652L41.0172 73.1316L40.9267 73.0948L41.0014 73.0652ZM85.3794 50.1712L85.3634 50.105L85.4539 50.1418L85.3794 50.1712ZM36.0143 74.7487L36.0301 74.8148L35.9398 74.778L36.0143 74.7487ZM69.0993 40.5093L68.9881 40.6166L69.0993 40.5093Z" fill="#555B6E"/>
<path fill-rule="evenodd" clip-rule="evenodd" d="M38.569 56.9217C37.3492 57.3908 37.9087 57.0126 38.6025 56.4992C43.2943 53.058 44.8973 52.1508 50.4347 50.2469C54.5624 48.8281 58.0545 47.4937 62.4028 46.7548C64.928 46.3254 67.7668 45.9483 70.3135 45.6609C73.7448 45.2735 75.5115 45.5865 78.8219 46.4793C79.5263 46.6708 77.9112 46.5394 77.8522 46.5382C74.369 46.4672 72.0541 46.6369 68.605 47.1106C64.469 47.6787 61.639 48.1737 57.6259 49.456C53.5045 50.7733 49.8584 52.0193 45.8836 53.7681C43.447 54.8398 41.0489 55.9449 38.5693 56.9217H38.569Z" fill="#BDE6E4"/>
</g>
<defs>
<clipPath id="clip0">
<rect width="1440" height="5327" fill="white" transform="translate(-269 -3867)"/>
</clipPath>
</defs>
</svg>
