<svg width="26" height="19" viewBox="0 0 26 19" fill="none" xmlns="http://www.w3.org/2000/svg">
<path fill-rule="evenodd" clip-rule="evenodd" d="M24.6879 6.19656C24.8846 6.03919 25.16 6.17689 25.16 6.43262V16.4848C25.16 17.7831 24.0977 18.8454 22.7994 18.8454H2.36059C1.06227 18.8454 0 17.7831 0 16.4848V6.45229C0 6.21623 0.275403 6.07853 0.472119 6.21623C1.57373 7.06211 3.02943 8.16372 8.04569 11.803C9.08829 12.5505 10.8391 14.1439 12.5702 14.1439C14.3209 14.1636 16.1111 12.5308 17.0946 11.803C22.1109 8.16372 23.5666 7.08178 24.6485 6.21623L24.6879 6.19656ZM12.5898 12.5505C13.7308 12.5702 15.3635 11.1145 16.1897 10.5243C22.701 5.80313 23.2125 5.39002 24.7076 4.20973C24.983 3.99334 25.16 3.63925 25.16 3.28516V2.36059C25.16 1.06227 24.0977 0 22.7994 0H2.36059C1.06227 0 0 1.06227 0 2.36059V3.28516C0 3.63925 0.157373 3.99334 0.452447 4.20973C1.94749 5.39002 2.45895 5.80313 8.97026 10.5243C9.79647 11.1145 11.4292 12.5702 12.5702 12.5505H12.5898Z" fill="#4470AD"/>
</svg>
