<svg width="23" height="31" viewBox="0 0 23 31" fill="none" xmlns="http://www.w3.org/2000/svg">
<path fill-rule="evenodd" clip-rule="evenodd" d="M11.0899 6.22021C8.49435 6.22021 6.44946 8.33455 6.44946 10.8404C6.44946 13.4245 8.57299 15.4606 11.0899 15.4606C13.6853 15.4606 15.7302 13.3462 15.7302 10.8404C15.7302 8.25626 13.6067 6.22021 11.0899 6.22021Z" fill="#4470AD"/>
<path fill-rule="evenodd" clip-rule="evenodd" d="M11.0897 0.034668C4.95498 0.034668 0 4.96807 0 11.0761C0 13.5819 1.73031 17.5757 5.26957 22.9006C7.78639 26.8161 10.3818 30.0266 10.4605 30.1049L11.1684 30.9664L11.8762 30.1049C11.8762 30.1049 14.4717 26.8161 17.0671 22.9006C20.5277 17.5757 22.3367 13.5819 22.3367 11.0761C22.3367 4.96807 17.3818 0.034668 11.247 0.034668H11.0897ZM11.0897 17.3407C7.47181 17.3407 4.56172 14.4434 4.56172 10.8412C4.56172 7.23905 7.47181 4.34161 11.0897 4.34161C14.7076 4.34161 17.6177 7.23905 17.6177 10.8412C17.6177 14.4434 14.7076 17.3407 11.0897 17.3407Z" fill="#4470AD"/>
</svg>
