<svg width="443" height="63" viewBox="0 0 443 63" fill="none" xmlns="http://www.w3.org/2000/svg">
<path d="M94.0137 22.346H97.6058C97.5759 22.3761 97.5759 22.4363 97.5759 22.4963C97.5759 22.5564 97.5759 22.6465 97.5759 22.7367C97.5759 22.9471 97.6058 23.1874 97.6956 23.4279C97.7855 23.6985 97.9052 23.9989 98.1147 24.3896L104.071 35.0292C104.341 35.5102 104.61 36.1112 104.91 36.8026C105.239 37.4938 105.538 38.2752 105.838 39.1168H106.047C105.897 38.4256 105.808 37.7644 105.718 37.1933C105.658 36.6223 105.628 36.0511 105.628 35.5402V27.4553C105.628 26.4936 105.478 25.8323 105.179 25.5017C104.909 25.171 104.371 24.9907 103.562 24.9907H103.443C103.742 23.9088 104.071 23.1874 104.46 22.8568C104.85 22.5261 105.508 22.3458 106.496 22.3458H109.19C108.861 22.7365 108.651 23.2175 108.502 23.8185C108.352 24.4196 108.292 25.2913 108.292 26.4032V38.5154C108.292 39.7477 108.412 40.5892 108.681 40.98C108.951 41.3707 109.4 41.5512 110.088 41.5811C109.849 42.5428 109.519 43.2041 109.13 43.5348C108.741 43.8654 108.082 44.0457 107.155 44.0457H103.712C103.742 43.9857 103.742 43.9255 103.742 43.8353C103.772 43.7753 103.772 43.6851 103.772 43.5348C103.772 43.3244 103.742 43.114 103.682 42.9337C103.652 42.7233 103.562 42.543 103.443 42.3627L97.067 31.0318C96.7676 30.4608 96.4983 29.8597 96.2288 29.2285C95.9593 28.5972 95.7497 27.9362 95.5403 27.2148H95.3308C95.4207 27.9962 95.5104 28.7475 95.5702 29.4389C95.6002 30.1302 95.63 30.7612 95.63 31.3322V38.9662C95.63 39.928 95.7797 40.5892 96.109 40.9499C96.4383 41.3406 96.977 41.5209 97.7553 41.5209C97.4559 42.5729 97.1268 43.2341 96.7375 43.5646C96.3784 43.8952 95.7198 44.0456 94.762 44.0456H92.3373C92.5469 43.6248 92.7264 43.0839 92.8164 42.4226C92.9063 41.7613 92.9661 40.8899 92.9661 39.7777V27.395C92.9661 26.4632 92.8462 25.8623 92.6068 25.5316C92.3373 25.201 91.8884 25.0207 91.2 24.9906C91.4695 23.9386 91.7986 23.2474 92.1877 22.8868C92.5768 22.526 93.2055 22.3457 94.0136 22.3457L94.0137 22.346Z" fill="#4470AD"/>
<path d="M114.034 26.7942H117.955C117.746 27.3051 117.566 27.8462 117.476 28.4172C117.356 28.9882 117.297 29.6195 117.297 30.2506V39.2971C117.297 40.1688 117.416 40.7398 117.626 41.0103C117.835 41.2809 118.254 41.461 118.853 41.5212C118.554 42.5732 118.225 43.2344 117.895 43.5649C117.536 43.8955 116.997 44.0459 116.309 44.0459H112.448C112.657 43.5048 112.837 42.9338 112.926 42.3628C113.046 41.7918 113.106 41.1907 113.106 40.5895V31.5429C113.106 30.9719 113.076 30.5511 112.986 30.2807C112.926 30.0402 112.807 29.8296 112.657 29.6796C112.567 29.5893 112.418 29.5292 112.208 29.4392C112.028 29.379 111.819 29.3489 111.55 29.3188C111.849 28.267 112.178 27.6058 112.507 27.2752C112.837 26.9445 113.346 26.7942 114.034 26.7942V26.7942ZM116.039 20.5126H118.584L117.806 22.8569C117.626 23.3679 117.327 23.7286 116.937 23.969C116.548 24.2093 115.98 24.3296 115.291 24.3296H112.777L113.555 21.9854C113.735 21.4743 114.004 21.0836 114.393 20.8433C114.782 20.6329 115.321 20.5126 116.039 20.5126V20.5126Z" fill="#4470AD"/>
<path d="M133.69 28.2069C133.181 29.3489 132.732 30.0702 132.313 30.4009C131.924 30.7315 131.355 30.9118 130.607 30.9118H130.188C130.218 30.8215 130.218 30.7315 130.248 30.6412C130.278 30.551 130.278 30.4609 130.278 30.3707C130.278 29.8898 130.098 29.4991 129.739 29.1986C129.38 28.898 128.901 28.7478 128.332 28.7478C127.284 28.7478 126.446 29.3188 125.818 30.4308C125.189 31.5429 124.86 33.0456 124.86 34.9392C124.86 37.013 125.219 38.6661 125.907 39.8681C126.596 41.0705 127.554 41.6716 128.781 41.6716C129.29 41.6716 129.918 41.5212 130.637 41.2208C131.385 40.9502 131.864 40.8 132.074 40.8C132.343 40.8 132.583 40.8601 132.792 40.9803C133.002 41.1307 133.271 41.371 133.6 41.7017C132.912 42.5733 132.104 43.2646 131.146 43.7153C130.218 44.1661 129.17 44.4066 128.033 44.4066C125.728 44.4066 123.902 43.5952 122.525 42.0024C121.118 40.3794 120.429 38.2153 120.429 35.5403C120.429 32.8054 121.148 30.6113 122.585 28.9281C124.022 27.2752 125.907 26.4336 128.242 26.4336C129.17 26.4336 130.068 26.5839 130.996 26.8843C131.924 27.1849 132.822 27.6356 133.69 28.2068L133.69 28.2069Z" fill="#4470AD"/>
<path d="M141.318 29.0183C140.36 29.0183 139.642 29.5593 139.192 30.6112C138.744 31.6632 138.504 33.2562 138.504 35.4201C138.504 37.5841 138.743 39.177 139.192 40.229C139.641 41.281 140.36 41.8219 141.318 41.8219C142.276 41.8219 142.994 41.281 143.443 40.229C143.922 39.177 144.162 37.554 144.162 35.4201C144.162 33.2862 143.922 31.6933 143.443 30.6112C142.964 29.5593 142.246 29.0183 141.318 29.0183V29.0183ZM141.318 26.4336C143.563 26.4336 145.359 27.2449 146.646 28.838C147.933 30.4309 148.592 32.6249 148.592 35.42C148.592 38.215 147.933 40.4393 146.646 42.0322C145.359 43.6251 143.563 44.4065 141.318 44.4065C139.073 44.4065 137.307 43.6251 136.02 42.0322C134.732 40.4393 134.074 38.2152 134.074 35.42C134.074 32.5948 134.703 30.4008 135.99 28.8077C137.277 27.2148 139.073 26.4334 141.318 26.4334L141.318 26.4336Z" fill="#4470AD"/>
<path d="M152.687 20.3323H156.519C156.309 20.8432 156.13 21.3843 156.04 21.9553C155.92 22.5263 155.86 23.1274 155.86 23.7586V39.2971C155.86 40.1688 155.98 40.7398 156.189 41.0102C156.399 41.2808 156.818 41.461 157.417 41.5212C157.147 42.5431 156.818 43.2042 156.459 43.5349C156.1 43.8655 155.561 44.0458 154.842 44.0458H151.011C151.221 43.5048 151.4 42.9338 151.49 42.3628C151.61 41.7918 151.67 41.1907 151.67 40.5894V25.081C151.67 24.2394 151.55 23.6684 151.34 23.3679C151.131 23.0973 150.712 22.9171 150.113 22.8569C150.383 21.8651 150.682 21.1739 151.041 20.8432C151.37 20.5126 151.939 20.3323 152.687 20.3323V20.3323Z" fill="#4470AD"/>
<path d="M163.423 37.9447C163.423 39.0568 163.663 39.9584 164.172 40.6497C164.651 41.3411 165.279 41.7017 166.087 41.7017C166.896 41.7017 167.554 41.371 168.033 40.6798C168.512 39.9885 168.752 39.0568 168.752 37.8847C168.752 36.7427 168.512 35.841 168.063 35.1797C167.584 34.5487 166.956 34.218 166.147 34.218C165.309 34.218 164.651 34.5487 164.142 35.2097C163.663 35.9011 163.423 36.8027 163.423 37.9447ZM168.841 42.0924C168.332 42.8438 167.704 43.3847 166.956 43.7754C166.207 44.1661 165.399 44.3464 164.471 44.3464C162.885 44.3464 161.627 43.7754 160.64 42.6032C159.652 41.4311 159.173 39.8982 159.173 38.0048C159.173 36.0812 159.682 34.5485 160.729 33.4064C161.777 32.2644 163.154 31.6934 164.89 31.6934C165.668 31.6934 166.387 31.8737 167.075 32.2043C167.734 32.5649 168.273 33.0459 168.662 33.677C168.692 33.4064 168.692 33.1961 168.722 33.0759C168.722 32.9257 168.722 32.8056 168.722 32.7153C168.722 31.3326 168.392 30.3109 167.734 29.6797C167.075 29.0486 166.028 28.718 164.591 28.718C163.902 28.718 163.244 28.778 162.586 28.8983C161.897 28.9883 161.208 29.1689 160.46 29.4092C160.789 28.6278 161.029 28.0868 161.179 27.7863C161.328 27.5157 161.508 27.3053 161.658 27.1552C161.927 26.9147 162.346 26.7344 162.975 26.6443C163.603 26.524 164.471 26.4638 165.519 26.4638C168.063 26.4638 169.889 27.0049 170.997 28.0868C172.104 29.1689 172.643 30.9722 172.643 33.4968V39.4177C172.643 40.3494 172.763 40.9204 172.972 41.191C173.182 41.4313 173.571 41.5517 174.17 41.5517C173.93 42.5434 173.631 43.2348 173.242 43.5653C172.853 43.8959 172.104 44.0764 170.967 44.0764C170.338 44.0764 169.889 44.1063 169.56 44.1364C169.26 44.1664 168.961 44.1965 168.692 44.2866C168.722 43.8959 168.782 43.5052 168.812 43.1446C168.842 42.7539 168.842 42.4233 168.842 42.0926L168.841 42.0924Z" fill="#4470AD"/>
<path d="M198.999 23.7286C198.61 24.6602 198.131 25.3215 197.592 25.7122C197.083 26.1029 196.275 26.3433 195.168 26.4936C195.257 26.2832 195.347 26.1029 195.377 25.9526C195.407 25.8024 195.437 25.6823 195.437 25.592C195.437 25.2013 195.287 24.9007 194.988 24.6903C194.719 24.4799 194.299 24.3597 193.791 24.3597C192.384 24.3597 191.306 25.111 190.498 26.5838C189.72 28.0564 189.331 30.1303 189.331 32.8052C189.331 35.7205 189.75 37.9145 190.618 39.3871C191.486 40.8298 192.773 41.5512 194.509 41.5512C195.138 41.5512 195.796 41.4308 196.455 41.2205C197.143 41.0101 197.832 40.6494 198.58 40.1985C198.58 40.2585 198.58 40.3189 198.61 40.4089C198.61 40.4992 198.61 40.5892 198.61 40.6193C198.61 41.8815 198.161 42.8133 197.233 43.4445C196.305 44.0758 194.898 44.4062 193.072 44.4062C190.318 44.4062 188.163 43.4445 186.577 41.4908C184.99 39.5373 184.212 36.8323 184.212 33.406C184.212 29.9497 185.05 27.1846 186.726 25.1107C188.433 23.037 190.648 21.9851 193.372 21.9851C194.419 21.9851 195.377 22.1353 196.305 22.4058C197.233 22.6764 198.131 23.1271 198.999 23.7282L198.999 23.7286Z" fill="#4470AD"/>
<path d="M203.908 37.9447C203.908 39.0568 204.147 39.9584 204.656 40.6497C205.135 41.3411 205.764 41.7017 206.572 41.7017C207.38 41.7017 208.039 41.371 208.518 40.6798C208.997 39.9885 209.236 39.0568 209.236 37.8847C209.236 36.7427 208.997 35.841 208.548 35.1797C208.069 34.5487 207.44 34.218 206.632 34.218C205.794 34.218 205.135 34.5487 204.626 35.2097C204.147 35.9011 203.908 36.8027 203.908 37.9447ZM209.326 42.0924C208.817 42.8438 208.188 43.3847 207.44 43.7754C206.692 44.1661 205.883 44.3464 204.955 44.3464C203.369 44.3464 202.112 43.7754 201.124 42.6032C200.136 41.4311 199.657 39.8982 199.657 38.0048C199.657 36.0812 200.166 34.5485 201.214 33.4064C202.262 32.2644 203.639 31.6934 205.375 31.6934C206.153 31.6934 206.871 31.8737 207.56 32.2043C208.218 32.5649 208.757 33.0459 209.146 33.677C209.176 33.4064 209.176 33.1961 209.206 33.0759C209.206 32.9257 209.206 32.8056 209.206 32.7153C209.206 31.3326 208.877 30.3109 208.218 29.6797C207.56 29.0486 206.512 28.718 205.076 28.718C204.387 28.718 203.728 28.778 203.07 28.8983C202.381 28.9883 201.693 29.1689 200.945 29.4092C201.274 28.6278 201.513 28.0868 201.663 27.7863C201.813 27.5157 201.992 27.3053 202.142 27.1552C202.412 26.9147 202.83 26.7344 203.459 26.6443C204.088 26.524 204.956 26.4638 206.003 26.4638C208.548 26.4638 210.374 27.0049 211.481 28.0868C212.589 29.1689 213.128 30.9722 213.128 33.4968V39.4177C213.128 40.3494 213.247 40.9204 213.457 41.191C213.666 41.4313 214.055 41.5517 214.654 41.5517C214.415 42.5434 214.115 43.2348 213.726 43.5653C213.337 43.8959 212.589 44.0764 211.451 44.0764C210.822 44.0764 210.374 44.1063 210.044 44.1364C209.745 44.1664 209.446 44.1965 209.176 44.2866C209.206 43.8959 209.266 43.5052 209.296 43.1446C209.326 42.7539 209.326 42.4233 209.326 42.0926L209.326 42.0924Z" fill="#4470AD"/>
<path d="M221.314 26.5839C221.254 27.1549 221.194 27.7559 221.164 28.4172C221.134 29.0785 221.134 29.7998 221.134 30.5812C221.613 29.0183 222.122 27.9664 222.661 27.3953C223.199 26.8243 223.918 26.5238 224.816 26.5238C224.936 26.5238 225.145 26.5238 225.415 26.5238C225.714 26.5537 225.953 26.5537 226.103 26.5537C226.372 26.5537 226.552 26.5537 226.702 26.5238C226.851 26.5238 226.971 26.5238 227.091 26.4937C226.851 27.786 226.582 28.6577 226.283 29.1385C226.013 29.6495 225.594 29.9502 225.085 30.1002C224.906 30.1603 224.636 30.2205 224.277 30.2807C223.589 30.3707 223.11 30.521 222.81 30.7013C222.451 30.9117 222.182 31.2723 222.002 31.7232C221.823 32.174 221.733 32.715 221.733 33.4063V39.2972C221.733 40.1387 221.852 40.7099 222.122 41.0103C222.361 41.3108 222.81 41.4911 223.499 41.5212C223.229 42.513 222.9 43.1742 222.541 43.5048C222.152 43.8656 221.613 44.0459 220.895 44.0459H216.794C217.063 43.5349 217.243 42.9639 217.362 42.3929C217.512 41.8218 217.572 41.2208 217.572 40.5895V31.1823C217.572 30.4909 217.482 30.0102 217.272 29.7997C217.063 29.5893 216.644 29.4391 216.045 29.409C216.285 28.4172 216.554 27.7259 216.883 27.3352C217.213 26.9445 217.662 26.7642 218.23 26.7642C218.41 26.7642 218.619 26.7642 218.889 26.7642C219.158 26.7942 219.368 26.7942 219.458 26.7942C219.817 26.7942 220.146 26.7642 220.475 26.7341C220.775 26.7042 221.044 26.6441 221.314 26.5839H221.314Z" fill="#4470AD"/>
<path d="M232.678 26.5839C232.619 27.1549 232.559 27.7559 232.529 28.4172C232.499 29.0785 232.499 29.7998 232.499 30.5812C232.978 29.0183 233.486 27.9664 234.025 27.3953C234.564 26.8243 235.282 26.5238 236.18 26.5238C236.3 26.5238 236.51 26.5238 236.779 26.5238C237.078 26.5537 237.318 26.5537 237.468 26.5537C237.737 26.5537 237.917 26.5537 238.066 26.5238C238.216 26.5238 238.336 26.5238 238.455 26.4937C238.216 27.786 237.946 28.6577 237.647 29.1385C237.378 29.6495 236.959 29.9502 236.45 30.1002C236.27 30.1603 236.001 30.2205 235.642 30.2807C234.953 30.3707 234.474 30.521 234.175 30.7013C233.816 30.9117 233.546 31.2723 233.367 31.7232C233.187 32.174 233.097 32.715 233.097 33.4063V39.2972C233.097 40.1387 233.217 40.7099 233.486 41.0103C233.726 41.3108 234.175 41.4911 234.863 41.5212C234.594 42.513 234.265 43.1742 233.906 43.5048C233.516 43.8656 232.978 44.0459 232.259 44.0459H228.158C228.428 43.5349 228.607 42.9639 228.727 42.3929C228.877 41.8218 228.937 41.2208 228.937 40.5895V31.1823C228.937 30.4909 228.847 30.0102 228.637 29.7997C228.428 29.5893 228.009 29.4391 227.41 29.409C227.649 28.4172 227.919 27.7259 228.248 27.3352C228.577 26.9445 229.026 26.7642 229.595 26.7642C229.775 26.7642 229.984 26.7642 230.253 26.7642C230.523 26.7942 230.733 26.7942 230.822 26.7942C231.181 26.7942 231.511 26.7642 231.84 26.7341C232.139 26.7042 232.409 26.6441 232.678 26.5839H232.678Z" fill="#4470AD"/>
<path d="M245.43 29.0183C244.472 29.0183 243.753 29.5593 243.304 30.6112C242.855 31.6632 242.616 33.2562 242.616 35.4201C242.616 37.5841 242.855 39.177 243.304 40.229C243.753 41.281 244.472 41.8219 245.43 41.8219C246.387 41.8219 247.106 41.281 247.555 40.229C248.034 39.177 248.273 37.554 248.273 35.4201C248.273 33.2862 248.034 31.6933 247.555 30.6112C247.076 29.5593 246.358 29.0183 245.43 29.0183V29.0183ZM245.43 26.4336C247.675 26.4336 249.471 27.2449 250.758 28.838C252.045 30.4309 252.704 32.6249 252.704 35.42C252.704 38.215 252.045 40.4393 250.758 42.0322C249.471 43.6251 247.675 44.4065 245.43 44.4065C243.185 44.4065 241.419 43.6251 240.131 42.0322C238.844 40.4393 238.186 38.2152 238.186 35.42C238.186 32.5948 238.815 30.4008 240.102 28.8077C241.389 27.2148 243.185 26.4334 245.43 26.4334L245.43 26.4336Z" fill="#4470AD"/>
<path d="M256.799 20.3323H260.631C260.421 20.8432 260.242 21.3843 260.152 21.9553C260.032 22.5263 259.972 23.1274 259.972 23.7586V39.2971C259.972 40.1688 260.092 40.7398 260.301 41.0102C260.511 41.2808 260.93 41.461 261.529 41.5212C261.259 42.5431 260.93 43.2042 260.571 43.5349C260.212 43.8655 259.673 44.0458 258.954 44.0458H255.123C255.333 43.5048 255.512 42.9338 255.602 42.3628C255.722 41.7918 255.782 41.1907 255.782 40.5894V25.081C255.782 24.2394 255.662 23.6684 255.452 23.3679C255.243 23.0973 254.824 22.9171 254.225 22.8569C254.495 21.8651 254.794 21.1739 255.153 20.8432C255.482 20.5126 256.051 20.3323 256.799 20.3323V20.3323Z" fill="#4470AD"/>
<path d="M265.649 20.3323H269.481C269.271 20.8432 269.092 21.3843 269.002 21.9553C268.882 22.5263 268.822 23.1274 268.822 23.7586V39.2971C268.822 40.1688 268.942 40.7398 269.151 41.0102C269.361 41.2808 269.78 41.461 270.379 41.5212C270.109 42.5431 269.78 43.2042 269.421 43.5349C269.062 43.8655 268.523 44.0458 267.804 44.0458H263.973C264.183 43.5048 264.362 42.9338 264.452 42.3628C264.572 41.7918 264.632 41.1907 264.632 40.5894V25.081C264.632 24.2394 264.512 23.6684 264.302 23.3679C264.093 23.0973 263.674 22.9171 263.075 22.8569C263.345 21.8651 263.644 21.1739 264.003 20.8432C264.332 20.5126 264.901 20.3323 265.649 20.3323V20.3323Z" fill="#4470AD"/>
<path d="M281.499 16.9317H280.891V47.7303H281.499V16.9317Z" fill="#808080"/>
<path fill-rule="evenodd" clip-rule="evenodd" d="M79.1571 28.8649C78.9573 27.1624 69.6495 30.6277 68.3592 31.0101C67.5541 31.2485 61.9565 35.0126 61.3959 35.4508C56.9546 38.9239 45.4307 45.3007 40.0787 45.8466C34.2377 46.4421 34.0161 46.0764 28.1994 45.7753C23.7834 45.5467 24.6862 47.2805 20.0448 44.6405C18.1358 43.5547 4.09856 48.3967 3.88574 47.2411C5.73643 46.3986 13.4999 42.9255 14.5768 41.7486C16.095 40.0899 21.0996 38.2207 22.9023 37.091C25.2162 35.6408 24.4469 37.2734 25.5532 34.8205C26.2887 33.1897 26.9395 34.2209 28.0696 32.2214C28.7363 31.0414 38.992 28.4921 41.0923 27.7244C43.4417 26.8653 47.0724 27.3507 50.5093 25.647C52.5445 24.638 53.9102 25.9873 56.0561 26.2425C58.4809 26.5307 58.9959 27.2543 62.3066 27.2833C66.1038 27.3166 66.8749 27.3174 70.397 27.0263C71.7285 26.9162 82.0061 26.9644 82.0857 27.477C81.7752 27.623 82.5752 27.774 80.9398 28.0972C80.6832 28.1477 79.1331 28.6635 79.1569 28.8647L79.1571 28.8649Z" fill="#48CAE4"/>
<path fill-rule="evenodd" clip-rule="evenodd" d="M76.4097 25.6886C76.0612 26.0864 76.0819 25.8102 75.2445 25.2931C71.6302 23.0617 73.0713 23.3095 68.5178 21.9851C66.941 21.5263 67.1534 21.1322 65.2787 21.1816C62.8286 21.2462 63.2055 20.9281 60.7995 21.8331C57.4455 23.0948 54.2786 24.7173 51.4464 26.8921C50.4735 27.6392 51.9341 26.6282 52.1121 26.5847C53.9364 26.1387 55.5812 26.2133 57.3114 27.0026C57.6843 27.1726 59.9698 28.114 60.2453 28.1436C62.0649 28.3383 62.6856 28.5556 64.4612 28.3142C66.1626 28.0829 67.9652 28.3838 69.9256 28.2408C70.7598 28.1801 74.5812 27.8864 75.1759 27.0666C75.5301 26.5779 75.8323 26.6488 76.0882 25.9906C76.1149 25.9215 76.3696 25.7344 76.4097 25.6888V25.6886Z" fill="#FEDDD8"/>
<path fill-rule="evenodd" clip-rule="evenodd" d="M64.8633 24.8855C64.6273 24.8508 63.6712 25.213 63.6639 25.5558C63.6604 25.7098 63.6065 25.6955 63.6318 26.0009C63.6568 26.3008 63.8049 27.0483 64.0928 27.1574C64.1925 27.1952 64.5054 27.5413 64.7392 27.6291C65.0334 27.74 65.057 27.9787 65.5079 28.013C66.4328 28.0841 67.2993 28.2669 68.0359 27.521C68.1732 27.3815 68.5352 26.2285 68.2015 26.0265C67.8902 25.8381 67.6644 25.6829 67.3667 25.4794C67.1858 25.3554 66.0912 25.1658 65.7488 25.0573C65.6104 25.0136 64.9199 24.8937 64.8633 24.8855V24.8855Z" fill="white"/>
<path fill-rule="evenodd" clip-rule="evenodd" d="M58.9759 0.167664C58.2371 1.30146 54.3606 2.24283 54.2865 2.77479C53.9699 5.04689 53.6153 2.8988 52.268 4.9807C51.0155 6.91592 49.105 8.35064 47.1656 9.5108C46.9054 9.66667 46.8097 10.1915 45.7369 10.8389C43.9841 11.8969 46.9546 12.6493 44.0364 14.4515C42.1171 15.637 43.4797 14.5502 41.8701 16.0828C41.8607 16.0917 40.2951 17.9234 41.4428 17.9763C42.956 18.0462 39.0863 20.6701 38.6939 21.1344C38.3006 21.5998 38.7901 20.7526 39.4666 21.9734C41.5338 22.1654 39.9686 21.6104 41.1737 22.6608C41.6666 23.0903 41.6852 22.2602 42.2762 23.9773C42.9478 25.9291 44.3432 25.4896 40.6652 25.1485C33.1137 24.4486 38.325 24.1452 34.6222 23.0517C32.6859 22.4801 33.6022 20.8314 30.7713 21.1013C25.2825 21.6247 27.5558 19.1616 24.5161 18.6795C23.0501 18.4472 19.6074 17.6868 20.7246 19.0331C22.0243 20.5992 19.7069 20.622 19.1602 22.4271C18.6959 23.9605 16.7681 26.0884 15.3442 24.6545C14.975 24.2825 12.7072 27.8821 14.6372 28.4941C16.1371 28.9697 13.7914 31.4379 14.0911 32.7035C12.825 33.006 16.3662 32.4979 16.4649 32.5047C16.4608 32.6328 17.0617 33.5227 17.9494 33.2601C21.4422 32.2269 17.7215 33.8158 21.9297 35.2785C24.8302 36.2865 23.2743 35.551 23.8343 36.6853C24.2672 36.5817 24.0727 35.9615 25.1094 35.6017C27.6711 34.7126 26.9348 32.3637 34.4906 30.8573C37.4053 30.2761 39.9612 30.4085 43.3607 29.6822C44.558 29.4265 47.6303 30.2242 47.9658 29.4324C48.4315 28.3333 49.517 28.1495 50.4277 27.2369C50.2454 27.0451 52.8499 25.02 53.8464 24.8398C53.8705 24.8353 54.9472 24.0447 56.2518 23.6739C56.9226 23.4835 58.7354 22.7056 57.2713 22.1471C56.3435 21.793 58.3285 20.4267 58.3698 19.8719C58.5535 17.4027 64.4051 17.7786 63.0498 16.3749C60.8799 14.1275 62.6657 13.8965 62.576 10.8231C62.4378 6.08897 64.4159 8.28895 62.9371 2.05059C62.6195 0.710662 62.1233 3.48388 60.0579 0.688803C59.8164 0.361942 58.7505 0.515363 58.9769 0.168072L58.9759 0.167664Z" fill="#48CAE4"/>
<path fill-rule="evenodd" clip-rule="evenodd" d="M23.4269 41.7835C23.0597 42.6255 21.2584 42.6627 19.9902 43.7406C19.7064 43.982 16.1475 44.8966 18.4173 44.4703C18.7298 44.4116 20.8006 45 22.1777 44.855C22.8452 44.7845 27.818 47.3293 30.2191 46.6768C30.2276 46.6827 32.5609 47.171 32.8093 46.9454C33.1682 46.6202 36.8663 46.6633 38.7506 45.8496C40.7736 44.9759 43.032 45.5832 45.7963 43.9702C47.7129 42.8523 58.3889 40.0456 58.4255 38.3212C60.8496 36.5343 61.9981 34.2401 64.8813 32.5302C66.6272 31.4951 67.166 30.6471 69.399 30.8005C69.7868 30.8269 71.0948 30.4185 72.6983 30.5386C72.9553 30.558 79.7794 29.6197 76.3012 28.7427L76.0569 28.681C74.5067 28.5823 71.7347 27.9558 70.5589 28.3897C69.3498 28.8359 60.0337 28.3094 59.2892 27.9501C57.0094 26.8504 54.706 24.1693 52.0673 27.1344C51.3552 27.9346 50.5672 27.7235 49.5475 29.1061C48.5056 30.5194 48.6793 28.7687 51.4527 30.1198C54.0529 31.3862 53.1125 29.8634 56.4049 30.7635C56.2287 32.4264 57.3551 31.5993 57.55 32.7474C57.5549 32.7766 58.4265 33.5676 57.2257 34.6201C54.6605 36.8681 52.5217 36.0765 51.4877 36.6566C48.2573 38.4679 45.2241 39.6656 41.4874 39.4321C39.5325 39.31 36.0456 41.2417 33.0632 41.4603C30.3666 41.6578 26.3645 42.1271 23.6806 42.125C23.4993 42.1248 23.5396 42.0619 23.4267 41.7839L23.4269 41.7835Z" fill="#FEDDD8"/>
<path fill-rule="evenodd" clip-rule="evenodd" d="M66.2708 24.8357C65.9569 24.4962 64.6252 24.5841 63.7021 23.3998C63.6032 23.2729 63.6954 23.3459 63.5829 23.4838C62.8791 23.2907 62.2002 23.1702 61.7587 22.6129C61.7389 22.5882 61.6575 22.8546 61.4081 22.693C60.5717 22.1512 60.8868 23.6868 59.5959 22.0911C59.45 21.9105 58.5993 22.7673 57.796 22.7412C57.2438 22.7234 54.0054 24.9812 53.8196 25.0255C52.6926 25.2948 51.3115 25.2864 54.0458 25.3979C55.0872 25.4406 56.4786 25.6135 57.6024 26.1479C57.6542 26.8729 61.9343 27.5667 62.8061 27.9197C63.8244 28.3321 62.7424 26.9244 63.3929 26.1561C63.9394 25.5109 63.2331 24.7534 65.6796 24.744C65.8674 24.7434 66.1205 24.6629 66.2771 24.7487L66.2708 24.8353V24.8357Z" fill="#CFE3E2"/>
<path fill-rule="evenodd" clip-rule="evenodd" d="M48.9377 30.5138C48.1131 29.8231 47.425 30.3254 46.4258 29.1417C45.371 27.8923 44.6957 29.0674 42.5578 27.9665C42.1836 27.7738 38.8057 27.5064 38.4826 27.6419C38.9663 27.6864 34.9611 27.753 34.482 27.9217C33.6997 28.1973 30.2007 29.2245 29.7442 29.2903C28.1781 29.516 29.9606 29.4061 28.4799 29.7485C24.9518 30.5644 27.524 30.1454 25.3649 30.9131C23.1292 31.708 23.8696 31.4138 22.2407 32.5536C20.8582 33.5207 21.2006 33.5478 19.6382 34.1297C18.2632 34.6418 22.0098 33.5423 21.2692 34.5168C20.3782 35.6894 20.8037 35.2353 21.6879 35.4418C22.0425 35.5245 21.692 35.6749 21.8755 36.1701C22.0621 36.6737 23.7675 35.3221 23.6914 36.4336C23.6525 37.003 24.0647 36.6583 24.4619 37.1396C24.6873 37.4124 25.9472 36.9499 26.1103 36.8786C28.3083 35.9204 27.5846 35.7333 30.3767 34.8888C32.793 34.1576 34.5353 33.6512 36.8381 32.6267C39.3657 31.5021 43.2927 31.1376 46.0701 31.0776C46.9177 31.0594 48.2476 30.9566 49.0913 30.6864C49.0889 30.6825 48.732 30.3421 48.9373 30.514L48.9377 30.5138Z" fill="#0077B6"/>
<path fill-rule="evenodd" clip-rule="evenodd" d="M42.8821 27.3047C42.523 26.5476 41.4918 26.8524 40.5016 26.549C39.692 26.3012 40.8267 26.8148 40.0184 26.4058C38.1909 25.4814 37.4649 26.8428 35.8089 26.3288C34.8891 26.0432 31.7672 26.7687 30.7751 26.8796C29.2882 27.0459 28.4866 26.9956 26.645 27.8234C24.68 28.7069 19.9892 30.4912 18.2972 31.2961C17.4927 31.6787 14.5548 29.2736 14.1273 29.8387C14.2807 29.7429 15.1851 29.977 15.367 29.8849C14.7322 30.6324 12.2736 30.633 15.1212 31.0614C15.0101 31.5676 13.5232 32.385 14.0746 32.7864C14.0809 32.9265 13.414 33.6597 15.1778 32.9517C15.9745 32.6317 15.9501 32.8679 16.8144 32.3135C17.5479 31.8428 17.7835 31.9233 18.2323 31.6877C18.0836 33.3821 16.1277 33.1492 19.776 32.6107C21.609 32.3404 22.4765 31.661 21.2464 33.0272C21.0222 33.2763 21.5184 33.3719 22.0419 32.8877C23.0409 31.9637 23.3205 32.052 24.7935 31.6714C26.4957 31.2315 26.1305 31.4881 27.4031 30.8105C28.7208 30.1086 31.8986 29.3936 33.3477 29.0534C34.7037 28.7353 33.8427 28.8015 35.3343 28.7223C36.9432 28.6367 37.4102 28.4755 39.0517 28.5102C39.0704 28.5106 43.8381 28.6728 43.6514 28.3578C43.28 27.7302 43.2151 28.4312 43.1132 27.4949C43.113 27.4927 42.7382 27.0013 42.8821 27.3045V27.3047Z" fill="#ADE8F4"/>
<path fill-rule="evenodd" clip-rule="evenodd" d="M66.0275 24.7125C65.4939 24.7221 64.5368 24.3605 64.0881 24.1395C64.0332 24.1123 63.4712 23.9166 63.552 24.0304C63.9284 24.5618 63.2721 24.2014 62.941 24.3464C62.9669 24.4986 63.0578 24.4635 62.6521 24.4678C61.6964 24.4784 60.8096 23.9015 61.4004 24.4674C61.7829 24.8339 61.6275 24.489 61.8981 24.9979C61.9404 25.0776 62.1795 25.2902 62.1689 25.3532C62.0293 25.3926 62.6014 25.9217 62.7251 26.2251C62.868 26.575 63.5225 26.9742 63.7781 26.9909C63.8389 25.8608 63.1384 25.0063 64.9577 25.0143C65.219 25.0153 65.8591 24.9315 66.0898 24.8284L66.0279 24.7123L66.0275 24.7125Z" fill="#BDE6E4"/>
<path fill-rule="evenodd" clip-rule="evenodd" d="M62.7331 2.8641C63.8698 3.11456 63.5892 7.15109 62.9988 8.47182C62.766 8.99193 63.1329 9.86118 62.5502 11.4622C61.3328 14.806 61.3754 12.5917 63.0452 16.2519C63.4307 17.0967 62.4159 17.2327 61.1994 17.7218C60.1367 18.149 58.909 19.3363 58.6402 20.3906C58.4846 21.0019 56.9063 22.1716 56.5029 21.9177C55.4787 21.2736 50.3297 21.4766 49.1937 22.0423C44.7369 24.2617 45.4448 23.1403 49.3345 21.6699C50.2613 21.3195 54.1395 18.5298 54.6436 18.7496C54.9263 18.5526 57.9092 16.4742 57.0532 16.2403C57.3306 16.2319 58.6183 16.0993 57.9702 15.5784C56.7039 14.5608 58.0736 14.037 58.5265 12.9382C59.0773 11.6017 60.474 12.1214 58.1371 11.6193C57.0388 11.3833 57.5072 11.1292 57.849 11.2034C57.5865 10.6665 57.3523 6.94762 56.7861 5.24365C58.1131 6.96764 58.9599 7.28633 59.3971 9.13228C59.9939 9.26711 60.1163 7.61687 60.5381 6.67367C60.6311 6.46611 58.4999 -1.3896 59.5813 0.216314C60.5098 1.59506 63.0846 2.5642 62.9048 3.39382L62.7331 2.8643V2.8641Z" fill="#CAF0F8"/>
<path fill-rule="evenodd" clip-rule="evenodd" d="M56.6878 21.6255C56.6109 21.5472 56.1409 21.6012 57.4504 22.2214C58.132 22.5442 56.0182 23.2381 55.3956 23.8745C54.3364 24.957 51.8485 25.9893 51.0851 27.139C50.8076 27.5568 50.4934 27.6498 50.2303 27.8808C50.363 27.8786 49.4659 29.5605 49.2619 29.2808C48.8037 28.6518 47.6122 28.6497 46.9957 28.8775C46.472 29.0712 47.0059 28.9029 46.2024 28.2279C45.2166 27.3999 45.2207 26.7217 44.3133 26.3303C43.5474 25.9999 43.168 24.9472 42.5788 24.8878C42.5523 24.7756 43.2227 24.1035 43.8632 24.0578C44.884 23.985 45.9652 22.9442 47.1007 22.6931C49.023 22.2684 48.8281 21.5914 51.236 21.4439C52.6053 21.3603 54.3374 19.8367 56.3627 19.697C57.2894 19.6331 56.4021 21.6173 56.6225 21.699L56.6876 21.6253L56.6878 21.6255Z" fill="#0077B6"/>
<path fill-rule="evenodd" clip-rule="evenodd" d="M79.1571 28.8649C79.0559 28.8302 79.2494 28.7869 79.0539 28.8486C78.9552 28.8798 79.0132 28.8643 78.9689 28.9099L79.1571 28.8649ZM76.9542 29.0036C77.0107 28.9287 77.0382 28.9951 76.9344 28.9203H76.7855L76.6472 28.9663C76.7029 28.9977 76.614 29.0241 76.8136 28.9763L76.954 29.0036H76.9542ZM66.116 25.5479C66.0377 25.5013 66.1992 25.4684 65.9931 25.526L66.0653 25.6143C66.3064 25.8778 66.5956 26.1877 66.9958 26.1857C66.927 25.896 66.866 25.7279 66.7113 25.6022C66.5337 25.4582 66.4242 25.4743 66.116 25.5479ZM64.5465 25.0754C64.2808 25.1387 64.0566 25.1945 63.9089 25.326C63.6328 25.5718 63.8511 26.0652 63.9913 26.3111C64.2966 26.8476 63.7904 26.3618 64.6073 27.1356C64.9534 27.4635 65.3288 27.6982 65.8228 27.7712C66.7239 27.9042 67.7305 27.5462 68.0078 26.6096C68.0485 26.4721 68.0645 26.3487 68.0973 26.2216L67.5919 25.9328C67.6796 26.3465 67.7337 26.561 67.5579 26.8149C67.2851 27.209 65.4582 28.1499 64.6688 26.0521C64.5943 25.8545 64.5658 25.7808 64.5536 25.564C64.5408 25.3358 64.5679 25.278 64.5465 25.0752V25.0754ZM41.9757 27.5268L42.0803 27.5591L41.9757 27.5268ZM67.4599 21.4366L67.5642 21.4691L67.4599 21.4366ZM67.3545 21.4119L67.4599 21.4366L67.3545 21.4119ZM55.855 23.8298L55.8243 23.868L55.7214 23.8948L55.6644 23.9561C55.5818 24.0135 55.5655 23.9765 55.6522 24.0221L55.7264 23.9412L55.8286 23.9279L55.9134 23.8468C56.1395 23.7926 55.996 23.8311 56.0388 23.7669L55.855 23.8296V23.8298ZM67.3545 21.4119L67.0515 21.3169C65.5129 20.9929 64.754 21.0511 63.1776 21.1557C61.2641 21.283 58.8779 22.1857 57.219 23.046C57.0013 23.1587 56.8376 23.2697 56.615 23.3978C56.4947 23.467 56.4253 23.4995 56.3075 23.5706L56.0386 23.7671C56.2565 23.7099 56.9694 23.2993 57.2732 23.16C57.6856 22.971 58.1491 22.7536 58.5924 22.5651C59.3513 22.2429 60.7176 21.7608 61.6169 21.6721L63.1186 21.4482C64.4468 21.3197 65.34 21.255 66.656 21.3731C66.8542 21.3908 67.1583 21.4419 67.3545 21.4119V21.4119ZM40.113 26.3761L40.1022 26.3934C40.1028 26.3924 40.1187 26.3796 40.113 26.3761ZM39.9138 26.3736L40.0182 26.4061L39.9138 26.3736ZM35.5339 25.0829C35.5919 25.0141 35.6108 25.069 35.5168 25.011L35.4196 25.0202L35.2745 25.0355C35.3414 25.068 35.234 25.0811 35.4275 25.0521L35.5339 25.0829ZM30.4635 24.4427C30.4006 24.4039 30.2236 24.5749 30.392 24.4856C30.4309 24.4648 30.5617 24.5034 30.4635 24.4427ZM35.0511 23.047L35.0403 23.0644C35.0411 23.0633 35.0568 23.0507 35.0511 23.047ZM34.8989 23.0335L34.8881 23.0511C34.8887 23.0499 34.9046 23.0372 34.8989 23.0335ZM34.6997 23.0313L34.8041 23.0637L34.6997 23.0313ZM34.5475 23.0178C34.6108 23.0537 34.4765 23.0846 34.6997 23.0313C34.6365 22.9953 34.7707 22.9645 34.5475 23.0178ZM34.4421 22.9931L34.5475 23.0178L34.4421 22.9931ZM27.5393 23.8443C27.6528 23.7794 27.673 23.8072 27.5344 23.7961L27.4185 23.753L27.2821 23.8065C27.3399 23.8394 27.2262 23.8697 27.441 23.8186L27.5395 23.8443H27.5393ZM28.0052 23.085L28.1096 23.1175L28.0052 23.085ZM34.4419 22.9931C34.0733 22.7996 32.2476 22.7052 31.0712 21.5528C31.0541 21.5361 30.8814 21.3526 30.871 21.3393C30.7746 21.2149 30.7288 21.2444 30.9212 21.1455C30.9634 21.124 31.2458 21.0176 31.2875 21.0039C31.5062 21.2074 32.1373 21.4086 32.5117 21.5594L33.8149 21.9867L36.1329 22.4603C36.3164 22.4901 36.4119 22.5277 36.5952 22.5571C37.1346 22.6433 37.8493 22.8593 38.4035 23.011C39.9909 23.4456 42.8667 24.6029 44.0966 25.6372C44.2663 25.78 44.6588 26.0825 44.756 26.2633C45.1532 26.1591 45.7377 25.828 46.78 25.5802C48.1058 25.2652 50.5154 24.9361 51.8367 25.1867C53.3451 25.4729 52.8774 25.4944 53.4373 25.1007C53.6992 24.9164 53.9045 24.7677 54.158 24.5792C54.8971 24.028 54.9403 24.0407 55.6788 23.5849C56.9108 22.8247 57.7102 22.3888 59.0823 21.8202C60.2284 21.3453 62.0425 20.8476 63.3194 20.7267C63.6818 20.6926 63.9591 20.6899 64.3174 20.6697C65.2855 20.6153 65.2501 20.5682 66.2312 20.6897C67.2375 20.8141 68.6088 21.1332 69.5378 21.5798C69.8595 21.7342 70.6729 22.19 70.957 22.407C71.2119 22.6021 72.3907 23.5963 72.4363 23.8656C72.4666 24.0447 72.4876 24.2063 72.5364 24.4121C72.1539 24.1369 72.5584 24.0629 70.7871 23.4037C70.1146 23.1534 69.4924 22.8999 68.7917 22.7308C68.6072 22.6862 68.4534 22.636 68.28 22.5837C67.1007 22.2282 65.563 22.1665 64.3162 22.1763C62.8952 22.1878 60.3914 22.7559 58.9916 23.2141C57.6042 23.6684 56.3374 24.3499 55.0973 25.0382C55.0054 25.0893 54.9616 25.1136 54.8575 25.1718L54.6251 25.3506C55.9763 25.0276 58.2349 25.5908 59.6016 26.0043L60.647 26.2625C61.156 26.3383 62.8958 26.7195 63.4262 26.6386C63.3646 26.4026 63.0865 25.9348 63.3573 25.468C64.0708 24.2372 66.4765 24.6793 67.5183 25.3313C68.1455 25.7238 69.1455 26.2165 69.586 26.8674C69.6611 26.9781 69.8349 27.3089 69.8674 27.4433C69.972 27.6249 69.9966 27.4651 69.9995 27.4615C70.1616 27.2819 71.1427 26.5804 71.3806 26.3959C71.7008 26.1483 71.5366 26.2459 71.9437 26.2278C72.4268 26.2061 72.8697 26.0886 73.2595 25.8652C74.3834 25.2212 73.4628 24.8509 74.8286 25.3195L76.0052 25.6257C76.1401 25.6507 76.2642 25.666 76.4089 25.6874C78.6771 26.0227 81.599 26.1383 84.0751 26.4701L87.1834 26.8984C87.3948 26.9471 87.2699 26.8653 87.36 27.003C86.9543 26.9148 86.912 27.0137 86.4436 27.1217C85.6878 27.2964 84.1644 27.82 83.3748 28.0055C82.68 28.1689 81.9013 28.3969 81.2116 28.5225L79.1564 28.8639L80.9705 28.8508C81.3518 28.8314 81.5276 28.7938 81.949 28.696C82.432 28.5834 82.5199 28.5303 82.6808 28.2214C82.7073 28.3965 82.7207 28.3138 82.646 28.4414C82.5437 28.6159 82.2204 28.7454 82.0607 28.8049C81.0602 29.1781 79.9131 29.2427 78.8592 29.3493L74.6239 29.8429C73.9348 29.9389 73.1771 30.0022 72.4939 30.1101C72.1033 30.1718 71.7979 30.2539 71.4052 30.315C71.2109 30.3452 71.1303 30.3313 70.8758 30.3932L69.171 30.7519C66.3636 31.4224 63.0724 32.9464 60.7336 34.4825C59.7027 35.1595 58.7645 35.8831 57.7594 36.593C57.0687 37.0808 53.7824 39.3453 52.9872 39.6068C53.1099 39.4348 54.359 38.6951 54.8465 38.2979C54.9588 38.2066 55.029 38.1682 55.1423 38.0779L56.0288 37.3768C56.7576 36.8561 57.6764 36.0246 58.3623 35.5149C59.5627 34.623 60.1074 34.1049 61.4966 33.3021C65.8218 30.8028 68.2851 29.982 73.1397 29.2537L76.6472 28.9654C76.6358 28.9614 76.6148 28.9464 76.612 28.9573L76.4632 28.9381C75.6734 28.8945 74.6549 28.9307 73.8644 28.9225C73.5633 28.9193 73.2237 28.9148 72.9084 28.9111C72.2351 28.9035 69.7417 28.8637 69.2609 28.642C69.0424 28.5413 69.1718 28.5101 68.8589 28.5781C68.0971 28.7434 68.0947 28.7914 67.2247 28.8872C64.965 29.1364 65.5449 29.1131 63.2913 29.0847C62.086 29.0694 60.8484 29.0057 59.6742 28.7667C58.8945 28.6079 58.1025 28.1877 57.4913 27.6801C56.4137 26.7855 56.0384 26.5172 54.6042 26.1712C54.3769 26.1162 53.9677 25.9559 53.7641 25.9644C53.4231 25.9791 51.8997 27.1655 51.5341 27.4288C51.28 27.6118 51.0831 27.7838 50.8147 27.9511C50.5518 28.1152 50.2757 28.2745 50.0328 28.4349C49.5955 28.7234 50.0765 28.6821 49.2049 28.8903C49.2661 28.7961 49.2712 28.7838 49.3011 28.6676C49.1998 28.7182 49.2016 28.7301 49.0773 28.771C49.2053 28.4657 50.574 27.3959 50.8279 27.1536C51.1191 26.8758 51.4114 26.6453 51.7427 26.3894C51.9201 26.2523 52.6157 25.8118 52.7002 25.6112L47.0681 26.1575C46.8968 26.193 46.7198 26.2466 46.5485 26.2854C46.305 26.3403 46.2801 26.3089 46.0685 26.3479C45.7009 26.4159 45.4089 26.456 45.0697 26.5369C45.9153 27.5042 45.7522 27.2049 46.4356 27.9091C46.846 28.3317 46.9058 28.5252 47.4252 28.8474L47.8881 29.2051C47.6256 29.1977 47.4795 29.0194 47.1984 29.0206L47.2185 29.315C47.1595 29.1961 47.0863 29.1035 46.9943 29.0265C46.8712 28.9238 46.8348 28.925 46.6728 28.896C46.4217 28.851 46.1634 28.8126 45.9056 28.773C45.4154 28.698 44.8942 28.6398 44.3707 28.593C43.8671 28.5483 43.3837 28.439 42.8553 28.3812C42.3104 28.3217 41.8231 28.2733 41.266 28.2243C40.7265 28.1769 40.195 28.1732 39.608 28.2449C37.903 28.4535 37.5189 28.5906 35.8629 28.9863C35.5476 29.0615 35.1803 29.1313 34.8751 29.222C34.6708 29.2827 34.6887 29.3115 34.4653 29.3716C32.9941 29.7681 32.1178 30.172 30.8008 30.8541C30.3271 31.0994 29.8989 31.3914 29.4093 31.6463C27.0022 32.8998 26.8418 33.2293 24.7755 34.5848C23.5102 35.4148 23.7834 35.1446 22.5628 35.7556L22.4957 35.4722L25.4746 33.4453C26.4213 32.8318 26.5053 32.63 27.7243 31.9346L29.4146 31.0051C30.4193 30.4361 30.7988 30.1993 31.9467 29.6688C33.2136 29.0831 34.49 28.7162 36.1048 28.3301C35.6462 28.1716 31.8975 29.1135 31.6562 29.2073L29.5648 29.8892C28.8303 30.1262 28.2091 30.3783 27.5723 30.6727C25.6357 31.5673 23.4188 32.7321 21.7417 34.04C21.6261 34.1301 21.4918 34.2536 21.3905 34.2516C21.3317 34.2508 21.2522 34.2138 21.1952 34.194C21.0237 34.1348 21.1085 34.2034 20.9761 34.0902C22.244 32.973 23.5966 32.004 25.1842 31.2516C26.5094 30.6236 27.521 30.0292 28.9395 29.5029C29.3823 29.3385 29.9153 29.1352 30.3542 29.0071C30.6413 28.9234 30.7754 28.8543 31.0466 28.7904C31.3699 28.7142 31.4665 28.6382 31.787 28.563C34.4281 27.9432 35.1661 27.6686 37.9116 27.4782C38.3926 27.4449 38.8599 27.4104 39.3087 27.4247C39.83 27.4414 41.6028 27.6061 41.9755 27.5258C41.8113 27.4394 41.4249 27.3797 41.239 27.3526C37.9415 26.8725 37.2345 26.8805 33.7591 27.1166C32.834 27.1795 32.4057 27.1992 31.4954 27.3397L28.0427 28.0625C26.0138 28.5473 24.474 29.0196 22.6676 29.858C20.5057 30.8618 18.5278 31.7585 16.3947 32.831C16.0069 33.0261 15.1672 33.4267 14.6722 33.4876L14.2785 33.6018L14.248 33.3542C14.2439 33.1834 14.5231 33.137 14.8702 32.977L17.0409 31.9011C18.0377 31.4281 18.9768 30.9552 19.9779 30.4927C21.4688 29.8038 24.6133 28.3185 26.2276 27.9483C26.5611 27.8721 26.7029 27.7818 27.0614 27.698C27.779 27.5303 29.3192 27.1193 29.8569 27.0664L31.6922 26.6913C33.1603 26.4147 35.2875 26.3458 36.752 26.2925C37.7844 26.2549 38.1877 26.2888 39.137 26.3297C39.3852 26.3405 39.6858 26.4073 39.9134 26.3724C39.7216 26.2719 39.4809 26.2719 39.2465 26.2165C36.1384 25.4844 32.3337 25.8153 29.2339 26.3808C28.9485 26.4331 28.6291 26.5512 28.3456 26.5861C27.354 26.7083 24.8817 27.3217 23.8984 27.5565C23.2827 27.7035 22.8143 27.8672 22.1685 28.0188C21.8343 28.0972 21.6937 28.1855 21.3352 28.2694C20.0127 28.5783 17.2582 29.2958 16.141 29.2788C15.8511 29.2745 15.6832 29.2418 15.4175 29.2151C14.9223 29.1652 14.4513 29.0715 14.0358 28.9162C14.073 28.7716 14.1044 28.6447 14.0761 28.4578L15.1965 28.5283C15.5957 28.5446 16.0083 28.5393 16.3911 28.5438C17.4613 28.5562 20.9736 27.8182 21.8137 27.4776L24.5521 26.7524C25.4076 26.5479 26.5348 26.2092 27.3713 26.0813C27.6001 26.0464 27.7491 26.0396 28.0425 25.9683L29.4179 25.6886C30.0535 25.5324 32.1048 25.2782 32.7182 25.2145L35.2273 25.049C35.1846 25.0321 35.1988 25.0325 35.1246 25.0204C35.023 25.0043 35.0873 25.0135 34.9711 25.0086C34.8556 25.0039 34.7557 25.0002 34.6578 24.9963C34.443 24.9877 34.28 24.9808 34.0721 24.97C31.9499 24.8578 29.6559 25.2688 27.6166 25.485C27.1721 25.532 26.6921 25.6464 26.2821 25.698L24.2349 26.0265C23.6522 26.1185 22.7358 26.2012 22.2133 26.313C21.328 26.5023 20.4025 26.5983 19.539 26.6819C18.5062 26.782 16.8724 26.9324 15.8669 26.6498C15.6238 26.5814 15.0429 26.3642 14.8869 26.2194L15.0661 25.8864C17.1357 26.2997 19.2639 26.0351 21.3606 25.8053C21.7264 25.7653 22.0251 25.6762 22.3911 25.6302L25.2903 25.2212C26.1574 25.1079 27.3792 24.8623 28.309 24.7483L30.2639 24.4396C29.9882 24.5054 29.6425 24.4676 29.3576 24.478C29.0038 24.4909 28.7489 24.5142 28.4077 24.522C27.8099 24.5354 27.1784 24.5424 26.532 24.5704C25.9251 24.5965 25.2278 24.6752 24.607 24.6989C22.3409 24.7853 18.9103 24.9941 16.9036 23.7808C16.7479 23.6868 16.353 23.4294 16.2796 23.293L16.5524 22.817C16.7945 22.8848 16.9068 22.9508 17.1213 23.0325C19.8245 24.0627 21.3606 24.0932 24.3224 23.9851L27.2815 23.8057L26.0481 23.7228C24.9043 23.5663 24.8599 23.6631 23.6699 23.2817C23.4794 23.2206 23.3116 23.1575 23.1378 23.1028C22.5142 22.9058 21.0957 22.2633 20.609 21.8603C20.3166 21.618 20.0291 21.3798 19.7333 21.1287C19.5825 21.001 18.9754 20.455 18.9036 20.3218L19.0582 20.1353C19.442 20.2348 20.8127 20.8734 21.1608 21.0911C21.3167 21.1886 21.4709 21.2981 21.6298 21.3733C22.6491 21.8566 23.0569 22.1618 24.2835 22.543C24.6858 22.668 25.0044 22.8049 25.4481 22.8691C25.9539 22.9422 27.5751 23.1767 28.0048 23.0842L26.098 22.4635C25.6664 22.2928 24.3696 21.6064 23.9743 21.2151C23.0331 20.2844 22.3649 18.9935 22.0634 17.7214C22.1547 17.647 22.2288 17.5947 22.3704 17.5484L24.8432 20.5835C25.1716 20.9212 25.8634 21.2182 26.2382 21.4501C26.9729 21.9044 28.9776 22.5316 29.8439 22.6376C30.5469 22.724 31.81 22.7669 32.6104 22.8378L34.4419 22.992V22.9931ZM55.4506 15.6283L55.4398 15.6456C55.4406 15.6446 55.4563 15.6319 55.4506 15.6283ZM58.5271 13.0977L58.5163 13.1151C58.5169 13.1141 58.5328 13.1012 58.5271 13.0977ZM56.2323 16.2517C55.8481 16.2611 55.5498 16.2967 55.1411 16.3298C54.1295 16.4115 53.8048 16.4948 52.8619 16.6434C52.254 16.739 50.5459 17.0421 49.9178 17.2863L48.2173 17.8068C47.399 18.0094 45.8417 18.6256 44.8854 18.8503L43.7228 19.1794C43.5161 19.2284 43.3251 19.264 43.1352 19.342C42.8337 19.4656 42.8663 19.3988 42.5946 19.4489C42.1017 19.5398 41.9145 19.5739 41.4642 19.5904C41.0709 19.6051 40.7893 19.5788 40.4359 19.5659C40.1098 19.5541 39.7484 19.5057 39.4284 19.5073C39.5944 19.0599 39.6432 19.1792 40.1252 19.0903C41.217 18.8893 42.0162 18.9449 43.1544 18.6662C43.3592 18.6162 43.4622 18.5966 43.6528 18.5784C43.9149 18.5533 49.0379 16.9324 49.1496 16.8922L51.2456 16.3341C51.9614 16.1631 53.6754 15.8313 54.3624 15.7666C54.6593 15.7386 55.0971 15.7128 55.3563 15.6509C55.3452 15.6466 55.3248 15.6305 55.3224 15.6409L53.8275 15.4609C52.8572 15.3478 51.2161 15.643 50.1958 15.8867C49.5034 16.0522 48.9603 16.132 48.2568 16.3002C46.0435 16.8293 43.5607 17.7886 41.5016 17.1073C41.3767 17.066 41.2522 17.0115 41.1214 17.008C41.1269 16.8011 41.3216 16.5604 41.4931 16.531L43.6014 16.628C45.6285 16.5388 49.189 15.3331 50.3225 15.2217C50.7968 15.1751 51.764 14.8787 52.7488 14.7991C53.0033 14.7782 53.3234 14.785 53.5498 14.7361C53.5388 14.7318 53.5185 14.7157 53.516 14.7261L53.2597 14.6859C51.1874 14.5106 50.2126 14.7553 48.153 14.8338C47.2818 14.8669 46.3979 14.8679 45.5318 14.789C44.9998 14.7406 43.5731 14.389 43.2644 14.1022C43.4085 14.0242 43.44 13.9351 43.4907 13.7989C43.6712 13.8383 43.8931 13.8362 44.0946 13.861C47.3792 14.2663 48.0303 14.131 51.305 13.9474C51.7939 13.9198 52.7907 13.8904 53.2796 13.9337C53.4937 13.9529 53.7437 14.0001 53.9217 13.9993C53.6957 13.8062 50.8676 12.9864 50.3359 12.8446L48.6755 12.4769C47.8002 12.2704 46.8913 12.0595 46.0972 11.6424C45.9369 11.5582 45.7678 11.4522 45.6763 11.2818C45.7288 11.1568 45.8773 11.004 45.9853 10.9088C47.2537 11.3827 48.6171 11.6162 49.9361 11.9261L52.5522 12.6334C54.4922 13.2062 54.6068 13.2391 56.1006 14.3265L56.1926 14.4125C56.1588 14.1504 56.208 14.379 56.1275 14.2922C55.7907 13.7306 55.1262 12.7844 54.6271 12.3909C54.4493 12.2508 54.3118 12.1846 54.1496 12.0573C53.9696 11.9161 53.8369 11.8501 53.6727 11.7225C53.5012 11.5893 53.3929 11.4945 53.222 11.3449C51.7384 10.0483 52.4045 10.6269 51.1634 9.13924C50.4839 8.32494 50.2189 7.80891 49.9488 6.67C50.0763 6.60095 50.3036 6.36643 50.3988 6.26326C50.5471 6.56193 50.6253 6.61689 50.796 6.85877C51.5838 7.97459 51.7423 8.13026 52.5706 9.13495C52.7232 9.32024 52.8587 9.53821 53.0086 9.72922C53.6615 10.5599 55.1065 11.4036 55.6569 11.8896C56.0575 12.2428 56.7041 13.1496 56.9362 13.6644L57.5171 15.3349C57.6601 15.1662 57.5684 15.1897 57.4947 14.9864C57.4382 14.8311 57.4209 14.7014 57.3588 14.5459C57.2011 14.1502 56.8752 12.6029 56.5482 11.8103C56.3187 11.2536 56.031 10.898 55.7075 10.4978C55.3763 10.088 55.1197 9.65405 54.8099 9.21319C54.4058 8.63812 52.8066 6.59523 52.6412 6.0745C52.5229 5.7027 52.4934 5.43406 52.5134 5.15275C52.5667 4.40465 52.5122 4.24653 53.2155 3.89454C53.4479 4.87492 53.1535 5.08575 54.0483 6.33231C54.4961 6.95601 54.9785 7.56172 55.4292 8.20319C55.805 8.73802 57.1922 10.6575 57.3863 11.0978C57.4864 11.3251 57.5582 11.5123 57.6164 11.7697C57.689 12.0896 57.7651 12.1899 57.8308 12.4671C57.9751 12.2969 58.1342 11.5041 58.1849 11.2354C58.2978 10.6369 58.2109 10.3574 57.9295 9.75415C57.7283 9.3231 57.5008 8.86447 57.2787 8.45957C56.5657 7.16091 56.6095 7.4369 55.9448 5.85714C55.5718 4.97134 55.1144 3.79158 55.3287 2.82345C55.3682 2.64552 55.4078 2.335 55.5236 2.21876C55.5728 2.16932 56.0426 1.83735 56.0992 1.80916C56.1993 2.2778 56.0184 2.30987 56.2691 3.36441C56.5275 4.45123 56.8693 5.3693 57.3279 6.34988C57.7525 7.25815 59.1491 9.53781 59.1468 10.4199C59.1446 11.2579 58.5501 12.6714 58.5515 12.9929C58.8166 12.7055 59.4478 11.2569 59.5051 11.0038C59.5678 10.7272 59.5979 10.4896 59.6642 10.2156C59.876 9.34251 59.9302 9.74945 59.9808 8.67898C60.0349 7.5368 60.1875 6.21812 59.734 5.04366C59.6396 4.79933 59.5428 4.39219 59.4435 4.14275C59.1452 3.39036 58.5926 2.26616 58.5179 1.45023C58.4805 1.04165 58.4817 0.924593 58.5558 0.587313C58.6264 0.26515 58.6343 0.344822 59.1666 0.0784302C59.2264 0.473728 59.1186 0.627966 59.3835 1.29558C59.5474 1.70988 59.6451 2.07984 59.8099 2.49802C59.9609 2.88147 60.1387 3.21814 60.2777 3.56788C61.0504 5.51312 61.0154 6.8841 60.84 8.88755C60.8203 9.11207 60.7749 9.21544 60.7123 9.41278C60.6012 9.7617 60.5151 10.0036 60.3764 10.3335C60.1804 10.7987 60.1253 11.7527 59.5332 12.673C59.1127 13.3269 58.9161 13.5129 58.5495 14.3615C57.9104 15.8405 58.0996 15.2113 58.3069 15.7492C58.7297 16.8458 58.1733 16.6383 57.4231 17.3316C56.9214 17.7951 55.7321 18.3296 55.0656 18.6145C54.4705 18.8691 51.1242 19.7788 50.2761 20.0064C49.9038 20.1063 49.5292 20.2748 49.1243 20.3825L47.9888 20.7686C46.8586 21.1957 43.6091 22.3357 42.7301 22.9583L41.8681 23.5134C41.9696 23.2403 42.8296 22.4644 43.1428 22.2462C44.3151 21.4301 46.5933 20.607 48.0242 20.1054C48.3738 19.9829 48.7923 19.8225 49.1201 19.7349C49.8529 19.5398 50.5886 19.2305 51.3435 19.054C51.5311 19.01 51.7242 18.9678 51.9105 18.921C52.1708 18.8552 52.1984 18.8017 52.4589 18.7359C52.6617 18.6848 52.8717 18.644 53.0747 18.5927L54.7537 18.0991C55.4813 17.825 56.8577 17.2675 57.487 16.8066L57.5696 16.7367C57.5753 16.7318 57.5875 16.7212 57.5952 16.7124C56.769 16.7163 55.772 17.0838 54.9077 17.1686C54.4819 17.2105 53.9451 17.4101 53.5069 17.4901C50.8594 17.9731 49.7858 18.5116 47.339 19.6413C46.5678 19.9974 45.8708 20.3191 45.0999 20.675C43.2378 21.5351 40.902 22.2501 38.8984 21.8121C38.6133 21.7498 38.0011 21.6891 37.8231 21.5373C38.374 21.3559 38.006 21.1708 38.8821 21.1845C39.2668 21.1902 39.6565 21.2035 40.03 21.2102C42.7841 21.2615 44.804 20.2062 47.1851 19.063C48.3947 18.4818 50.6167 17.5316 51.904 17.2246C52.3586 17.1163 52.8131 17.0074 53.2676 16.8987C54.123 16.6944 55.7539 16.3764 56.583 16.3343C57.7877 16.2738 56.7212 16.2399 56.2323 16.2522V16.2517ZM32.9009 47.3005L32.716 49.1201C32.6248 49.3567 32.4708 49.4425 32.4527 49.602C32.6515 49.5026 33.0222 49.3162 33.1066 49.1197C33.4222 48.3835 33.7585 47.8174 34.6112 47.3906C34.4869 47.2844 34.4023 47.3355 34.2021 47.3381L33.3233 47.3314C33.1435 47.3142 33.0747 47.274 32.9009 47.3005V47.3005ZM60.6402 35.6342C60.5875 35.7595 60.498 35.8232 60.4052 35.9321C60.3176 36.0348 60.2543 36.1151 60.1629 36.2256C59.3236 37.2412 57.0481 39.2183 56.052 39.9302C55.6154 40.2426 55.1435 40.5298 54.6507 40.837L51.6405 42.5625C50.4749 43.1713 47.8403 44.3459 46.6049 44.8094C43.6457 45.9187 38.3533 47.2952 34.9406 47.3118C34.7577 47.8051 34.2824 47.7859 34.0444 48.7722C33.8464 49.5922 33.554 49.6039 32.8189 50.0699L30.9497 50.9696C30.6673 51.1101 30.2649 51.2443 29.9768 51.3755C29.6228 51.5369 29.4655 51.8039 29.121 51.8944C29.5399 51.3072 29.9153 51.047 30.5526 50.684C30.7756 50.5569 30.8985 50.4335 31.1318 50.3166C30.9628 50.2582 30.4663 50.353 30.2936 50.3745C29.978 50.4139 29.6498 50.5262 29.416 50.6264C28.8838 50.8539 28.5123 51.1168 28.0354 51.3847C27.3713 51.7575 25.8524 53 25.579 53.0901C25.6451 52.9117 26.4699 51.9988 26.6532 51.82C26.8005 51.6764 26.9059 51.5624 27.0561 51.4243C27.5808 50.9412 28.4014 50.4523 29.1082 50.1138C31.0515 49.1843 31.683 50.0572 32.0307 48.8576C32.1296 48.5158 32.246 48.1189 32.4128 47.8045C32.4924 47.6542 32.6004 47.456 32.6547 47.3093C32.0258 46.9598 28.8913 46.8198 27.9723 46.6999C27.6535 46.6399 27.382 46.5896 27.0701 46.5351C24.3437 46.0572 21.9427 45.1825 19.3317 44.2993C19.1502 44.2378 18.621 44.0666 18.4963 43.96C18.6853 43.9592 18.9113 44.0348 19.1046 44.0807C20.4263 44.3945 23.4013 44.9363 24.6845 45.1242C28.8293 45.7314 29.8653 45.7479 34.0246 45.7949C37.9242 45.8391 39.4666 45.3101 43.2036 44.4397C45.3851 43.9316 49.4584 42.0577 51.3756 41.1092C52.2302 40.6863 53.0351 40.2894 53.8939 39.8853C55.9372 38.9243 57.8524 37.7652 59.6689 36.4434C59.8325 36.3243 60.0089 36.1762 60.1409 36.0502C60.2903 35.9078 60.4299 35.7392 60.6406 35.6336L60.6402 35.6342ZM50.3239 30.469C49.764 30.4717 49.0975 30.3693 48.3646 30.392C46.9526 30.4359 45.424 30.6704 44.0238 30.9268C43.6195 31.0008 43.2573 31.0602 42.8829 31.1511L41.6974 31.3832C41.3838 31.4582 41.0705 31.5346 40.7568 31.6077L37.0819 32.7211C35.1701 33.4477 32.8763 34.0338 31.0533 34.8782C30.2523 35.2491 28.742 35.9754 28.0235 36.3905C27.5546 36.6614 27.0443 36.8767 26.5751 37.1474C24.4554 38.3699 22.9201 39.1927 20.7537 40.3186C20.2393 40.586 17.6165 41.5568 16.929 41.7425C16.7638 41.7872 16.5742 41.8138 16.413 41.8669C15.0875 42.302 14.7276 42.2172 13.6246 42.4806C13.6755 42.4093 13.6588 42.4093 13.7564 42.3606L15.3129 41.7913C16.5495 41.2326 17.3135 40.8105 18.4814 40.244C19.0454 39.9703 19.5329 39.7122 20.009 39.415C20.4839 39.1186 20.9197 38.8424 21.4043 38.5447L24.3354 36.8103C25.5639 36.0551 27.5696 34.9568 28.8716 34.3354C29.3729 34.0963 29.9098 33.8132 30.4364 33.5699C34.9414 31.4878 41.9564 29.7072 46.6883 29.9191C47.2063 29.9423 48.0539 29.9836 48.5467 30.0949C48.7375 30.1378 48.9555 30.1742 49.1612 30.2053L50.0212 30.3734C50.1805 30.4042 50.2145 30.3744 50.3243 30.4684L50.3239 30.469ZM31.1133 36.4064C30.918 36.872 29.9609 37.5979 29.5499 37.898L28.4712 38.7623C27.9552 39.138 27.4553 39.4581 26.9348 39.8275C26.6463 40.0324 26.4243 40.1584 26.1265 40.3351C23.8009 41.7141 22.0465 42.5292 19.3486 43.1574C17.2368 43.6997 3.70564 46.6337 1.60104 47.904L0 48.9291C0.219331 48.6219 1.66391 47.4262 2.00654 47.1878C5.384 44.8362 11.5737 43.8193 15.6325 42.8356C15.906 42.729 16.3811 42.6131 16.669 42.5089C16.8352 42.4489 17.0513 42.4123 17.2267 42.37L18.8981 41.8718C19.2059 41.7706 20.1386 41.5666 20.5679 41.4127C21.4414 41.1 22.1907 40.9465 23.2182 40.5525C23.5842 40.4121 23.8685 40.3175 24.2351 40.1735C25.123 39.8254 26.1751 39.35 27.0172 38.9114C27.3328 38.7472 27.5987 38.6217 27.9141 38.4581C28.5043 38.1519 29.0207 37.7917 29.5896 37.479C29.9286 37.2926 30.1282 37.205 30.4209 36.9856C30.5412 36.8951 30.6447 36.8089 30.7538 36.7078C30.8873 36.5838 30.94 36.4933 31.1135 36.4064H31.1133ZM62.5341 2.34399C62.6002 2.59792 62.7941 2.92846 62.9044 3.39362C63.152 4.43876 63.1489 4.38749 63.1866 5.53804C63.2114 6.2982 63.2747 7.72863 63.2582 8.47183C63.2321 9.64914 62.9595 11.9039 62.6106 13.0955C62.519 13.4087 62.3642 13.7047 62.3402 14.0119C62.307 14.4344 62.3115 14.1151 62.0848 14.5768C62.0173 14.7147 62.0415 14.7282 61.9338 14.8446C61.1247 14.8485 61.7566 13.4728 61.8468 13.1819C61.9778 12.7592 62.0679 12.222 62.1332 11.7831C62.2055 11.299 62.3021 10.8798 62.3347 10.3644L62.4405 8.85364C62.4685 8.23424 62.4024 6.25387 62.3662 5.6884C62.3332 5.17624 62.3054 4.59688 62.25 4.04061C62.222 3.75991 62.2185 3.51681 62.1981 3.22059C62.1794 2.95052 62.1782 2.63837 62.1418 2.39772C62.3459 2.3491 62.3638 2.38097 62.5341 2.3446V2.34399ZM63.8285 17.0176L62.7204 17.6221C62.2163 17.8775 61.2645 18.1819 60.6594 18.3226C60.3452 18.396 60.2463 18.4626 59.9654 18.5386C58.9855 18.8035 60.3989 19.246 57.3991 21.5455C56.993 21.8566 56.2666 22.4151 55.7944 22.5281C55.8023 22.5193 55.8135 22.4958 55.8202 22.5038L58.2158 20.0762C58.5029 19.7177 58.5485 19.4791 58.6547 19.0178C58.7651 18.5383 58.8856 18.4197 59.3489 18.1576C59.814 17.8944 61.4964 17.4303 62.1367 17.2211C62.5973 17.0707 62.9507 16.8301 63.3404 16.6352C63.5351 16.8581 63.6433 16.8452 63.8285 17.0172V17.0176ZM14.6722 33.4886C14.6112 33.5689 14.7778 33.5129 14.5033 33.5983C14.4466 33.6159 14.3294 33.6349 14.2637 33.6508C14.2071 33.4124 14.2004 33.4771 14.248 33.3554L14.2785 33.603L14.6722 33.4888V33.4886ZM76.934 28.9203L76.9538 29.0036L76.8134 28.9763L76.7851 28.9201H76.934V28.9203ZM69.9999 27.4625C69.997 27.4662 69.9724 27.6259 69.8678 27.4443L69.9999 27.4625ZM27.5391 23.8443L27.4406 23.8186L27.4183 23.753L27.5342 23.7961L27.5391 23.8443V23.8443ZM66.0649 25.6143L65.9927 25.526C66.1988 25.4684 66.0373 25.5013 66.1156 25.5479C66.0364 25.5671 66.0474 25.5412 66.0649 25.6143ZM35.5164 25.0108L35.5335 25.0827L35.4271 25.0519L35.4192 25.02L35.5164 25.0108V25.0108ZM56.1004 14.3259L56.1275 14.2916C56.208 14.3784 56.1588 14.1498 56.1926 14.4119L56.1006 14.3259H56.1004ZM55.9128 23.8468L55.828 23.9279L55.8237 23.8678L55.8544 23.8296L55.9126 23.8468H55.9128ZM55.6518 24.0219L55.664 23.9559L55.721 23.8946L55.726 23.941L55.6518 24.0219ZM31.1133 36.4064L31.1021 36.3592L31.1664 36.3854L31.1133 36.4064V36.4064ZM18.4961 43.96L18.4491 43.9712L18.4753 43.9069L18.4961 43.96ZM29.121 51.8942L29.1322 51.9414L29.0679 51.9152L29.121 51.8942V51.8942ZM60.6402 35.6338L60.6289 35.5868L60.6931 35.613L60.6402 35.6338ZM25.579 53.0899L25.5902 53.1369L25.5261 53.1107L25.579 53.0899V53.0899ZM49.0773 28.7716L48.9984 28.8478L49.0773 28.7716Z" fill="#555B6E"/>
<path fill-rule="evenodd" clip-rule="evenodd" d="M27.3934 40.4282C26.527 40.7614 26.9244 40.4928 27.4172 40.1281C30.7495 37.684 31.888 37.0397 35.8209 35.6875C38.7526 34.6798 41.2328 33.7321 44.3211 33.2073C46.1147 32.9023 48.131 32.6344 49.9397 32.4303C52.3768 32.1552 53.6315 32.3774 55.9827 33.0115C56.483 33.1476 55.3359 33.0542 55.294 33.0534C52.8201 33.003 51.176 33.1235 48.7263 33.46C45.7887 33.8634 43.7787 34.215 40.9284 35.1257C38.0012 36.0614 35.4116 36.9463 32.5885 38.1884C30.8579 38.9496 29.1547 39.7345 27.3936 40.4282H27.3934Z" fill="#BDE6E4"/>
<path d="M302.624 44.165C301.18 44.165 299.873 43.8487 298.704 43.216C297.548 42.5696 296.641 41.6894 295.981 40.5753C295.32 39.4475 294.99 38.1821 294.99 36.7792C294.99 35.3763 295.32 34.1179 295.981 33.0038C296.641 31.876 297.555 30.9957 298.724 30.3631C299.894 29.7166 301.2 29.3934 302.644 29.3934C303.772 29.3934 304.804 29.586 305.739 29.9711C306.674 30.3424 307.472 30.8995 308.132 31.6422L306.791 32.9419C305.705 31.8003 304.35 31.2296 302.727 31.2296C301.654 31.2296 300.684 31.4702 299.818 31.9516C298.951 32.433 298.271 33.1001 297.775 33.9528C297.294 34.7918 297.053 35.7339 297.053 36.7792C297.053 37.8245 297.294 38.7735 297.775 39.6263C298.271 40.4653 298.951 41.1254 299.818 41.6068C300.684 42.0882 301.654 42.3289 302.727 42.3289C304.336 42.3289 305.691 41.7512 306.791 40.5959L308.132 41.8957C307.472 42.6384 306.667 43.2023 305.718 43.5874C304.783 43.9725 303.751 44.165 302.624 44.165ZM317.292 44.165C315.834 44.165 314.521 43.8487 313.352 43.216C312.183 42.5696 311.261 41.6825 310.587 40.5547C309.927 39.4268 309.597 38.1684 309.597 36.7792C309.597 35.3901 309.927 34.1316 310.587 33.0038C311.261 31.876 312.183 30.9957 313.352 30.3631C314.521 29.7166 315.834 29.3934 317.292 29.3934C318.736 29.3934 320.043 29.7166 321.212 30.3631C322.381 30.9957 323.296 31.876 323.956 33.0038C324.616 34.1179 324.946 35.3763 324.946 36.7792C324.946 38.1821 324.616 39.4475 323.956 40.5753C323.296 41.6894 322.381 42.5696 321.212 43.216C320.043 43.8487 318.736 44.165 317.292 44.165ZM317.292 42.3289C318.351 42.3289 319.3 42.0882 320.139 41.6068C320.992 41.1254 321.659 40.4653 322.141 39.6263C322.636 38.7735 322.883 37.8245 322.883 36.7792C322.883 35.7339 322.636 34.7918 322.141 33.9528C321.659 33.1001 320.992 32.433 320.139 31.9516C319.3 31.4702 318.351 31.2296 317.292 31.2296C316.233 31.2296 315.27 31.4702 314.404 31.9516C313.551 32.433 312.877 33.1001 312.382 33.9528C311.901 34.7918 311.66 35.7339 311.66 36.7792C311.66 37.8245 311.901 38.7735 312.382 39.6263C312.877 40.4653 313.551 41.1254 314.404 41.6068C315.27 42.0882 316.233 42.3289 317.292 42.3289ZM334.083 44.165C332.157 44.165 330.658 43.6149 329.585 42.5146C328.512 41.4143 327.976 39.8326 327.976 37.7695V29.5585H330.039V37.687C330.039 40.7816 331.394 42.3289 334.103 42.3289C335.424 42.3289 336.434 41.9507 337.136 41.1942C337.837 40.424 338.188 39.2549 338.188 37.687V29.5585H340.189V37.7695C340.189 39.8463 339.653 41.4349 338.58 42.5352C337.507 43.6218 336.008 44.165 334.083 44.165ZM356.839 29.5585V44H355.147L346.482 33.2307V44H344.419V29.5585H346.111L354.776 40.3277V29.5585H356.839ZM365.37 44.165C364.283 44.165 363.231 44 362.213 43.6699C361.209 43.3261 360.419 42.8859 359.841 42.3495L360.604 40.7403C361.154 41.2355 361.856 41.6412 362.709 41.9576C363.575 42.2601 364.462 42.4114 365.37 42.4114C366.566 42.4114 367.46 42.212 368.052 41.8131C368.643 41.4005 368.939 40.8572 368.939 40.1833C368.939 39.6882 368.774 39.2893 368.444 38.9867C368.128 38.6704 367.729 38.4297 367.247 38.2646C366.78 38.0996 366.113 37.9139 365.246 37.7076C364.16 37.4463 363.279 37.185 362.605 36.9236C361.945 36.6623 361.374 36.2635 360.893 35.7271C360.425 35.1769 360.192 34.4411 360.192 33.5196C360.192 32.7494 360.391 32.0548 360.79 31.4359C361.202 30.8169 361.821 30.3218 362.647 29.9504C363.472 29.5791 364.497 29.3934 365.721 29.3934C366.573 29.3934 367.412 29.5034 368.238 29.7235C369.063 29.9436 369.771 30.2599 370.363 30.6725L369.682 32.323C369.077 31.9379 368.43 31.649 367.742 31.4565C367.055 31.2502 366.381 31.147 365.721 31.147C364.552 31.147 363.671 31.3602 363.08 31.7866C362.502 32.213 362.213 32.7631 362.213 33.437C362.213 33.9322 362.378 34.3379 362.709 34.6543C363.039 34.9568 363.444 35.1975 363.926 35.3763C364.421 35.5414 365.088 35.7202 365.927 35.9127C367.013 36.1741 367.887 36.4354 368.547 36.6967C369.207 36.958 369.771 37.3569 370.239 37.8933C370.72 38.4297 370.961 39.1518 370.961 40.0595C370.961 40.816 370.755 41.5106 370.342 42.1432C369.929 42.7622 369.303 43.2573 368.465 43.6286C367.626 43.9862 366.594 44.165 365.37 44.165ZM384.455 42.2051V44H373.975V29.5585H384.166V31.3533H376.038V35.789H383.279V37.5426H376.038V42.2051H384.455ZM387.796 29.5585H389.859V42.2051H397.678V44H387.796V29.5585ZM400.045 29.5585H402.108V42.2051H409.928V44H400.045V29.5585ZM418.552 44.165C417.094 44.165 415.781 43.8487 414.612 43.216C413.443 42.5696 412.521 41.6825 411.847 40.5547C411.187 39.4268 410.857 38.1684 410.857 36.7792C410.857 35.3901 411.187 34.1316 411.847 33.0038C412.521 31.876 413.443 30.9957 414.612 30.3631C415.781 29.7166 417.094 29.3934 418.552 29.3934C419.996 29.3934 421.303 29.7166 422.472 30.3631C423.641 30.9957 424.556 31.876 425.216 33.0038C425.876 34.1179 426.206 35.3763 426.206 36.7792C426.206 38.1821 425.876 39.4475 425.216 40.5753C424.556 41.6894 423.641 42.5696 422.472 43.216C421.303 43.8487 419.996 44.165 418.552 44.165ZM418.552 42.3289C419.611 42.3289 420.56 42.0882 421.399 41.6068C422.252 41.1254 422.919 40.4653 423.401 39.6263C423.896 38.7735 424.143 37.8245 424.143 36.7792C424.143 35.7339 423.896 34.7918 423.401 33.9528C422.919 33.1001 422.252 32.433 421.399 31.9516C420.56 31.4702 419.611 31.2296 418.552 31.2296C417.493 31.2296 416.53 31.4702 415.664 31.9516C414.811 32.433 414.137 33.1001 413.642 33.9528C413.161 34.7918 412.92 35.7339 412.92 36.7792C412.92 37.8245 413.161 38.7735 413.642 39.6263C414.137 40.4653 414.811 41.1254 415.664 41.6068C416.53 42.0882 417.493 42.3289 418.552 42.3289ZM439.015 44L435.9 39.5644C435.514 39.5919 435.212 39.6056 434.992 39.6056H431.423V44H429.36V29.5585H434.992C436.862 29.5585 438.334 30.0055 439.407 30.8995C440.48 31.7935 441.016 33.0244 441.016 34.5924C441.016 35.7064 440.741 36.6554 440.191 37.4394C439.641 38.2234 438.857 38.7942 437.839 39.1518L441.264 44H439.015ZM434.93 37.852C436.237 37.852 437.234 37.5701 437.921 37.0062C438.609 36.4423 438.953 35.6377 438.953 34.5924C438.953 33.5471 438.609 32.7494 437.921 32.1992C437.234 31.6353 436.237 31.3533 434.93 31.3533H431.423V37.852H434.93Z" fill="#E63946"/>
</svg>
