<svg width="269" height="56" viewBox="0 0 269 56" fill="none" xmlns="http://www.w3.org/2000/svg">
<path d="M92.0137 4.346H95.6058C95.5759 4.3761 95.5759 4.4363 95.5759 4.4963C95.5759 4.5564 95.5759 4.6465 95.5759 4.7367C95.5759 4.9471 95.6058 5.1874 95.6956 5.4279C95.7855 5.6985 95.9052 5.9989 96.1147 6.3896L102.071 17.0292C102.341 17.5102 102.61 18.1112 102.91 18.8026C103.239 19.4938 103.538 20.2752 103.838 21.1168H104.047C103.897 20.4256 103.808 19.7644 103.718 19.1933C103.658 18.6223 103.628 18.0511 103.628 17.5402V9.4553C103.628 8.4936 103.478 7.8323 103.179 7.5017C102.909 7.171 102.371 6.9907 101.562 6.9907H101.443C101.742 5.9088 102.071 5.1874 102.46 4.8568C102.85 4.5261 103.508 4.3458 104.496 4.3458H107.19C106.861 4.7365 106.651 5.2175 106.502 5.8185C106.352 6.4196 106.292 7.2913 106.292 8.4032V20.5154C106.292 21.7477 106.412 22.5892 106.681 22.98C106.951 23.3707 107.4 23.5512 108.088 23.5811C107.849 24.5428 107.519 25.2041 107.13 25.5348C106.741 25.8654 106.082 26.0457 105.155 26.0457H101.712C101.742 25.9857 101.742 25.9255 101.742 25.8353C101.772 25.7753 101.772 25.6851 101.772 25.5348C101.772 25.3244 101.742 25.114 101.682 24.9337C101.652 24.7233 101.562 24.543 101.443 24.3627L95.067 13.0318C94.7676 12.4608 94.4983 11.8597 94.2288 11.2285C93.9593 10.5972 93.7497 9.9362 93.5403 9.2148H93.3308C93.4207 9.9962 93.5104 10.7475 93.5702 11.4389C93.6002 12.1302 93.63 12.7612 93.63 13.3322V20.9662C93.63 21.928 93.7797 22.5892 94.109 22.9499C94.4383 23.3406 94.977 23.5209 95.7553 23.5209C95.4559 24.5729 95.1268 25.2341 94.7375 25.5646C94.3784 25.8952 93.7198 26.0456 92.762 26.0456H90.3373C90.5469 25.6248 90.7264 25.0839 90.8164 24.4226C90.9063 23.7613 90.9661 22.8899 90.9661 21.7777V9.395C90.9661 8.4632 90.8462 7.8623 90.6068 7.5316C90.3373 7.201 89.8884 7.0207 89.2 6.9906C89.4695 5.9386 89.7986 5.2474 90.1877 4.8868C90.5768 4.526 91.2055 4.3457 92.0136 4.3457L92.0137 4.346Z" fill="#4470AD"/>
<path d="M112.034 8.7942H115.955C115.746 9.3051 115.566 9.8462 115.476 10.4172C115.356 10.9882 115.297 11.6195 115.297 12.2506V21.2971C115.297 22.1688 115.416 22.7398 115.626 23.0103C115.835 23.2809 116.254 23.461 116.853 23.5212C116.554 24.5732 116.225 25.2344 115.895 25.5649C115.536 25.8955 114.997 26.0459 114.309 26.0459H110.448C110.657 25.5048 110.837 24.9338 110.926 24.3628C111.046 23.7918 111.106 23.1907 111.106 22.5895V13.5429C111.106 12.9719 111.076 12.5511 110.986 12.2807C110.926 12.0402 110.807 11.8296 110.657 11.6796C110.567 11.5893 110.418 11.5292 110.208 11.4392C110.028 11.379 109.819 11.3489 109.55 11.3188C109.849 10.267 110.178 9.6058 110.507 9.2752C110.837 8.9445 111.346 8.7942 112.034 8.7942ZM114.039 2.5126H116.584L115.806 4.8569C115.626 5.3679 115.327 5.7286 114.937 5.969C114.548 6.2093 113.98 6.3296 113.291 6.3296H110.777L111.555 3.9854C111.735 3.4743 112.004 3.0836 112.393 2.8433C112.782 2.6329 113.321 2.5126 114.039 2.5126Z" fill="#4470AD"/>
<path d="M131.69 10.2069C131.181 11.3489 130.732 12.0702 130.313 12.4009C129.924 12.7315 129.355 12.9118 128.607 12.9118H128.188C128.218 12.8215 128.218 12.7315 128.248 12.6412C128.278 12.551 128.278 12.4609 128.278 12.3707C128.278 11.8898 128.098 11.4991 127.739 11.1986C127.38 10.898 126.901 10.7478 126.332 10.7478C125.284 10.7478 124.446 11.3188 123.818 12.4308C123.189 13.5429 122.86 15.0456 122.86 16.9392C122.86 19.013 123.219 20.6661 123.907 21.8681C124.596 23.0705 125.554 23.6716 126.781 23.6716C127.29 23.6716 127.918 23.5212 128.637 23.2208C129.385 22.9502 129.864 22.8 130.074 22.8C130.343 22.8 130.583 22.8601 130.792 22.9803C131.002 23.1307 131.271 23.371 131.6 23.7017C130.912 24.5733 130.104 25.2646 129.146 25.7153C128.218 26.1661 127.17 26.4066 126.033 26.4066C123.728 26.4066 121.902 25.5952 120.525 24.0024C119.118 22.3794 118.429 20.2153 118.429 17.5403C118.429 14.8054 119.148 12.6113 120.585 10.9281C122.022 9.2752 123.907 8.4336 126.242 8.4336C127.17 8.4336 128.068 8.5839 128.996 8.8843C129.924 9.1849 130.822 9.6356 131.69 10.2068V10.2069Z" fill="#4470AD"/>
<path d="M139.318 11.0183C138.36 11.0183 137.642 11.5593 137.192 12.6112C136.744 13.6632 136.504 15.2562 136.504 17.4201C136.504 19.5841 136.743 21.177 137.192 22.229C137.641 23.281 138.36 23.8219 139.318 23.8219C140.276 23.8219 140.994 23.281 141.443 22.229C141.922 21.177 142.162 19.554 142.162 17.4201C142.162 15.2862 141.922 13.6933 141.443 12.6112C140.964 11.5593 140.246 11.0183 139.318 11.0183ZM139.318 8.4336C141.563 8.4336 143.359 9.2449 144.646 10.838C145.933 12.4309 146.592 14.6249 146.592 17.42C146.592 20.215 145.933 22.4393 144.646 24.0322C143.359 25.6251 141.563 26.4065 139.318 26.4065C137.073 26.4065 135.307 25.6251 134.02 24.0322C132.732 22.4393 132.074 20.2152 132.074 17.42C132.074 14.5948 132.703 12.4008 133.99 10.8077C135.277 9.2148 137.073 8.4334 139.318 8.4334V8.4336Z" fill="#4470AD"/>
<path d="M150.687 2.3323H154.519C154.309 2.8432 154.13 3.3843 154.04 3.9553C153.92 4.5263 153.86 5.1274 153.86 5.7586V21.2971C153.86 22.1688 153.98 22.7398 154.189 23.0102C154.399 23.2808 154.818 23.461 155.417 23.5212C155.147 24.5431 154.818 25.2042 154.459 25.5349C154.1 25.8655 153.561 26.0458 152.842 26.0458H149.011C149.221 25.5048 149.4 24.9338 149.49 24.3628C149.61 23.7918 149.67 23.1907 149.67 22.5894V7.081C149.67 6.2394 149.55 5.6684 149.34 5.3679C149.131 5.0973 148.712 4.9171 148.113 4.8569C148.383 3.8651 148.682 3.1739 149.041 2.8432C149.37 2.5126 149.939 2.3323 150.687 2.3323Z" fill="#4470AD"/>
<path d="M161.423 19.9447C161.423 21.0568 161.663 21.9584 162.172 22.6497C162.651 23.3411 163.279 23.7017 164.087 23.7017C164.896 23.7017 165.554 23.371 166.033 22.6798C166.512 21.9885 166.752 21.0568 166.752 19.8847C166.752 18.7427 166.512 17.841 166.063 17.1797C165.584 16.5487 164.956 16.218 164.147 16.218C163.309 16.218 162.651 16.5487 162.142 17.2097C161.663 17.9011 161.423 18.8027 161.423 19.9447ZM166.841 24.0924C166.332 24.8438 165.704 25.3847 164.956 25.7754C164.207 26.1661 163.399 26.3464 162.471 26.3464C160.885 26.3464 159.627 25.7754 158.64 24.6032C157.652 23.4311 157.173 21.8982 157.173 20.0048C157.173 18.0812 157.682 16.5485 158.729 15.4064C159.777 14.2644 161.154 13.6934 162.89 13.6934C163.668 13.6934 164.387 13.8737 165.075 14.2043C165.734 14.5649 166.273 15.0459 166.662 15.677C166.692 15.4064 166.692 15.1961 166.722 15.0759C166.722 14.9257 166.722 14.8056 166.722 14.7153C166.722 13.3326 166.392 12.3109 165.734 11.6797C165.075 11.0486 164.028 10.718 162.591 10.718C161.902 10.718 161.244 10.778 160.586 10.8983C159.897 10.9883 159.208 11.1689 158.46 11.4092C158.789 10.6278 159.029 10.0868 159.179 9.7863C159.328 9.5157 159.508 9.3053 159.658 9.1552C159.927 8.9147 160.346 8.7344 160.975 8.6443C161.603 8.524 162.471 8.4638 163.519 8.4638C166.063 8.4638 167.889 9.0049 168.997 10.0868C170.104 11.1689 170.643 12.9722 170.643 15.4968V21.4177C170.643 22.3494 170.763 22.9204 170.972 23.191C171.182 23.4313 171.571 23.5517 172.17 23.5517C171.93 24.5434 171.631 25.2348 171.242 25.5653C170.853 25.8959 170.104 26.0764 168.967 26.0764C168.338 26.0764 167.889 26.1063 167.56 26.1364C167.26 26.1664 166.961 26.1965 166.692 26.2866C166.722 25.8959 166.782 25.5052 166.812 25.1446C166.842 24.7539 166.842 24.4233 166.842 24.0926L166.841 24.0924Z" fill="#4470AD"/>
<path d="M196.999 5.7286C196.61 6.6602 196.131 7.3215 195.592 7.7122C195.083 8.1029 194.275 8.3433 193.168 8.4936C193.257 8.2832 193.347 8.1029 193.377 7.9526C193.407 7.8024 193.437 7.6823 193.437 7.592C193.437 7.2013 193.287 6.9007 192.988 6.6903C192.719 6.4799 192.299 6.3597 191.791 6.3597C190.384 6.3597 189.306 7.111 188.498 8.5838C187.72 10.0564 187.331 12.1303 187.331 14.8052C187.331 17.7205 187.75 19.9145 188.618 21.3871C189.486 22.8298 190.773 23.5512 192.509 23.5512C193.138 23.5512 193.796 23.4308 194.455 23.2205C195.143 23.0101 195.832 22.6494 196.58 22.1985C196.58 22.2585 196.58 22.3189 196.61 22.4089C196.61 22.4992 196.61 22.5892 196.61 22.6193C196.61 23.8815 196.161 24.8133 195.233 25.4445C194.305 26.0758 192.898 26.4062 191.072 26.4062C188.318 26.4062 186.163 25.4445 184.577 23.4908C182.99 21.5373 182.212 18.8323 182.212 15.406C182.212 11.9497 183.05 9.1846 184.726 7.1107C186.433 5.037 188.648 3.9851 191.372 3.9851C192.419 3.9851 193.377 4.1353 194.305 4.4058C195.233 4.6764 196.131 5.1271 196.999 5.7282V5.7286Z" fill="#4470AD"/>
<path d="M201.908 19.9447C201.908 21.0568 202.147 21.9584 202.656 22.6497C203.135 23.3411 203.764 23.7017 204.572 23.7017C205.38 23.7017 206.039 23.371 206.518 22.6798C206.997 21.9885 207.236 21.0568 207.236 19.8847C207.236 18.7427 206.997 17.841 206.548 17.1797C206.069 16.5487 205.44 16.218 204.632 16.218C203.794 16.218 203.135 16.5487 202.626 17.2097C202.147 17.9011 201.908 18.8027 201.908 19.9447ZM207.326 24.0924C206.817 24.8438 206.188 25.3847 205.44 25.7754C204.692 26.1661 203.883 26.3464 202.955 26.3464C201.369 26.3464 200.112 25.7754 199.124 24.6032C198.136 23.4311 197.657 21.8982 197.657 20.0048C197.657 18.0812 198.166 16.5485 199.214 15.4064C200.262 14.2644 201.639 13.6934 203.375 13.6934C204.153 13.6934 204.871 13.8737 205.56 14.2043C206.218 14.5649 206.757 15.0459 207.146 15.677C207.176 15.4064 207.176 15.1961 207.206 15.0759C207.206 14.9257 207.206 14.8056 207.206 14.7153C207.206 13.3326 206.877 12.3109 206.218 11.6797C205.56 11.0486 204.512 10.718 203.076 10.718C202.387 10.718 201.728 10.778 201.07 10.8983C200.381 10.9883 199.693 11.1689 198.945 11.4092C199.274 10.6278 199.513 10.0868 199.663 9.7863C199.813 9.5157 199.992 9.3053 200.142 9.1552C200.412 8.9147 200.83 8.7344 201.459 8.6443C202.088 8.524 202.956 8.4638 204.003 8.4638C206.548 8.4638 208.374 9.0049 209.481 10.0868C210.589 11.1689 211.128 12.9722 211.128 15.4968V21.4177C211.128 22.3494 211.247 22.9204 211.457 23.191C211.666 23.4313 212.055 23.5517 212.654 23.5517C212.415 24.5434 212.115 25.2348 211.726 25.5653C211.337 25.8959 210.589 26.0764 209.451 26.0764C208.822 26.0764 208.374 26.1063 208.044 26.1364C207.745 26.1664 207.446 26.1965 207.176 26.2866C207.206 25.8959 207.266 25.5052 207.296 25.1446C207.326 24.7539 207.326 24.4233 207.326 24.0926V24.0924Z" fill="#4470AD"/>
<path d="M219.314 8.5839C219.254 9.1549 219.194 9.7559 219.164 10.4172C219.134 11.0785 219.134 11.7998 219.134 12.5812C219.613 11.0183 220.122 9.9664 220.661 9.3953C221.199 8.8243 221.918 8.5238 222.816 8.5238C222.936 8.5238 223.145 8.5238 223.415 8.5238C223.714 8.5537 223.953 8.5537 224.103 8.5537C224.372 8.5537 224.552 8.5537 224.702 8.5238C224.851 8.5238 224.971 8.5238 225.091 8.4937C224.851 9.786 224.582 10.6577 224.283 11.1385C224.013 11.6495 223.594 11.9502 223.085 12.1002C222.906 12.1603 222.636 12.2205 222.277 12.2807C221.589 12.3707 221.11 12.521 220.81 12.7013C220.451 12.9117 220.182 13.2723 220.002 13.7232C219.823 14.174 219.733 14.715 219.733 15.4063V21.2972C219.733 22.1387 219.852 22.7099 220.122 23.0103C220.361 23.3108 220.81 23.4911 221.499 23.5212C221.229 24.513 220.9 25.1742 220.541 25.5048C220.152 25.8656 219.613 26.0459 218.895 26.0459H214.794C215.063 25.5349 215.243 24.9639 215.362 24.3929C215.512 23.8218 215.572 23.2208 215.572 22.5895V13.1823C215.572 12.4909 215.482 12.0102 215.272 11.7997C215.063 11.5893 214.644 11.4391 214.045 11.409C214.285 10.4172 214.554 9.7259 214.883 9.3352C215.213 8.9445 215.662 8.7642 216.23 8.7642C216.41 8.7642 216.619 8.7642 216.889 8.7642C217.158 8.7942 217.368 8.7942 217.458 8.7942C217.817 8.7942 218.146 8.7642 218.475 8.7341C218.775 8.7042 219.044 8.6441 219.314 8.5839Z" fill="#4470AD"/>
<path d="M230.678 8.5839C230.619 9.1549 230.559 9.7559 230.529 10.4172C230.499 11.0785 230.499 11.7998 230.499 12.5812C230.978 11.0183 231.486 9.9664 232.025 9.3953C232.564 8.8243 233.282 8.5238 234.18 8.5238C234.3 8.5238 234.51 8.5238 234.779 8.5238C235.078 8.5537 235.318 8.5537 235.468 8.5537C235.737 8.5537 235.917 8.5537 236.066 8.5238C236.216 8.5238 236.336 8.5238 236.455 8.4937C236.216 9.786 235.946 10.6577 235.647 11.1385C235.378 11.6495 234.959 11.9502 234.45 12.1002C234.27 12.1603 234.001 12.2205 233.642 12.2807C232.953 12.3707 232.474 12.521 232.175 12.7013C231.816 12.9117 231.546 13.2723 231.367 13.7232C231.187 14.174 231.097 14.715 231.097 15.4063V21.2972C231.097 22.1387 231.217 22.7099 231.486 23.0103C231.726 23.3108 232.175 23.4911 232.863 23.5212C232.594 24.513 232.265 25.1742 231.906 25.5048C231.516 25.8656 230.978 26.0459 230.259 26.0459H226.158C226.428 25.5349 226.607 24.9639 226.727 24.3929C226.877 23.8218 226.937 23.2208 226.937 22.5895V13.1823C226.937 12.4909 226.847 12.0102 226.637 11.7997C226.428 11.5893 226.009 11.4391 225.41 11.409C225.649 10.4172 225.919 9.7259 226.248 9.3352C226.577 8.9445 227.026 8.7642 227.595 8.7642C227.775 8.7642 227.984 8.7642 228.253 8.7642C228.523 8.7942 228.733 8.7942 228.822 8.7942C229.181 8.7942 229.511 8.7642 229.84 8.7341C230.139 8.7042 230.409 8.6441 230.678 8.5839Z" fill="#4470AD"/>
<path d="M243.43 11.0183C242.472 11.0183 241.753 11.5593 241.304 12.6112C240.855 13.6632 240.616 15.2562 240.616 17.4201C240.616 19.5841 240.855 21.177 241.304 22.229C241.753 23.281 242.472 23.8219 243.43 23.8219C244.387 23.8219 245.106 23.281 245.555 22.229C246.034 21.177 246.273 19.554 246.273 17.4201C246.273 15.2862 246.034 13.6933 245.555 12.6112C245.076 11.5593 244.358 11.0183 243.43 11.0183ZM243.43 8.4336C245.675 8.4336 247.471 9.2449 248.758 10.838C250.045 12.4309 250.704 14.6249 250.704 17.42C250.704 20.215 250.045 22.4393 248.758 24.0322C247.471 25.6251 245.675 26.4065 243.43 26.4065C241.185 26.4065 239.419 25.6251 238.131 24.0322C236.844 22.4393 236.186 20.2152 236.186 17.42C236.186 14.5948 236.815 12.4008 238.102 10.8077C239.389 9.2148 241.185 8.4334 243.43 8.4334V8.4336Z" fill="#4470AD"/>
<path d="M254.799 2.3323H258.631C258.421 2.8432 258.242 3.3843 258.152 3.9553C258.032 4.5263 257.972 5.1274 257.972 5.7586V21.2971C257.972 22.1688 258.092 22.7398 258.301 23.0102C258.511 23.2808 258.93 23.461 259.529 23.5212C259.259 24.5431 258.93 25.2042 258.571 25.5349C258.212 25.8655 257.673 26.0458 256.954 26.0458H253.123C253.333 25.5048 253.512 24.9338 253.602 24.3628C253.722 23.7918 253.782 23.1907 253.782 22.5894V7.081C253.782 6.2394 253.662 5.6684 253.452 5.3679C253.243 5.0973 252.824 4.9171 252.225 4.8569C252.495 3.8651 252.794 3.1739 253.153 2.8432C253.482 2.5126 254.051 2.3323 254.799 2.3323Z" fill="#4470AD"/>
<path d="M263.649 2.3323H267.481C267.271 2.8432 267.092 3.3843 267.002 3.9553C266.882 4.5263 266.822 5.1274 266.822 5.7586V21.2971C266.822 22.1688 266.942 22.7398 267.151 23.0102C267.361 23.2808 267.78 23.461 268.379 23.5212C268.109 24.5431 267.78 25.2042 267.421 25.5349C267.062 25.8655 266.523 26.0458 265.804 26.0458H261.973C262.183 25.5048 262.362 24.9338 262.452 24.3628C262.572 23.7918 262.632 23.1907 262.632 22.5894V7.081C262.632 6.2394 262.512 5.6684 262.302 5.3679C262.093 5.0973 261.674 4.9171 261.075 4.8569C261.345 3.8651 261.644 3.1739 262.003 2.8432C262.332 2.5126 262.901 2.3323 263.649 2.3323Z" fill="#4470AD"/>
<path fill-rule="evenodd" clip-rule="evenodd" d="M79.1571 28.8649C78.9573 27.1624 69.6495 30.6277 68.3592 31.0101C67.5541 31.2485 61.9565 35.0126 61.3959 35.4508C56.9546 38.9239 45.4307 45.3007 40.0787 45.8466C34.2377 46.4421 34.0161 46.0764 28.1994 45.7753C23.7834 45.5467 24.6862 47.2805 20.0448 44.6405C18.1358 43.5547 4.09856 48.3967 3.88574 47.2411C5.73643 46.3986 13.4999 42.9255 14.5768 41.7486C16.095 40.0899 21.0996 38.2207 22.9023 37.091C25.2162 35.6408 24.4469 37.2734 25.5532 34.8205C26.2887 33.1897 26.9395 34.2209 28.0696 32.2214C28.7363 31.0414 38.992 28.4921 41.0923 27.7244C43.4417 26.8653 47.0724 27.3507 50.5093 25.647C52.5445 24.638 53.9102 25.9873 56.0561 26.2425C58.4809 26.5307 58.9959 27.2543 62.3066 27.2833C66.1038 27.3166 66.8749 27.3174 70.397 27.0263C71.7285 26.9162 82.0061 26.9644 82.0857 27.477C81.7752 27.623 82.5752 27.774 80.9398 28.0972C80.6832 28.1477 79.1331 28.6635 79.1569 28.8647L79.1571 28.8649Z" fill="#48CAE4"/>
<path fill-rule="evenodd" clip-rule="evenodd" d="M76.4097 25.6886C76.0612 26.0864 76.0819 25.8102 75.2445 25.2931C71.6302 23.0617 73.0713 23.3095 68.5178 21.9851C66.941 21.5263 67.1534 21.1322 65.2787 21.1816C62.8286 21.2462 63.2055 20.9281 60.7995 21.8331C57.4455 23.0948 54.2786 24.7173 51.4464 26.8921C50.4735 27.6392 51.9341 26.6282 52.1121 26.5847C53.9364 26.1387 55.5812 26.2133 57.3114 27.0026C57.6843 27.1726 59.9698 28.114 60.2453 28.1436C62.0649 28.3383 62.6856 28.5556 64.4612 28.3142C66.1626 28.0829 67.9652 28.3838 69.9256 28.2408C70.7598 28.1801 74.5812 27.8864 75.1759 27.0666C75.5301 26.5779 75.8323 26.6488 76.0882 25.9906C76.1149 25.9215 76.3696 25.7344 76.4097 25.6888V25.6886Z" fill="#FEDDD8"/>
<path fill-rule="evenodd" clip-rule="evenodd" d="M64.8633 24.8855C64.6273 24.8508 63.6712 25.213 63.6639 25.5558C63.6604 25.7098 63.6065 25.6955 63.6318 26.0009C63.6568 26.3008 63.8049 27.0483 64.0928 27.1574C64.1925 27.1952 64.5054 27.5413 64.7392 27.6291C65.0334 27.74 65.057 27.9787 65.5079 28.013C66.4328 28.0841 67.2993 28.2669 68.0359 27.521C68.1732 27.3815 68.5352 26.2285 68.2015 26.0265C67.8902 25.8381 67.6644 25.6829 67.3667 25.4794C67.1858 25.3554 66.0912 25.1658 65.7488 25.0573C65.6104 25.0136 64.9199 24.8937 64.8633 24.8855Z" fill="white"/>
<path fill-rule="evenodd" clip-rule="evenodd" d="M58.9759 0.167664C58.2371 1.30146 54.3606 2.24283 54.2865 2.77479C53.9699 5.04689 53.6153 2.8988 52.268 4.9807C51.0155 6.91592 49.105 8.35064 47.1656 9.5108C46.9054 9.66667 46.8097 10.1915 45.7369 10.8389C43.9841 11.8969 46.9546 12.6493 44.0364 14.4515C42.1171 15.637 43.4797 14.5502 41.8701 16.0828C41.8607 16.0917 40.2951 17.9234 41.4428 17.9763C42.956 18.0462 39.0863 20.6701 38.6939 21.1344C38.3006 21.5998 38.7901 20.7526 39.4666 21.9734C41.5338 22.1654 39.9686 21.6104 41.1737 22.6608C41.6666 23.0903 41.6852 22.2602 42.2762 23.9773C42.9478 25.9291 44.3432 25.4896 40.6652 25.1485C33.1137 24.4486 38.325 24.1452 34.6222 23.0517C32.6859 22.4801 33.6022 20.8314 30.7713 21.1013C25.2825 21.6247 27.5558 19.1616 24.5161 18.6795C23.0501 18.4472 19.6074 17.6868 20.7246 19.0331C22.0243 20.5992 19.7069 20.622 19.1602 22.4271C18.6959 23.9605 16.7681 26.0884 15.3442 24.6545C14.975 24.2825 12.7072 27.8821 14.6372 28.4941C16.1371 28.9697 13.7914 31.4379 14.0911 32.7035C12.825 33.006 16.3662 32.4979 16.4649 32.5047C16.4608 32.6328 17.0617 33.5227 17.9494 33.2601C21.4422 32.2269 17.7215 33.8158 21.9297 35.2785C24.8302 36.2865 23.2743 35.551 23.8343 36.6853C24.2672 36.5817 24.0727 35.9615 25.1094 35.6017C27.6711 34.7126 26.9348 32.3637 34.4906 30.8573C37.4053 30.2761 39.9612 30.4085 43.3607 29.6822C44.558 29.4265 47.6303 30.2242 47.9658 29.4324C48.4315 28.3333 49.517 28.1495 50.4277 27.2369C50.2454 27.0451 52.8499 25.02 53.8464 24.8398C53.8705 24.8353 54.9472 24.0447 56.2518 23.6739C56.9226 23.4835 58.7354 22.7056 57.2713 22.1471C56.3435 21.793 58.3285 20.4267 58.3698 19.8719C58.5535 17.4027 64.4051 17.7786 63.0498 16.3749C60.8799 14.1275 62.6657 13.8965 62.576 10.8231C62.4378 6.08897 64.4159 8.28895 62.9371 2.05059C62.6195 0.710662 62.1233 3.48388 60.0579 0.688803C59.8164 0.361942 58.7505 0.515363 58.9769 0.168072L58.9759 0.167664Z" fill="#48CAE4"/>
<path fill-rule="evenodd" clip-rule="evenodd" d="M23.4269 41.7835C23.0597 42.6255 21.2584 42.6627 19.9902 43.7406C19.7064 43.982 16.1475 44.8966 18.4173 44.4703C18.7298 44.4116 20.8006 45 22.1777 44.855C22.8452 44.7845 27.818 47.3293 30.2191 46.6768C30.2276 46.6827 32.5609 47.171 32.8093 46.9454C33.1682 46.6202 36.8663 46.6633 38.7506 45.8496C40.7736 44.9759 43.032 45.5832 45.7963 43.9702C47.7129 42.8523 58.3889 40.0456 58.4255 38.3212C60.8496 36.5343 61.9981 34.2401 64.8813 32.5302C66.6272 31.4951 67.166 30.6471 69.399 30.8005C69.7868 30.8269 71.0948 30.4185 72.6983 30.5386C72.9553 30.558 79.7794 29.6197 76.3012 28.7427L76.0569 28.681C74.5067 28.5823 71.7347 27.9558 70.5589 28.3897C69.3498 28.8359 60.0337 28.3094 59.2892 27.9501C57.0094 26.8504 54.706 24.1693 52.0673 27.1344C51.3552 27.9346 50.5672 27.7235 49.5475 29.1061C48.5056 30.5194 48.6793 28.7687 51.4527 30.1198C54.0529 31.3862 53.1125 29.8634 56.4049 30.7635C56.2287 32.4264 57.3551 31.5993 57.55 32.7474C57.5549 32.7766 58.4265 33.5676 57.2257 34.6201C54.6605 36.8681 52.5217 36.0765 51.4877 36.6566C48.2573 38.4679 45.2241 39.6656 41.4874 39.4321C39.5325 39.31 36.0456 41.2417 33.0632 41.4603C30.3666 41.6578 26.3645 42.1271 23.6806 42.125C23.4993 42.1248 23.5396 42.0619 23.4267 41.7839L23.4269 41.7835Z" fill="#FEDDD8"/>
<path fill-rule="evenodd" clip-rule="evenodd" d="M66.2708 24.8357C65.9569 24.4962 64.6252 24.5841 63.7021 23.3998C63.6032 23.2729 63.6954 23.3459 63.5829 23.4838C62.8791 23.2907 62.2002 23.1702 61.7587 22.6129C61.7389 22.5882 61.6575 22.8546 61.4081 22.693C60.5717 22.1512 60.8868 23.6868 59.5959 22.0911C59.45 21.9105 58.5993 22.7673 57.796 22.7412C57.2438 22.7234 54.0054 24.9812 53.8196 25.0255C52.6926 25.2948 51.3115 25.2864 54.0458 25.3979C55.0872 25.4406 56.4786 25.6135 57.6024 26.1479C57.6542 26.8729 61.9343 27.5667 62.8061 27.9197C63.8244 28.3321 62.7424 26.9244 63.3929 26.1561C63.9394 25.5109 63.2331 24.7534 65.6796 24.744C65.8674 24.7434 66.1205 24.6629 66.2771 24.7487L66.2708 24.8353V24.8357Z" fill="#CFE3E2"/>
<path fill-rule="evenodd" clip-rule="evenodd" d="M48.9377 30.5138C48.1131 29.8231 47.425 30.3254 46.4258 29.1417C45.371 27.8923 44.6957 29.0674 42.5578 27.9665C42.1836 27.7738 38.8057 27.5064 38.4826 27.6419C38.9663 27.6864 34.9611 27.753 34.482 27.9217C33.6997 28.1973 30.2007 29.2245 29.7442 29.2903C28.1781 29.516 29.9606 29.4061 28.4799 29.7485C24.9518 30.5644 27.524 30.1454 25.3649 30.9131C23.1292 31.708 23.8696 31.4138 22.2407 32.5536C20.8582 33.5207 21.2006 33.5478 19.6382 34.1297C18.2632 34.6418 22.0098 33.5423 21.2692 34.5168C20.3782 35.6894 20.8037 35.2353 21.6879 35.4418C22.0425 35.5245 21.692 35.6749 21.8755 36.1701C22.0621 36.6737 23.7675 35.3221 23.6914 36.4336C23.6525 37.003 24.0647 36.6583 24.4619 37.1396C24.6873 37.4124 25.9472 36.9499 26.1103 36.8786C28.3083 35.9204 27.5846 35.7333 30.3767 34.8888C32.793 34.1576 34.5353 33.6512 36.8381 32.6267C39.3657 31.5021 43.2927 31.1376 46.0701 31.0776C46.9177 31.0594 48.2476 30.9566 49.0913 30.6864C49.0889 30.6825 48.732 30.3421 48.9373 30.514L48.9377 30.5138Z" fill="#0077B6"/>
<path fill-rule="evenodd" clip-rule="evenodd" d="M42.8821 27.3047C42.523 26.5476 41.4918 26.8524 40.5016 26.549C39.692 26.3012 40.8267 26.8148 40.0184 26.4058C38.1909 25.4814 37.4649 26.8428 35.8089 26.3288C34.8891 26.0432 31.7672 26.7687 30.7751 26.8796C29.2882 27.0459 28.4866 26.9956 26.645 27.8234C24.68 28.7069 19.9892 30.4912 18.2972 31.2961C17.4927 31.6787 14.5548 29.2736 14.1273 29.8387C14.2807 29.7429 15.1851 29.977 15.367 29.8849C14.7322 30.6324 12.2736 30.633 15.1212 31.0614C15.0101 31.5676 13.5232 32.385 14.0746 32.7864C14.0809 32.9265 13.414 33.6597 15.1778 32.9517C15.9745 32.6317 15.9501 32.8679 16.8144 32.3135C17.5479 31.8428 17.7835 31.9233 18.2323 31.6877C18.0836 33.3821 16.1277 33.1492 19.776 32.6107C21.609 32.3404 22.4765 31.661 21.2464 33.0272C21.0222 33.2763 21.5184 33.3719 22.0419 32.8877C23.0409 31.9637 23.3205 32.052 24.7935 31.6714C26.4957 31.2315 26.1305 31.4881 27.4031 30.8105C28.7208 30.1086 31.8986 29.3936 33.3477 29.0534C34.7037 28.7353 33.8427 28.8015 35.3343 28.7223C36.9432 28.6367 37.4102 28.4755 39.0517 28.5102C39.0704 28.5106 43.8381 28.6728 43.6514 28.3578C43.28 27.7302 43.2151 28.4312 43.1132 27.4949C43.113 27.4927 42.7382 27.0013 42.8821 27.3045V27.3047Z" fill="#ADE8F4"/>
<path fill-rule="evenodd" clip-rule="evenodd" d="M66.0275 24.7125C65.4939 24.7221 64.5368 24.3605 64.0881 24.1395C64.0332 24.1123 63.4712 23.9166 63.552 24.0304C63.9284 24.5618 63.2721 24.2014 62.941 24.3464C62.9669 24.4986 63.0578 24.4635 62.6521 24.4678C61.6964 24.4784 60.8096 23.9015 61.4004 24.4674C61.7829 24.8339 61.6275 24.489 61.8981 24.9979C61.9404 25.0776 62.1795 25.2902 62.1689 25.3532C62.0293 25.3926 62.6014 25.9217 62.7251 26.2251C62.868 26.575 63.5225 26.9742 63.7781 26.9909C63.8389 25.8608 63.1384 25.0063 64.9577 25.0143C65.219 25.0153 65.8591 24.9315 66.0898 24.8284L66.0279 24.7123L66.0275 24.7125Z" fill="#BDE6E4"/>
<path fill-rule="evenodd" clip-rule="evenodd" d="M62.7331 2.8641C63.8698 3.11456 63.5892 7.15109 62.9988 8.47182C62.766 8.99193 63.1329 9.86118 62.5502 11.4622C61.3328 14.806 61.3754 12.5917 63.0452 16.2519C63.4307 17.0967 62.4159 17.2327 61.1994 17.7218C60.1367 18.149 58.909 19.3363 58.6402 20.3906C58.4846 21.0019 56.9063 22.1716 56.5029 21.9177C55.4787 21.2736 50.3297 21.4766 49.1937 22.0423C44.7369 24.2617 45.4448 23.1403 49.3345 21.6699C50.2613 21.3195 54.1395 18.5298 54.6436 18.7496C54.9263 18.5526 57.9092 16.4742 57.0532 16.2403C57.3306 16.2319 58.6183 16.0993 57.9702 15.5784C56.7039 14.5608 58.0736 14.037 58.5265 12.9382C59.0773 11.6017 60.474 12.1214 58.1371 11.6193C57.0388 11.3833 57.5072 11.1292 57.849 11.2034C57.5865 10.6665 57.3523 6.94762 56.7861 5.24365C58.1131 6.96764 58.9599 7.28633 59.3971 9.13228C59.9939 9.26711 60.1163 7.61687 60.5381 6.67367C60.6311 6.46611 58.4999 -1.3896 59.5813 0.216315C60.5098 1.59506 63.0846 2.5642 62.9048 3.39382L62.7331 2.8643V2.8641Z" fill="#CAF0F8"/>
<path fill-rule="evenodd" clip-rule="evenodd" d="M56.6878 21.6255C56.6109 21.5472 56.1409 21.6012 57.4504 22.2214C58.132 22.5442 56.0182 23.2381 55.3956 23.8745C54.3364 24.957 51.8485 25.9893 51.0851 27.139C50.8076 27.5568 50.4934 27.6498 50.2303 27.8808C50.363 27.8786 49.4659 29.5605 49.2619 29.2808C48.8037 28.6518 47.6122 28.6497 46.9957 28.8775C46.472 29.0712 47.0059 28.9029 46.2024 28.2279C45.2166 27.3999 45.2207 26.7217 44.3133 26.3303C43.5474 25.9999 43.168 24.9472 42.5788 24.8878C42.5523 24.7756 43.2227 24.1035 43.8632 24.0578C44.884 23.985 45.9652 22.9442 47.1007 22.6931C49.023 22.2684 48.8281 21.5914 51.236 21.4439C52.6053 21.3603 54.3374 19.8367 56.3627 19.697C57.2894 19.6331 56.4021 21.6173 56.6225 21.699L56.6876 21.6253L56.6878 21.6255Z" fill="#0077B6"/>
<path fill-rule="evenodd" clip-rule="evenodd" d="M79.1571 28.8649C79.0559 28.8302 79.2494 28.7869 79.0539 28.8486C78.9552 28.8798 79.0132 28.8643 78.9689 28.9099L79.1571 28.8649ZM76.9542 29.0036C77.0107 28.9287 77.0382 28.9951 76.9344 28.9203H76.7855L76.6472 28.9663C76.7029 28.9977 76.614 29.0241 76.8136 28.9763L76.954 29.0036H76.9542ZM66.116 25.5479C66.0377 25.5013 66.1992 25.4684 65.9931 25.526L66.0653 25.6143C66.3064 25.8778 66.5956 26.1877 66.9958 26.1857C66.927 25.896 66.866 25.7279 66.7113 25.6022C66.5337 25.4582 66.4242 25.4743 66.116 25.5479ZM64.5465 25.0754C64.2808 25.1387 64.0566 25.1945 63.9089 25.326C63.6328 25.5718 63.8511 26.0652 63.9913 26.3111C64.2966 26.8476 63.7904 26.3618 64.6073 27.1356C64.9534 27.4635 65.3288 27.6982 65.8228 27.7712C66.7239 27.9042 67.7305 27.5462 68.0078 26.6096C68.0485 26.4721 68.0645 26.3487 68.0973 26.2216L67.5919 25.9328C67.6796 26.3465 67.7337 26.561 67.5579 26.8149C67.2851 27.209 65.4582 28.1499 64.6688 26.0521C64.5943 25.8545 64.5658 25.7808 64.5536 25.564C64.5408 25.3358 64.5679 25.278 64.5465 25.0752V25.0754ZM41.9757 27.5268L42.0803 27.5591L41.9757 27.5268ZM67.4599 21.4366L67.5642 21.4691L67.4599 21.4366ZM67.3545 21.4119L67.4599 21.4366L67.3545 21.4119ZM55.855 23.8298L55.8243 23.868L55.7214 23.8948L55.6644 23.9561C55.5818 24.0135 55.5655 23.9765 55.6522 24.0221L55.7264 23.9412L55.8286 23.9279L55.9134 23.8468C56.1395 23.7926 55.996 23.8311 56.0388 23.7669L55.855 23.8296V23.8298ZM67.3545 21.4119L67.0515 21.3169C65.5129 20.9929 64.754 21.0511 63.1776 21.1557C61.2641 21.283 58.8779 22.1857 57.219 23.046C57.0013 23.1587 56.8376 23.2697 56.615 23.3978C56.4947 23.467 56.4253 23.4995 56.3075 23.5706L56.0386 23.7671C56.2565 23.7099 56.9694 23.2993 57.2732 23.16C57.6856 22.971 58.1491 22.7536 58.5924 22.5651C59.3513 22.2429 60.7176 21.7608 61.6169 21.6721L63.1186 21.4482C64.4468 21.3197 65.34 21.255 66.656 21.3731C66.8542 21.3908 67.1583 21.4419 67.3545 21.4119ZM40.113 26.3761L40.1022 26.3934C40.1028 26.3924 40.1187 26.3796 40.113 26.3761ZM39.9138 26.3736L40.0182 26.4061L39.9138 26.3736ZM35.5339 25.0829C35.5919 25.0141 35.6108 25.069 35.5168 25.011L35.4196 25.0202L35.2745 25.0355C35.3414 25.068 35.234 25.0811 35.4275 25.0521L35.5339 25.0829ZM30.4635 24.4427C30.4006 24.4039 30.2236 24.5749 30.392 24.4856C30.4309 24.4648 30.5617 24.5034 30.4635 24.4427ZM35.0511 23.047L35.0403 23.0644C35.0411 23.0633 35.0568 23.0507 35.0511 23.047ZM34.8989 23.0335L34.8881 23.0511C34.8887 23.0499 34.9046 23.0372 34.8989 23.0335ZM34.6997 23.0313L34.8041 23.0637L34.6997 23.0313ZM34.5475 23.0178C34.6108 23.0537 34.4765 23.0846 34.6997 23.0313C34.6365 22.9953 34.7707 22.9645 34.5475 23.0178ZM34.4421 22.9931L34.5475 23.0178L34.4421 22.9931ZM27.5393 23.8443C27.6528 23.7794 27.673 23.8072 27.5344 23.7961L27.4185 23.753L27.2821 23.8065C27.3399 23.8394 27.2262 23.8697 27.441 23.8186L27.5395 23.8443H27.5393ZM28.0052 23.085L28.1096 23.1175L28.0052 23.085ZM34.4419 22.9931C34.0733 22.7996 32.2476 22.7052 31.0712 21.5528C31.0541 21.5361 30.8814 21.3526 30.871 21.3393C30.7746 21.2149 30.7288 21.2444 30.9212 21.1455C30.9634 21.124 31.2458 21.0176 31.2875 21.0039C31.5062 21.2074 32.1373 21.4086 32.5117 21.5594L33.8149 21.9867L36.1329 22.4603C36.3164 22.4901 36.4119 22.5277 36.5952 22.5571C37.1346 22.6433 37.8493 22.8593 38.4035 23.011C39.9909 23.4456 42.8667 24.6029 44.0966 25.6372C44.2663 25.78 44.6588 26.0825 44.756 26.2633C45.1532 26.1591 45.7377 25.828 46.78 25.5802C48.1058 25.2652 50.5154 24.9361 51.8367 25.1867C53.3451 25.4729 52.8774 25.4944 53.4373 25.1007C53.6992 24.9164 53.9045 24.7677 54.158 24.5792C54.8971 24.028 54.9403 24.0407 55.6788 23.5849C56.9108 22.8247 57.7102 22.3888 59.0823 21.8202C60.2284 21.3453 62.0425 20.8476 63.3194 20.7267C63.6818 20.6926 63.9591 20.6899 64.3174 20.6697C65.2855 20.6153 65.2501 20.5682 66.2312 20.6897C67.2375 20.8141 68.6088 21.1332 69.5378 21.5798C69.8595 21.7342 70.6729 22.19 70.957 22.407C71.2119 22.6021 72.3907 23.5963 72.4363 23.8656C72.4666 24.0447 72.4876 24.2063 72.5364 24.4121C72.1539 24.1369 72.5584 24.0629 70.7871 23.4037C70.1146 23.1534 69.4924 22.8999 68.7917 22.7308C68.6072 22.6862 68.4534 22.636 68.28 22.5837C67.1007 22.2282 65.563 22.1665 64.3162 22.1763C62.8952 22.1878 60.3914 22.7559 58.9916 23.2141C57.6042 23.6684 56.3374 24.3499 55.0973 25.0382C55.0054 25.0893 54.9616 25.1136 54.8575 25.1718L54.6251 25.3506C55.9763 25.0276 58.2349 25.5908 59.6016 26.0043L60.647 26.2625C61.156 26.3383 62.8958 26.7195 63.4262 26.6386C63.3646 26.4026 63.0865 25.9348 63.3573 25.468C64.0708 24.2372 66.4765 24.6793 67.5183 25.3313C68.1455 25.7238 69.1455 26.2165 69.586 26.8674C69.6611 26.9781 69.8349 27.3089 69.8674 27.4433C69.972 27.6249 69.9966 27.4651 69.9995 27.4615C70.1616 27.2819 71.1427 26.5804 71.3806 26.3959C71.7008 26.1483 71.5366 26.2459 71.9437 26.2278C72.4268 26.2061 72.8697 26.0886 73.2595 25.8652C74.3834 25.2212 73.4628 24.8509 74.8286 25.3195L76.0052 25.6257C76.1401 25.6507 76.2642 25.666 76.4089 25.6874C78.6771 26.0227 81.599 26.1383 84.0751 26.4701L87.1834 26.8984C87.3948 26.9471 87.2699 26.8653 87.36 27.003C86.9543 26.9148 86.912 27.0137 86.4436 27.1217C85.6878 27.2964 84.1644 27.82 83.3748 28.0055C82.68 28.1689 81.9013 28.3969 81.2116 28.5225L79.1564 28.8639L80.9705 28.8508C81.3518 28.8314 81.5276 28.7938 81.949 28.696C82.432 28.5834 82.5199 28.5303 82.6808 28.2214C82.7073 28.3965 82.7207 28.3138 82.646 28.4414C82.5437 28.6159 82.2204 28.7454 82.0607 28.8049C81.0602 29.1781 79.9131 29.2427 78.8592 29.3493L74.6239 29.8429C73.9348 29.9389 73.1771 30.0022 72.4939 30.1101C72.1033 30.1718 71.7979 30.2539 71.4052 30.315C71.2109 30.3452 71.1303 30.3313 70.8758 30.3932L69.171 30.7519C66.3636 31.4224 63.0724 32.9464 60.7336 34.4825C59.7027 35.1595 58.7645 35.8831 57.7594 36.593C57.0687 37.0808 53.7824 39.3453 52.9872 39.6068C53.1099 39.4348 54.359 38.6951 54.8465 38.2979C54.9588 38.2066 55.029 38.1682 55.1423 38.0779L56.0288 37.3768C56.7576 36.8561 57.6764 36.0246 58.3623 35.5149C59.5627 34.623 60.1074 34.1049 61.4966 33.3021C65.8218 30.8028 68.2851 29.982 73.1397 29.2537L76.6472 28.9654C76.6358 28.9614 76.6148 28.9464 76.612 28.9573L76.4632 28.9381C75.6734 28.8945 74.6549 28.9307 73.8644 28.9225C73.5633 28.9193 73.2237 28.9148 72.9084 28.9111C72.2351 28.9035 69.7417 28.8637 69.2609 28.642C69.0424 28.5413 69.1718 28.5101 68.8589 28.5781C68.0971 28.7434 68.0947 28.7914 67.2247 28.8872C64.965 29.1364 65.5449 29.1131 63.2913 29.0847C62.086 29.0694 60.8484 29.0057 59.6742 28.7667C58.8945 28.6079 58.1025 28.1877 57.4913 27.6801C56.4137 26.7855 56.0384 26.5172 54.6042 26.1712C54.3769 26.1162 53.9677 25.9559 53.7641 25.9644C53.4231 25.9791 51.8997 27.1655 51.5341 27.4288C51.28 27.6118 51.0831 27.7838 50.8147 27.9511C50.5518 28.1152 50.2757 28.2745 50.0328 28.4349C49.5955 28.7234 50.0765 28.6821 49.2049 28.8903C49.2661 28.7961 49.2712 28.7838 49.3011 28.6676C49.1998 28.7182 49.2016 28.7301 49.0773 28.771C49.2053 28.4657 50.574 27.3959 50.8279 27.1536C51.1191 26.8758 51.4114 26.6453 51.7427 26.3894C51.9201 26.2523 52.6157 25.8118 52.7002 25.6112L47.0681 26.1575C46.8968 26.193 46.7198 26.2466 46.5485 26.2854C46.305 26.3403 46.2801 26.3089 46.0685 26.3479C45.7009 26.4159 45.4089 26.456 45.0697 26.5369C45.9153 27.5042 45.7522 27.2049 46.4356 27.9091C46.846 28.3317 46.9058 28.5252 47.4252 28.8474L47.8881 29.2051C47.6256 29.1977 47.4795 29.0194 47.1984 29.0206L47.2185 29.315C47.1595 29.1961 47.0863 29.1035 46.9943 29.0265C46.8712 28.9238 46.8348 28.925 46.6728 28.896C46.4217 28.851 46.1634 28.8126 45.9056 28.773C45.4154 28.698 44.8942 28.6398 44.3707 28.593C43.8671 28.5483 43.3837 28.439 42.8553 28.3812C42.3104 28.3217 41.8231 28.2733 41.266 28.2243C40.7265 28.1769 40.195 28.1732 39.608 28.2449C37.903 28.4535 37.5189 28.5906 35.8629 28.9863C35.5476 29.0615 35.1803 29.1313 34.8751 29.222C34.6708 29.2827 34.6887 29.3115 34.4653 29.3716C32.9941 29.7681 32.1178 30.172 30.8008 30.8541C30.3271 31.0994 29.8989 31.3914 29.4093 31.6463C27.0022 32.8998 26.8418 33.2293 24.7755 34.5848C23.5102 35.4148 23.7834 35.1446 22.5628 35.7556L22.4957 35.4722L25.4746 33.4453C26.4213 32.8318 26.5053 32.63 27.7243 31.9346L29.4146 31.0051C30.4193 30.4361 30.7988 30.1993 31.9467 29.6688C33.2136 29.0831 34.49 28.7162 36.1048 28.3301C35.6462 28.1716 31.8975 29.1135 31.6562 29.2073L29.5648 29.8892C28.8303 30.1262 28.2091 30.3783 27.5723 30.6727C25.6357 31.5673 23.4188 32.7321 21.7417 34.04C21.6261 34.1301 21.4918 34.2536 21.3905 34.2516C21.3317 34.2508 21.2522 34.2138 21.1952 34.194C21.0237 34.1348 21.1085 34.2034 20.9761 34.0902C22.244 32.973 23.5966 32.004 25.1842 31.2516C26.5094 30.6236 27.521 30.0292 28.9395 29.5029C29.3823 29.3385 29.9153 29.1352 30.3542 29.0071C30.6413 28.9234 30.7754 28.8543 31.0466 28.7904C31.3699 28.7142 31.4665 28.6382 31.787 28.563C34.4281 27.9432 35.1661 27.6686 37.9116 27.4782C38.3926 27.4449 38.8599 27.4104 39.3087 27.4247C39.83 27.4414 41.6028 27.6061 41.9755 27.5258C41.8113 27.4394 41.4249 27.3797 41.239 27.3526C37.9415 26.8725 37.2345 26.8805 33.7591 27.1166C32.834 27.1795 32.4057 27.1992 31.4954 27.3397L28.0427 28.0625C26.0138 28.5473 24.474 29.0196 22.6676 29.858C20.5057 30.8618 18.5278 31.7585 16.3947 32.831C16.0069 33.0261 15.1672 33.4267 14.6722 33.4876L14.2785 33.6018L14.248 33.3542C14.2439 33.1834 14.5231 33.137 14.8702 32.977L17.0409 31.9011C18.0377 31.4281 18.9768 30.9552 19.9779 30.4927C21.4688 29.8038 24.6133 28.3185 26.2276 27.9483C26.5611 27.8721 26.7029 27.7818 27.0614 27.698C27.779 27.5303 29.3192 27.1193 29.8569 27.0664L31.6922 26.6913C33.1603 26.4147 35.2875 26.3458 36.752 26.2925C37.7844 26.2549 38.1877 26.2888 39.137 26.3297C39.3852 26.3405 39.6858 26.4073 39.9134 26.3724C39.7216 26.2719 39.4809 26.2719 39.2465 26.2165C36.1384 25.4844 32.3337 25.8153 29.2339 26.3808C28.9485 26.4331 28.6291 26.5512 28.3456 26.5861C27.354 26.7083 24.8817 27.3217 23.8984 27.5565C23.2827 27.7035 22.8143 27.8672 22.1685 28.0188C21.8343 28.0972 21.6937 28.1855 21.3352 28.2694C20.0127 28.5783 17.2582 29.2958 16.141 29.2788C15.8511 29.2745 15.6832 29.2418 15.4175 29.2151C14.9223 29.1652 14.4513 29.0715 14.0358 28.9162C14.073 28.7716 14.1044 28.6447 14.0761 28.4578L15.1965 28.5283C15.5957 28.5446 16.0083 28.5393 16.3911 28.5438C17.4613 28.5562 20.9736 27.8182 21.8137 27.4776L24.5521 26.7524C25.4076 26.5479 26.5348 26.2092 27.3713 26.0813C27.6001 26.0464 27.7491 26.0396 28.0425 25.9683L29.4179 25.6886C30.0535 25.5324 32.1048 25.2782 32.7182 25.2145L35.2273 25.049C35.1846 25.0321 35.1988 25.0325 35.1246 25.0204C35.023 25.0043 35.0873 25.0135 34.9711 25.0086C34.8556 25.0039 34.7557 25.0002 34.6578 24.9963C34.443 24.9877 34.28 24.9808 34.0721 24.97C31.9499 24.8578 29.6559 25.2688 27.6166 25.485C27.1721 25.532 26.6921 25.6464 26.2821 25.698L24.2349 26.0265C23.6522 26.1185 22.7358 26.2012 22.2133 26.313C21.328 26.5023 20.4025 26.5983 19.539 26.6819C18.5062 26.782 16.8724 26.9324 15.8669 26.6498C15.6238 26.5814 15.0429 26.3642 14.8869 26.2194L15.0661 25.8864C17.1357 26.2997 19.2639 26.0351 21.3606 25.8053C21.7264 25.7653 22.0251 25.6762 22.3911 25.6302L25.2903 25.2212C26.1574 25.1079 27.3792 24.8623 28.309 24.7483L30.2639 24.4396C29.9882 24.5054 29.6425 24.4676 29.3576 24.478C29.0038 24.4909 28.7489 24.5142 28.4077 24.522C27.8099 24.5354 27.1784 24.5424 26.532 24.5704C25.9251 24.5965 25.2278 24.6752 24.607 24.6989C22.3409 24.7853 18.9103 24.9941 16.9036 23.7808C16.7479 23.6868 16.353 23.4294 16.2796 23.293L16.5524 22.817C16.7945 22.8848 16.9068 22.9508 17.1213 23.0325C19.8245 24.0627 21.3606 24.0932 24.3224 23.9851L27.2815 23.8057L26.0481 23.7228C24.9043 23.5663 24.8599 23.6631 23.6699 23.2817C23.4794 23.2206 23.3116 23.1575 23.1378 23.1028C22.5142 22.9058 21.0957 22.2633 20.609 21.8603C20.3166 21.618 20.0291 21.3798 19.7333 21.1287C19.5825 21.001 18.9754 20.455 18.9036 20.3218L19.0582 20.1353C19.442 20.2348 20.8127 20.8734 21.1608 21.0911C21.3167 21.1886 21.4709 21.2981 21.6298 21.3733C22.6491 21.8566 23.0569 22.1618 24.2835 22.543C24.6858 22.668 25.0044 22.8049 25.4481 22.8691C25.9539 22.9422 27.5751 23.1767 28.0048 23.0842L26.098 22.4635C25.6664 22.2928 24.3696 21.6064 23.9743 21.2151C23.0331 20.2844 22.3649 18.9935 22.0634 17.7214C22.1547 17.647 22.2288 17.5947 22.3704 17.5484L24.8432 20.5835C25.1716 20.9212 25.8634 21.2182 26.2382 21.4501C26.9729 21.9044 28.9776 22.5316 29.8439 22.6376C30.5469 22.724 31.81 22.7669 32.6104 22.8378L34.4419 22.992V22.9931ZM55.4506 15.6283L55.4398 15.6456C55.4406 15.6446 55.4563 15.6319 55.4506 15.6283ZM58.5271 13.0977L58.5163 13.1151C58.5169 13.1141 58.5328 13.1012 58.5271 13.0977ZM56.2323 16.2517C55.8481 16.2611 55.5498 16.2967 55.1411 16.3298C54.1295 16.4115 53.8048 16.4948 52.8619 16.6434C52.254 16.739 50.5459 17.0421 49.9178 17.2863L48.2173 17.8068C47.399 18.0094 45.8417 18.6256 44.8854 18.8503L43.7228 19.1794C43.5161 19.2284 43.3251 19.264 43.1352 19.342C42.8337 19.4656 42.8663 19.3988 42.5946 19.4489C42.1017 19.5398 41.9145 19.5739 41.4642 19.5904C41.0709 19.6051 40.7893 19.5788 40.4359 19.5659C40.1098 19.5541 39.7484 19.5057 39.4284 19.5073C39.5944 19.0599 39.6432 19.1792 40.1252 19.0903C41.217 18.8893 42.0162 18.9449 43.1544 18.6662C43.3592 18.6162 43.4622 18.5966 43.6528 18.5784C43.9149 18.5533 49.0379 16.9324 49.1496 16.8922L51.2456 16.3341C51.9614 16.1631 53.6754 15.8313 54.3624 15.7666C54.6593 15.7386 55.0971 15.7128 55.3563 15.6509C55.3452 15.6466 55.3248 15.6305 55.3224 15.6409L53.8275 15.4609C52.8572 15.3478 51.2161 15.643 50.1958 15.8867C49.5034 16.0522 48.9603 16.132 48.2568 16.3002C46.0435 16.8293 43.5607 17.7886 41.5016 17.1073C41.3767 17.066 41.2522 17.0115 41.1214 17.008C41.1269 16.8011 41.3216 16.5604 41.4931 16.531L43.6014 16.628C45.6285 16.5388 49.189 15.3331 50.3225 15.2217C50.7968 15.1751 51.764 14.8787 52.7488 14.7991C53.0033 14.7782 53.3234 14.785 53.5498 14.7361C53.5388 14.7318 53.5185 14.7157 53.516 14.7261L53.2597 14.6859C51.1874 14.5106 50.2126 14.7553 48.153 14.8338C47.2818 14.8669 46.3979 14.8679 45.5318 14.789C44.9998 14.7406 43.5731 14.389 43.2644 14.1022C43.4085 14.0242 43.44 13.9351 43.4907 13.7989C43.6712 13.8383 43.8931 13.8362 44.0946 13.861C47.3792 14.2663 48.0303 14.131 51.305 13.9474C51.7939 13.9198 52.7907 13.8904 53.2796 13.9337C53.4937 13.9529 53.7437 14.0001 53.9217 13.9993C53.6957 13.8062 50.8676 12.9864 50.3359 12.8446L48.6755 12.4769C47.8002 12.2704 46.8913 12.0595 46.0972 11.6424C45.9369 11.5582 45.7678 11.4522 45.6763 11.2818C45.7288 11.1568 45.8773 11.004 45.9853 10.9088C47.2537 11.3827 48.6171 11.6162 49.9361 11.9261L52.5522 12.6334C54.4922 13.2062 54.6068 13.2391 56.1006 14.3265L56.1926 14.4125C56.1588 14.1504 56.208 14.379 56.1275 14.2922C55.7907 13.7306 55.1262 12.7844 54.6271 12.3909C54.4493 12.2508 54.3118 12.1846 54.1496 12.0573C53.9696 11.9161 53.8369 11.8501 53.6727 11.7225C53.5012 11.5893 53.3929 11.4945 53.222 11.3449C51.7384 10.0483 52.4045 10.6269 51.1634 9.13924C50.4839 8.32494 50.2189 7.80891 49.9488 6.67C50.0763 6.60095 50.3036 6.36643 50.3988 6.26326C50.5471 6.56193 50.6253 6.61689 50.796 6.85877C51.5838 7.97459 51.7423 8.13026 52.5706 9.13495C52.7232 9.32024 52.8587 9.53821 53.0086 9.72922C53.6615 10.5599 55.1065 11.4036 55.6569 11.8896C56.0575 12.2428 56.7041 13.1496 56.9362 13.6644L57.5171 15.3349C57.6601 15.1662 57.5684 15.1897 57.4947 14.9864C57.4382 14.8311 57.4209 14.7014 57.3588 14.5459C57.2011 14.1502 56.8752 12.6029 56.5482 11.8103C56.3187 11.2536 56.031 10.898 55.7075 10.4978C55.3763 10.088 55.1197 9.65405 54.8099 9.21319C54.4058 8.63812 52.8066 6.59523 52.6412 6.0745C52.5229 5.7027 52.4934 5.43406 52.5134 5.15275C52.5667 4.40465 52.5122 4.24653 53.2155 3.89454C53.4479 4.87492 53.1535 5.08575 54.0483 6.33231C54.4961 6.95601 54.9785 7.56172 55.4292 8.20319C55.805 8.73802 57.1922 10.6575 57.3863 11.0978C57.4864 11.3251 57.5582 11.5123 57.6164 11.7697C57.689 12.0896 57.7651 12.1899 57.8308 12.4671C57.9751 12.2969 58.1342 11.5041 58.1849 11.2354C58.2978 10.6369 58.2109 10.3574 57.9295 9.75415C57.7283 9.3231 57.5008 8.86447 57.2787 8.45957C56.5657 7.16091 56.6095 7.4369 55.9448 5.85714C55.5718 4.97134 55.1144 3.79158 55.3287 2.82345C55.3682 2.64552 55.4078 2.335 55.5236 2.21876C55.5728 2.16932 56.0426 1.83735 56.0992 1.80916C56.1993 2.2778 56.0184 2.30987 56.2691 3.36441C56.5275 4.45123 56.8693 5.3693 57.3279 6.34988C57.7525 7.25815 59.1491 9.53781 59.1468 10.4199C59.1446 11.2579 58.5501 12.6714 58.5515 12.9929C58.8166 12.7055 59.4478 11.2569 59.5051 11.0038C59.5678 10.7272 59.5979 10.4896 59.6642 10.2156C59.876 9.34251 59.9302 9.74945 59.9808 8.67898C60.0349 7.5368 60.1875 6.21812 59.734 5.04366C59.6396 4.79933 59.5428 4.39219 59.4435 4.14275C59.1452 3.39036 58.5926 2.26616 58.5179 1.45023C58.4805 1.04165 58.4817 0.924593 58.5558 0.587313C58.6264 0.26515 58.6343 0.344822 59.1666 0.0784302C59.2264 0.473728 59.1186 0.627966 59.3835 1.29558C59.5474 1.70988 59.6451 2.07984 59.8099 2.49802C59.9609 2.88147 60.1387 3.21814 60.2777 3.56788C61.0504 5.51312 61.0154 6.8841 60.84 8.88755C60.8203 9.11207 60.7749 9.21544 60.7123 9.41278C60.6012 9.7617 60.5151 10.0036 60.3764 10.3335C60.1804 10.7987 60.1253 11.7527 59.5332 12.673C59.1127 13.3269 58.9161 13.5129 58.5495 14.3615C57.9104 15.8405 58.0996 15.2113 58.3069 15.7492C58.7297 16.8458 58.1733 16.6383 57.4231 17.3316C56.9214 17.7951 55.7321 18.3296 55.0656 18.6145C54.4705 18.8691 51.1242 19.7788 50.2761 20.0064C49.9038 20.1063 49.5292 20.2748 49.1243 20.3825L47.9888 20.7686C46.8586 21.1957 43.6091 22.3357 42.7301 22.9583L41.8681 23.5134C41.9696 23.2403 42.8296 22.4644 43.1428 22.2462C44.3151 21.4301 46.5933 20.607 48.0242 20.1054C48.3738 19.9829 48.7923 19.8225 49.1201 19.7349C49.8529 19.5398 50.5886 19.2305 51.3435 19.054C51.5311 19.01 51.7242 18.9678 51.9105 18.921C52.1708 18.8552 52.1984 18.8017 52.4589 18.7359C52.6617 18.6848 52.8717 18.644 53.0747 18.5927L54.7537 18.0991C55.4813 17.825 56.8577 17.2675 57.487 16.8066L57.5696 16.7367C57.5753 16.7318 57.5875 16.7212 57.5952 16.7124C56.769 16.7163 55.772 17.0838 54.9077 17.1686C54.4819 17.2105 53.9451 17.4101 53.5069 17.4901C50.8594 17.9731 49.7858 18.5116 47.339 19.6413C46.5678 19.9974 45.8708 20.3191 45.0999 20.675C43.2378 21.5351 40.902 22.2501 38.8984 21.8121C38.6133 21.7498 38.0011 21.6891 37.8231 21.5373C38.374 21.3559 38.006 21.1708 38.8821 21.1845C39.2668 21.1902 39.6565 21.2035 40.03 21.2102C42.7841 21.2615 44.804 20.2062 47.1851 19.063C48.3947 18.4818 50.6167 17.5316 51.904 17.2246C52.3586 17.1163 52.8131 17.0074 53.2676 16.8987C54.123 16.6944 55.7539 16.3764 56.583 16.3343C57.7877 16.2738 56.7212 16.2399 56.2323 16.2522V16.2517ZM32.9009 47.3005L32.716 49.1201C32.6248 49.3567 32.4708 49.4425 32.4527 49.602C32.6515 49.5026 33.0222 49.3162 33.1066 49.1197C33.4222 48.3835 33.7585 47.8174 34.6112 47.3906C34.4869 47.2844 34.4023 47.3355 34.2021 47.3381L33.3233 47.3314C33.1435 47.3142 33.0747 47.274 32.9009 47.3005ZM60.6402 35.6342C60.5875 35.7595 60.498 35.8232 60.4052 35.9321C60.3176 36.0348 60.2543 36.1151 60.1629 36.2256C59.3236 37.2412 57.0481 39.2183 56.052 39.9302C55.6154 40.2426 55.1435 40.5298 54.6507 40.837L51.6405 42.5625C50.4749 43.1713 47.8403 44.3459 46.6049 44.8094C43.6457 45.9187 38.3533 47.2952 34.9406 47.3118C34.7577 47.8051 34.2824 47.7859 34.0444 48.7722C33.8464 49.5922 33.554 49.6039 32.8189 50.0699L30.9497 50.9696C30.6673 51.1101 30.2649 51.2443 29.9768 51.3755C29.6228 51.5369 29.4655 51.8039 29.121 51.8944C29.5399 51.3072 29.9153 51.047 30.5526 50.684C30.7756 50.5569 30.8985 50.4335 31.1318 50.3166C30.9628 50.2582 30.4663 50.353 30.2936 50.3745C29.978 50.4139 29.6498 50.5262 29.416 50.6264C28.8838 50.8539 28.5123 51.1168 28.0354 51.3847C27.3713 51.7575 25.8524 53 25.579 53.0901C25.6451 52.9117 26.4699 51.9988 26.6532 51.82C26.8005 51.6764 26.9059 51.5624 27.0561 51.4243C27.5808 50.9412 28.4014 50.4523 29.1082 50.1138C31.0515 49.1843 31.683 50.0572 32.0307 48.8576C32.1296 48.5158 32.246 48.1189 32.4128 47.8045C32.4924 47.6542 32.6004 47.456 32.6547 47.3093C32.0258 46.9598 28.8913 46.8198 27.9723 46.6999C27.6535 46.6399 27.382 46.5896 27.0701 46.5351C24.3437 46.0572 21.9427 45.1825 19.3317 44.2993C19.1502 44.2378 18.621 44.0666 18.4963 43.96C18.6853 43.9592 18.9113 44.0348 19.1046 44.0807C20.4263 44.3945 23.4013 44.9363 24.6845 45.1242C28.8293 45.7314 29.8653 45.7479 34.0246 45.7949C37.9242 45.8391 39.4666 45.3101 43.2036 44.4397C45.3851 43.9316 49.4584 42.0577 51.3756 41.1092C52.2302 40.6863 53.0351 40.2894 53.8939 39.8853C55.9372 38.9243 57.8524 37.7652 59.6689 36.4434C59.8325 36.3243 60.0089 36.1762 60.1409 36.0502C60.2903 35.9078 60.4299 35.7392 60.6406 35.6336L60.6402 35.6342ZM50.3239 30.469C49.764 30.4717 49.0975 30.3693 48.3646 30.392C46.9526 30.4359 45.424 30.6704 44.0238 30.9268C43.6195 31.0008 43.2573 31.0602 42.8829 31.1511L41.6974 31.3832C41.3838 31.4582 41.0705 31.5346 40.7568 31.6077L37.0819 32.7211C35.1701 33.4477 32.8763 34.0338 31.0533 34.8782C30.2523 35.2491 28.742 35.9754 28.0235 36.3905C27.5546 36.6614 27.0443 36.8767 26.5751 37.1474C24.4554 38.3699 22.9201 39.1927 20.7537 40.3186C20.2393 40.586 17.6165 41.5568 16.929 41.7425C16.7638 41.7872 16.5742 41.8138 16.413 41.8669C15.0875 42.302 14.7276 42.2172 13.6246 42.4806C13.6755 42.4093 13.6588 42.4093 13.7564 42.3606L15.3129 41.7913C16.5495 41.2326 17.3135 40.8105 18.4814 40.244C19.0454 39.9703 19.5329 39.7122 20.009 39.415C20.4839 39.1186 20.9197 38.8424 21.4043 38.5447L24.3354 36.8103C25.5639 36.0551 27.5696 34.9568 28.8716 34.3354C29.3729 34.0963 29.9098 33.8132 30.4364 33.5699C34.9414 31.4878 41.9564 29.7072 46.6883 29.9191C47.2063 29.9423 48.0539 29.9836 48.5467 30.0949C48.7375 30.1378 48.9555 30.1742 49.1612 30.2053L50.0212 30.3734C50.1805 30.4042 50.2145 30.3744 50.3243 30.4684L50.3239 30.469ZM31.1133 36.4064C30.918 36.872 29.9609 37.5979 29.5499 37.898L28.4712 38.7623C27.9552 39.138 27.4553 39.4581 26.9348 39.8275C26.6463 40.0324 26.4243 40.1584 26.1265 40.3351C23.8009 41.7141 22.0465 42.5292 19.3486 43.1574C17.2368 43.6997 3.70564 46.6337 1.60104 47.904L0 48.9291C0.219331 48.6219 1.66391 47.4262 2.00654 47.1878C5.384 44.8362 11.5737 43.8193 15.6325 42.8356C15.906 42.729 16.3811 42.6131 16.669 42.5089C16.8352 42.4489 17.0513 42.4123 17.2267 42.37L18.8981 41.8718C19.2059 41.7706 20.1386 41.5666 20.5679 41.4127C21.4414 41.1 22.1907 40.9465 23.2182 40.5525C23.5842 40.4121 23.8685 40.3175 24.2351 40.1735C25.123 39.8254 26.1751 39.35 27.0172 38.9114C27.3328 38.7472 27.5987 38.6217 27.9141 38.4581C28.5043 38.1519 29.0207 37.7917 29.5896 37.479C29.9286 37.2926 30.1282 37.205 30.4209 36.9856C30.5412 36.8951 30.6447 36.8089 30.7538 36.7078C30.8873 36.5838 30.94 36.4933 31.1135 36.4064H31.1133ZM62.5341 2.34399C62.6002 2.59792 62.7941 2.92846 62.9044 3.39362C63.152 4.43876 63.1489 4.38749 63.1866 5.53804C63.2114 6.2982 63.2747 7.72863 63.2582 8.47183C63.2321 9.64914 62.9595 11.9039 62.6106 13.0955C62.519 13.4087 62.3642 13.7047 62.3402 14.0119C62.307 14.4344 62.3115 14.1151 62.0848 14.5768C62.0173 14.7147 62.0415 14.7282 61.9338 14.8446C61.1247 14.8485 61.7566 13.4728 61.8468 13.1819C61.9778 12.7592 62.0679 12.222 62.1332 11.7831C62.2055 11.299 62.3021 10.8798 62.3347 10.3644L62.4405 8.85364C62.4685 8.23424 62.4024 6.25387 62.3662 5.6884C62.3332 5.17624 62.3054 4.59688 62.25 4.04061C62.222 3.75991 62.2185 3.51681 62.1981 3.22059C62.1794 2.95052 62.1782 2.63837 62.1418 2.39772C62.3459 2.3491 62.3638 2.38097 62.5341 2.3446V2.34399ZM63.8285 17.0176L62.7204 17.6221C62.2163 17.8775 61.2645 18.1819 60.6594 18.3226C60.3452 18.396 60.2463 18.4626 59.9654 18.5386C58.9855 18.8035 60.3989 19.246 57.3991 21.5455C56.993 21.8566 56.2666 22.4151 55.7944 22.5281C55.8023 22.5193 55.8135 22.4958 55.8202 22.5038L58.2158 20.0762C58.5029 19.7177 58.5485 19.4791 58.6547 19.0178C58.7651 18.5383 58.8856 18.4197 59.3489 18.1576C59.814 17.8944 61.4964 17.4303 62.1367 17.2211C62.5973 17.0707 62.9507 16.8301 63.3404 16.6352C63.5351 16.8581 63.6433 16.8452 63.8285 17.0172V17.0176ZM14.6722 33.4886C14.6112 33.5689 14.7778 33.5129 14.5033 33.5983C14.4466 33.6159 14.3294 33.6349 14.2637 33.6508C14.2071 33.4124 14.2004 33.4771 14.248 33.3554L14.2785 33.603L14.6722 33.4888V33.4886ZM76.934 28.9203L76.9538 29.0036L76.8134 28.9763L76.7851 28.9201H76.934V28.9203ZM69.9999 27.4625C69.997 27.4662 69.9724 27.6259 69.8678 27.4443L69.9999 27.4625ZM27.5391 23.8443L27.4406 23.8186L27.4183 23.753L27.5342 23.7961L27.5391 23.8443ZM66.0649 25.6143L65.9927 25.526C66.1988 25.4684 66.0373 25.5013 66.1156 25.5479C66.0364 25.5671 66.0474 25.5412 66.0649 25.6143ZM35.5164 25.0108L35.5335 25.0827L35.4271 25.0519L35.4192 25.02L35.5164 25.0108ZM56.1004 14.3259L56.1275 14.2916C56.208 14.3784 56.1588 14.1498 56.1926 14.4119L56.1006 14.3259H56.1004ZM55.9128 23.8468L55.828 23.9279L55.8237 23.8678L55.8544 23.8296L55.9126 23.8468H55.9128ZM55.6518 24.0219L55.664 23.9559L55.721 23.8946L55.726 23.941L55.6518 24.0219ZM31.1133 36.4064L31.1021 36.3592L31.1664 36.3854L31.1133 36.4064ZM18.4961 43.96L18.4491 43.9712L18.4753 43.9069L18.4961 43.96ZM29.121 51.8942L29.1322 51.9414L29.0679 51.9152L29.121 51.8942ZM60.6402 35.6338L60.6289 35.5868L60.6931 35.613L60.6402 35.6338ZM25.579 53.0899L25.5902 53.1369L25.5261 53.1107L25.579 53.0899ZM49.0773 28.7716L48.9984 28.8478L49.0773 28.7716Z" fill="#555B6E"/>
<path fill-rule="evenodd" clip-rule="evenodd" d="M27.3934 40.4282C26.527 40.7614 26.9244 40.4928 27.4172 40.1281C30.7495 37.684 31.888 37.0397 35.8209 35.6875C38.7526 34.6798 41.2328 33.7321 44.3211 33.2073C46.1147 32.9023 48.131 32.6344 49.9397 32.4303C52.3768 32.1552 53.6315 32.3774 55.9827 33.0115C56.483 33.1476 55.3359 33.0542 55.294 33.0534C52.8201 33.003 51.176 33.1235 48.7263 33.46C45.7887 33.8634 43.7787 34.215 40.9284 35.1257C38.0012 36.0614 35.4116 36.9463 32.5885 38.1884C30.8579 38.9496 29.1547 39.7345 27.3936 40.4282H27.3934Z" fill="#BDE6E4"/>
<path d="M99.2519 55.9022C97.5019 55.9022 95.9179 55.5188 94.5011 54.752C93.1001 53.9686 92.0009 52.9019 91.201 51.5517C90.3999 50.1849 90 48.6513 90 46.9511C90 45.2509 90.3999 43.7258 91.201 42.3756C92.0009 41.0087 93.1086 39.9419 94.5254 39.1752C95.9433 38.3917 97.5261 38 99.2761 38C100.643 38 101.894 38.2334 103.027 38.7001C104.16 39.1501 105.127 39.8253 105.927 40.7254L104.302 42.3005C102.986 40.917 101.344 40.2253 99.3767 40.2253C98.0763 40.2253 96.9007 40.5169 95.8512 41.1004C94.8005 41.6838 93.9764 42.4923 93.3752 43.5257C92.7923 44.5425 92.5002 45.6843 92.5002 46.9511C92.5002 48.2179 92.7923 49.368 93.3752 50.4016C93.9764 51.4184 94.8005 52.2184 95.8512 52.8018C96.9007 53.3852 98.0763 53.6769 99.3767 53.6769C101.327 53.6769 102.969 52.9768 104.302 51.5767L105.927 53.1519C105.127 54.052 104.152 54.7354 103.002 55.2021C101.868 55.6689 100.618 55.9022 99.2519 55.9022ZM117.028 55.9022C115.261 55.9022 113.67 55.5188 112.253 54.752C110.837 53.9686 109.719 52.8935 108.903 51.5267C108.103 50.1598 107.703 48.6347 107.703 46.9511C107.703 45.2676 108.103 43.7424 108.903 42.3756C109.719 41.0087 110.837 39.9419 112.253 39.1752C113.67 38.3917 115.261 38 117.028 38C118.779 38 120.363 38.3917 121.779 39.1752C123.196 39.9419 124.305 41.0087 125.105 42.3756C125.905 43.7258 126.305 45.2509 126.305 46.9511C126.305 48.6513 125.905 50.1849 125.105 51.5517C124.305 52.9019 123.196 53.9686 121.779 54.752C120.363 55.5188 118.779 55.9022 117.028 55.9022ZM117.028 53.6769C118.312 53.6769 119.462 53.3852 120.479 52.8018C121.513 52.2184 122.321 51.4184 122.905 50.4016C123.505 49.368 123.804 48.2179 123.804 46.9511C123.804 45.6843 123.505 44.5425 122.905 43.5257C122.321 42.4923 121.513 41.6838 120.479 41.1004C119.462 40.5169 118.312 40.2253 117.028 40.2253C115.745 40.2253 114.578 40.5169 113.528 41.1004C112.495 41.6838 111.678 42.4923 111.078 43.5257C110.495 44.5425 110.203 45.6843 110.203 46.9511C110.203 48.2179 110.495 49.368 111.078 50.4016C111.678 51.4184 112.495 52.2184 113.528 52.8018C114.578 53.3852 115.745 53.6769 117.028 53.6769ZM137.378 55.9022C135.044 55.9022 133.227 55.2355 131.927 53.902C130.626 52.5685 129.977 50.6516 129.977 48.1513V38.2001H132.477V48.0513C132.477 51.8017 134.119 53.6769 137.402 53.6769C139.003 53.6769 140.227 53.2186 141.078 52.3018C141.928 51.3683 142.353 49.9515 142.353 48.0513V38.2001H144.778V48.1513C144.778 50.6682 144.128 52.5935 142.828 53.927C141.528 55.2438 139.711 55.9022 137.378 55.9022ZM164.957 38.2001V55.7022H162.906L152.405 42.6505V55.7022H149.905V38.2001H151.955L162.457 51.2516V38.2001H164.957ZM175.296 55.9022C173.978 55.9022 172.703 55.7022 171.47 55.3021C170.253 54.8855 169.295 54.352 168.595 53.7019L169.52 51.7517C170.186 52.3518 171.037 52.8435 172.071 53.2269C173.12 53.5936 174.195 53.7769 175.296 53.7769C176.745 53.7769 177.829 53.5353 178.546 53.0518C179.262 52.5518 179.621 51.8933 179.621 51.0766C179.621 50.4766 179.421 49.9931 179.021 49.6264C178.638 49.2431 178.155 48.9514 177.571 48.7513C177.005 48.5513 176.196 48.3263 175.145 48.0762C173.829 47.7596 172.762 47.4429 171.945 47.1261C171.145 46.8094 170.453 46.3261 169.87 45.676C169.303 45.0092 169.02 44.1175 169.02 43.0007C169.02 42.0672 169.262 41.2254 169.745 40.4754C170.244 39.7252 170.995 39.1252 171.996 38.675C172.995 38.2251 174.238 38 175.721 38C176.754 38 177.77 38.1333 178.772 38.4001C179.771 38.6668 180.629 39.0501 181.347 39.5502L180.522 41.5505C179.788 41.0838 179.004 40.7336 178.17 40.5003C177.338 40.2503 176.521 40.1252 175.721 40.1252C174.304 40.1252 173.237 40.3836 172.52 40.9004C171.82 41.4172 171.47 42.0838 171.47 42.9006C171.47 43.5007 171.67 43.9924 172.071 44.3758C172.471 44.7425 172.962 45.0342 173.546 45.2509C174.146 45.451 174.954 45.6676 175.971 45.9009C177.287 46.2177 178.346 46.5344 179.146 46.8511C179.946 47.1678 180.629 47.6512 181.197 48.3013C181.78 48.9514 182.072 49.8265 182.072 50.9266C182.072 51.8434 181.822 52.6852 181.321 53.4519C180.821 54.2021 180.062 54.8021 179.047 55.2521C178.03 55.6855 176.779 55.9022 175.296 55.9022ZM198.425 53.5269V55.7022H185.724V38.2001H198.075V40.3753H188.225V45.751H197V47.8763H188.225V53.5269H198.425ZM202.474 38.2001H204.975V53.5269H214.451V55.7022H202.474V38.2001ZM217.319 38.2001H219.82V53.5269H229.297V55.7022H217.319V38.2001ZM239.749 55.9022C237.982 55.9022 236.39 55.5188 234.974 54.752C233.557 53.9686 232.439 52.8935 231.623 51.5267C230.823 50.1598 230.423 48.6347 230.423 46.9511C230.423 45.2676 230.823 43.7424 231.623 42.3756C232.439 41.0087 233.557 39.9419 234.974 39.1752C236.39 38.3917 237.982 38 239.749 38C241.499 38 243.083 38.3917 244.499 39.1752C245.916 39.9419 247.025 41.0087 247.825 42.3756C248.625 43.7258 249.025 45.2509 249.025 46.9511C249.025 48.6513 248.625 50.1849 247.825 51.5517C247.025 52.9019 245.916 53.9686 244.499 54.752C243.083 55.5188 241.499 55.9022 239.749 55.9022ZM239.749 53.6769C241.032 53.6769 242.182 53.3852 243.199 52.8018C244.233 52.2184 245.041 51.4184 245.625 50.4016C246.225 49.368 246.525 48.2179 246.525 46.9511C246.525 45.6843 246.225 44.5425 245.625 43.5257C245.041 42.4923 244.233 41.6838 243.199 41.1004C242.182 40.5169 241.032 40.2253 239.749 40.2253C238.465 40.2253 237.298 40.5169 236.249 41.1004C235.215 41.6838 234.398 42.4923 233.798 43.5257C233.215 44.5425 232.923 45.6843 232.923 46.9511C232.923 48.2179 233.215 49.368 233.798 50.4016C234.398 51.4184 235.215 52.2184 236.249 52.8018C237.298 53.3852 238.465 53.6769 239.749 53.6769ZM264.548 55.7022L260.773 50.3265C260.305 50.3599 259.939 50.3765 259.673 50.3765H255.347V55.7022H252.847V38.2001H259.673C261.939 38.2001 263.723 38.7418 265.023 39.8253C266.324 40.9088 266.973 42.4005 266.973 44.3008C266.973 45.6509 266.64 46.801 265.974 47.7512C265.307 48.7014 264.357 49.3931 263.123 49.8265L267.274 55.7022H264.548ZM259.598 48.2512C261.182 48.2512 262.39 47.9096 263.223 47.2262C264.056 46.5428 264.473 45.5677 264.473 44.3008C264.473 43.034 264.056 42.0672 263.223 41.4004C262.39 40.717 261.182 40.3753 259.598 40.3753H255.347V48.2512H259.598Z" fill="#E63946"/>
</svg>
