<svg width="45" height="45" viewBox="0 0 45 45" fill="none" xmlns="http://www.w3.org/2000/svg">
<circle cx="22.1626" cy="22.7378" r="22.1626" fill="#4470AD"/>
<path d="M9.85007 12.0669V27.6251H14.2036V33.3879L19.7948 27.6251H35.0986V12.0669H9.85007ZM17.1574 21.8183C16.4592 21.8183 15.755 21.6455 15.3372 21.3894L15.7908 20.3647C16.1846 20.5971 16.7098 20.746 17.1693 20.746C17.5692 20.746 17.7124 20.6626 17.7124 20.5196C17.7124 19.9953 15.4029 20.4183 15.4029 18.8635C15.4029 18.089 16.0534 17.4576 17.3484 17.4576C17.9094 17.4576 18.4882 17.5767 18.9239 17.8209L18.5002 18.8396C18.0884 18.6311 17.7005 18.5299 17.3365 18.5299C16.9247 18.5299 16.7934 18.649 16.7934 18.792C16.7934 19.2924 19.1029 18.8754 19.1029 20.4124C19.1029 21.1749 18.4524 21.8183 17.1574 21.8183ZM23.5487 21.7229L23.5368 19.8226L22.6297 21.3476H22.009L21.1019 19.8881V21.7229H19.8188V17.5529H20.9766L22.3373 19.7749L23.6621 17.5529H24.8199L24.8318 21.7229H23.5487ZM27.3678 21.8183C26.6695 21.8183 25.9654 21.6455 25.5476 21.3894L26.0012 20.3647C26.395 20.5971 26.9202 20.746 27.3797 20.746C27.7795 20.746 27.9228 20.6626 27.9228 20.5196C27.9228 19.9953 25.6133 20.4183 25.6133 18.8635C25.6133 18.089 26.2637 17.4576 27.5588 17.4576C28.1198 17.4576 28.6986 17.5767 29.1343 17.8209L28.7106 18.8396C28.2988 18.6311 27.9109 18.5299 27.5469 18.5299C27.1351 18.5299 27.0038 18.649 27.0038 18.792C27.0038 19.2924 29.3133 18.8754 29.3133 20.4124C29.3133 21.1749 28.6628 21.8183 27.3678 21.8183Z" fill="white"/>
</svg>
