<svg width="45" height="45" viewBox="0 0 45 45" fill="none" xmlns="http://www.w3.org/2000/svg">
<circle cx="22.1626" cy="22.7378" r="22.1626" fill="#E63946"/>
<path d="M10 14V29.5582H14.3535V35.321L19.9447 29.5582H35.2485V14H10ZM17.3073 23.7514C16.6091 23.7514 15.9049 23.5786 15.4872 23.3225L15.9407 22.2978C16.3346 22.5302 16.8598 22.6791 17.3193 22.6791C17.7191 22.6791 17.8624 22.5957 17.8624 22.4527C17.8624 21.9284 15.5528 22.3514 15.5528 20.7966C15.5528 20.0221 16.2033 19.3907 17.4983 19.3907C18.0593 19.3907 18.6382 19.5098 19.0738 19.7541L18.6501 20.7727C18.2384 20.5642 17.8505 20.463 17.4864 20.463C17.0746 20.463 16.9433 20.5821 16.9433 20.7251C16.9433 21.2255 19.2529 20.8085 19.2529 22.3455C19.2529 23.108 18.6024 23.7514 17.3073 23.7514ZM23.6987 23.6561L23.6867 21.7557L22.7796 23.2807H22.1589L21.2518 21.8212V23.6561H19.9687V19.486H21.1265L22.4872 21.7081L23.812 19.486H24.9698L24.9818 23.6561H23.6987ZM27.5177 23.7514C26.8195 23.7514 26.1153 23.5786 25.6975 23.3225L26.1511 22.2978C26.5449 22.5302 27.0701 22.6791 27.5296 22.6791C27.9295 22.6791 28.0727 22.5957 28.0727 22.4527C28.0727 21.9284 25.7632 22.3514 25.7632 20.7966C25.7632 20.0221 26.4137 19.3907 27.7087 19.3907C28.2697 19.3907 28.8485 19.5098 29.2842 19.7541L28.8605 20.7727C28.4487 20.5642 28.0608 20.463 27.6968 20.463C27.285 20.463 27.1537 20.5821 27.1537 20.7251C27.1537 21.2255 29.4632 20.8085 29.4632 22.3455C29.4632 23.108 28.8127 23.7514 27.5177 23.7514Z" fill="white"/>
</svg>
